<svg xmlns="http://www.w3.org/2000/svg" width="520" height="230" viewBox="0 0 520 230"><rect x="0" y="0" width="520" height="230" fill="#0b0f1a"/><line x1="56" y1="24" x2="504" y2="24" stroke="#1c2434"/><text x="50" y="28" fill="#7f8aa3" font-size="11" text-anchor="end">510.9</text><line x1="56" y1="68.5" x2="504" y2="68.5" stroke="#1c2434"/><text x="50" y="72.5" fill="#7f8aa3" font-size="11" text-anchor="end">489.17</text><line x1="56" y1="113" x2="504" y2="113" stroke="#1c2434"/><text x="50" y="117" fill="#7f8aa3" font-size="11" text-anchor="end">467.45</text><line x1="56" y1="157.5" x2="504" y2="157.5" stroke="#1c2434"/><text x="50" y="161.5" fill="#7f8aa3" font-size="11" text-anchor="end">445.72</text><line x1="56" y1="202" x2="504" y2="202" stroke="#1c2434"/><text x="50" y="206" fill="#7f8aa3" font-size="11" text-anchor="end">424</text><line x1="56" y1="122.11506918781447" x2="56" y2="167.9976836138153" stroke="#16c784" stroke-width="1"/><rect x="52.945454545454545" y="125.80204099048336" width="6.1090909090909085" height="1" fill="#16c784"/><line x1="66.18181818181819" y1="104.49940527592423" x2="66.18181818181819" y2="132.3567269842485" stroke="#16c784" stroke-width="1"/><rect x="63.12727272727273" y="109.3129969422719" width="6.1090909090909085" height="18.947066923402986" fill="#16c784"/><line x1="76.36363636363636" y1="108.9033056263672" x2="76.36363636363636" y2="127.85037254977017" stroke="#ea3943" stroke-width="1"/><rect x="73.30909090909091" y="118.01840606924084" width="6.1090909090909085" height="3.3797345707995703" fill="#ea3943"/><line x1="86.54545454545455" y1="77.46146619940939" x2="86.54545454545455" y2="116.58454897369273" stroke="#16c784" stroke-width="1"/><rect x="83.4909090909091" y="81.66052089189999" width="6.1090909090909085" height="34.92402808179274" fill="#16c784"/><line x1="96.72727272727272" y1="83.09437798744811" x2="96.72727272727272" y2="101.11967070512468" stroke="#ea3943" stroke-width="1"/><rect x="93.67272727272727" y="83.1967695613651" width="6.1090909090909085" height="11.88029803981614" fill="#ea3943"/><line x1="106.9090909090909" y1="71.1116258635966" x2="106.9090909090909" y2="91.59494145646468" stroke="#16c784" stroke-width="1"/><rect x="103.85454545454546" y="81.96775812376933" width="6.1090909090909085" height="7.374006115456197" fill="#16c784"/><line x1="117.0909090909091" y1="43.66399547117703" x2="117.0909090909091" y2="86.2692669002953" stroke="#16c784" stroke-width="1"/><rect x="114.03636363636365" y="64.76178552778381" width="6.1090909090909085" height="17.718055485807213" fill="#16c784"/><line x1="127.27272727272727" y1="43.459149813224684" x2="127.27272727272727" y2="66.81011708707061" stroke="#16c784" stroke-width="1"/><rect x="124.21818181818182" y="44.79055282473743" width="6.1090909090909085" height="18.025292717676564" fill="#16c784"/><line x1="137.45454545454544" y1="44.79055282473743" x2="137.45454545454544" y2="44.79055282473743" stroke="#16c784" stroke-width="1"/><rect x="134.39999999999998" y="44.79055282473743" width="6.1090909090909085" height="1" fill="#16c784"/><line x1="147.63636363636363" y1="43.459149813224684" x2="147.63636363636363" y2="106.54773683521104" stroke="#ea3943" stroke-width="1"/><rect x="144.58181818181816" y="44.79055282473743" width="6.1090909090909085" height="52.74453765163531" fill="#ea3943"/><line x1="157.8181818181818" y1="89.75145555513024" x2="157.8181818181818" y2="117.7111688373715" stroke="#ea3943" stroke-width="1"/><rect x="154.76363636363635" y="97.7399361343251" width="6.1090909090909085" height="8.193326237147247" fill="#ea3943"/><line x1="168" y1="102.75831094850676" x2="168" y2="121.39814064004041" stroke="#16c784" stroke-width="1"/><rect x="164.94545454545454" y="108.2888311626285" width="6.1090909090909085" height="1.5362486694651096" fill="#16c784"/><line x1="178.1818181818182" y1="104.80664250779358" x2="178.1818181818182" y2="139.6282790156693" stroke="#ea3943" stroke-width="1"/><rect x="175.12727272727273" y="107.7767482728068" width="6.1090909090909085" height="12.699680671625572" fill="#ea3943"/><line x1="188.36363636363637" y1="117.09663186351442" x2="188.36363636363637" y2="131.12771554665275" stroke="#ea3943" stroke-width="1"/><rect x="185.3090909090909" y="120.57882051834935" width="6.1090909090909085" height="7.4763976893731865" fill="#ea3943"/><line x1="198.54545454545453" y1="123.95855508914892" x2="198.54545454545453" y2="139.52588744175233" stroke="#ea3943" stroke-width="1"/><rect x="195.49090909090907" y="125.39241218469702" width="6.1090909090909085" height="6.861923225634499" fill="#ea3943"/><line x1="208.72727272727272" y1="138.6041132360259" x2="208.72727272727272" y2="189.71001064427915" stroke="#ea3943" stroke-width="1"/><rect x="205.67272727272726" y="144.64671633996937" width="6.1090909090909085" height="39.84007383217576" fill="#ea3943"/><line x1="218.9090909090909" y1="163.1840919474676" x2="218.9090909090909" y2="186.94475053721828" stroke="#16c784" stroke-width="1"/><rect x="215.85454545454544" y="168.40737492972002" width="6.1090909090909085" height="15.157641036698692" fill="#16c784"/><line x1="229.0909090909091" y1="164.3107118111464" x2="229.0909090909091" y2="187.66167908499233" stroke="#ea3943" stroke-width="1"/><rect x="226.03636363636363" y="168.40737492972002" width="6.1090909090909085" height="13.826238025185944" fill="#ea3943"/><line x1="239.27272727272728" y1="181.6190759810489" x2="239.27272727272728" y2="202" stroke="#ea3943" stroke-width="1"/><rect x="236.21818181818182" y="182.23361295490596" width="6.1090909090909085" height="11.880298039816154" fill="#ea3943"/><line x1="249.45454545454544" y1="161.1357603881808" x2="249.45454545454544" y2="194.2163650787575" stroke="#16c784" stroke-width="1"/><rect x="246.39999999999998" y="167.9976836138153" width="6.1090909090909085" height="19.868841129129407" fill="#16c784"/><line x1="259.6363636363636" y1="36.28998935572085" x2="259.6363636363636" y2="152.8400425771166" stroke="#16c784" stroke-width="1"/><rect x="256.58181818181816" y="50.11622738090682" width="6.1090909090909085" height="102.72381519620978" fill="#16c784"/><line x1="269.8181818181818" y1="42.23013837562894" x2="269.8181818181818" y2="82.17260378172169" stroke="#16c784" stroke-width="1"/><rect x="266.76363636363635" y="53.08627063580164" width="6.1090909090909085" height="2.355631301274542" fill="#16c784"/><line x1="280" y1="51.550021966336544" x2="280" y2="92.82395289406045" stroke="#ea3943" stroke-width="1"/><rect x="276.94545454545454" y="53.08627063580164" width="6.1090909090909085" height="35.84580228751916" fill="#ea3943"/><line x1="290.1818181818182" y1="57.797470728232355" x2="290.1818181818182" y2="88.62483569145147" stroke="#16c784" stroke-width="1"/><rect x="287.1272727272727" y="74.08166911849143" width="6.1090909090909085" height="10.753740686255753" fill="#16c784"/><line x1="300.3636363636364" y1="68.85844864635743" x2="300.3636363636364" y2="91.28770422459536" stroke="#ea3943" stroke-width="1"/><rect x="297.3090909090909" y="77.05177488350466" width="6.1090909090909085" height="1.024165779643397" fill="#ea3943"/><line x1="310.5454545454545" y1="57.59262507027998" x2="310.5454545454545" y2="76.94938330958769" stroke="#16c784" stroke-width="1"/><rect x="307.49090909090904" y="74.59375200831313" width="6.1090909090909085" height="1.945939985369833" fill="#16c784"/><line x1="320.72727272727275" y1="62.71345396849699" x2="320.72727272727275" y2="103.68008515423318" stroke="#ea3943" stroke-width="1"/><rect x="317.6727272727273" y="74.59375200831313" width="6.1090909090909085" height="25.808990149037484" fill="#ea3943"/><line x1="330.9090909090909" y1="93.43842735779914" x2="330.9090909090909" y2="120.68121209226634" stroke="#ea3943" stroke-width="1"/><rect x="327.8545454545454" y="97.53509047637274" width="6.1090909090909085" height="17.3084266800209" fill="#ea3943"/><line x1="341.09090909090907" y1="105.72841671351999" x2="341.09090909090907" y2="125.18756652674467" stroke="#ea3943" stroke-width="1"/><rect x="338.0363636363636" y="114.94590873031063" width="6.1090909090909085" height="1" fill="#ea3943"/><line x1="351.27272727272725" y1="115.86768293603704" x2="351.27272727272725" y2="115.86768293603704" stroke="#16c784" stroke-width="1"/><rect x="348.2181818181818" y="115.86768293603704" width="6.1090909090909085" height="1" fill="#16c784"/><line x1="361.45454545454544" y1="112.4878858551191" x2="361.45454545454544" y2="138.50172166210893" stroke="#ea3943" stroke-width="1"/><rect x="358.4" y="115.86768293603704" width="6.1090909090909085" height="18.127684291593553" fill="#ea3943"/><line x1="371.6363636363636" y1="123.03684339354088" x2="371.6363636363636" y2="139.52588744175233" stroke="#16c784" stroke-width="1"/><rect x="368.58181818181816" y="131.74225252050982" width="6.1090909090909085" height="2.6628060230254675" fill="#16c784"/><line x1="381.8181818181818" y1="100.30035058343363" x2="381.8181818181818" y2="131.74225252050982" stroke="#16c784" stroke-width="1"/><rect x="378.76363636363635" y="112.69273151307146" width="6.1090909090909085" height="13.519000793316621" fill="#16c784"/><line x1="392" y1="70.90678020564425" x2="392" y2="111.87341139138042" stroke="#16c784" stroke-width="1"/><rect x="388.94545454545454" y="83.09437798744811" width="6.1090909090909085" height="28.779033403932303" fill="#16c784"/><line x1="402.1818181818182" y1="67.42459155080931" x2="402.1818181818182" y2="89.03452700735617" stroke="#16c784" stroke-width="1"/><rect x="399.1272727272727" y="71.52125466938293" width="6.1090909090909085" height="5.5305202141217364" fill="#16c784"/><line x1="412.3636363636364" y1="44.278469934915734" x2="412.3636363636364" y2="79.30495210074385" stroke="#16c784" stroke-width="1"/><rect x="409.3090909090909" y="69.88261442600086" width="6.1090909090909085" height="6.554685993765119" fill="#16c784"/><line x1="422.54545454545456" y1="66.70772551315363" x2="422.54545454545456" y2="93.43842735779914" stroke="#ea3943" stroke-width="1"/><rect x="419.4909090909091" y="66.81011708707061" width="6.1090909090909085" height="23.658204505715304" fill="#ea3943"/><line x1="432.72727272727275" y1="85.7571840104736" x2="432.72727272727275" y2="124.06100917318429" stroke="#ea3943" stroke-width="1"/><rect x="429.6727272727273" y="91.39009579851233" width="6.1090909090909085" height="25.60414449108511" fill="#ea3943"/><line x1="442.9090909090909" y1="95.6916045750383" x2="442.9090909090909" y2="116.89184871568045" stroke="#16c784" stroke-width="1"/><rect x="439.8545454545454" y="111.9758029652974" width="6.1090909090909085" height="4.916045750383049" fill="#16c784"/><line x1="453.09090909090907" y1="54.82736496321911" x2="453.09090909090907" y2="107.7767482728068" stroke="#16c784" stroke-width="1"/><rect x="450.0363636363636" y="78.89526078483912" width="6.1090909090909085" height="28.881487487967675" fill="#16c784"/><line x1="463.27272727272725" y1="70.08746008395318" x2="463.27272727272725" y2="93.33603578388217" stroke="#16c784" stroke-width="1"/><rect x="460.2181818181818" y="78.48563197905278" width="6.1090909090909085" height="3.7893633765858823" fill="#16c784"/><line x1="473.45454545454544" y1="62.815845542413996" x2="473.45454545454544" y2="90.67316725073827" stroke="#16c784" stroke-width="1"/><rect x="470.4" y="81.0460464281613" width="6.1090909090909085" height="4.6087460083953005" fill="#16c784"/><line x1="483.6363636363636" y1="24" x2="483.6363636363636" y2="80.22666379635186" stroke="#16c784" stroke-width="1"/><rect x="480.58181818181816" y="44.89294439865441" width="6.1090909090909085" height="28.98394157200306" fill="#16c784"/><line x1="493.8181818181818" y1="32.91025478492128" x2="493.8181818181818" y2="51.95971328224127" stroke="#16c784" stroke-width="1"/><rect x="490.76363636363635" y="36.5972265875902" width="6.1090909090909085" height="5.63291178803874" fill="#16c784"/><line x1="504" y1="31.78363492124251" x2="504" y2="77.66624934724337" stroke="#ea3943" stroke-width="1"/><rect x="500.94545454545454" y="36.90446381945952" width="6.1090909090909085" height="24.067895821620027" fill="#ea3943"/><text x="56" y="16" fill="#cdd6e8" font-size="13">Candlestick · last 45 sessions</text></svg>