<svg xmlns="http://www.w3.org/2000/svg" width="820" height="360" viewBox="0 0 820 360"><rect x="0" y="0" width="820" height="360" fill="#0b0f1a"/><line x1="56" y1="24" x2="804" y2="24" stroke="#1c2434"/><text x="50" y="28" fill="#7f8aa3" font-size="11" text-anchor="end">7924.5</text><line x1="56" y1="101" x2="804" y2="101" stroke="#1c2434"/><text x="50" y="105" fill="#7f8aa3" font-size="11" text-anchor="end">7499.63</text><line x1="56" y1="178" x2="804" y2="178" stroke="#1c2434"/><text x="50" y="182" fill="#7f8aa3" font-size="11" text-anchor="end">7074.75</text><line x1="56" y1="255" x2="804" y2="255" stroke="#1c2434"/><text x="50" y="259" fill="#7f8aa3" font-size="11" text-anchor="end">6649.88</text><line x1="56" y1="332" x2="804" y2="332" stroke="#1c2434"/><text x="50" y="336" fill="#7f8aa3" font-size="11" text-anchor="end">6225</text><line x1="56" y1="292.1294498381877" x2="56" y2="332" stroke="#16c784" stroke-width="1"/><rect x="50.78139534883721" y="297.8381877022654" width="10.43720930232558" height="18.75728155339806" fill="#16c784"/><line x1="73.3953488372093" y1="288.77669902912623" x2="73.3953488372093" y2="316.59546925566343" stroke="#ea3943" stroke-width="1"/><rect x="68.1767441860465" y="294.75728155339806" width="10.43720930232558" height="18.39482200647251" fill="#ea3943"/><line x1="90.7906976744186" y1="259.68932038834953" x2="90.7906976744186" y2="325.747572815534" stroke="#16c784" stroke-width="1"/><rect x="85.5720930232558" y="263.1326860841424" width="10.43720930232558" height="62.52427184466018" fill="#16c784"/><line x1="108.18604651162791" y1="242.6537216828479" x2="108.18604651162791" y2="270.2006472491909" stroke="#ea3943" stroke-width="1"/><rect x="102.96744186046512" y="250.80906148867314" width="10.43720930232558" height="13.592233009708707" fill="#ea3943"/><line x1="125.5813953488372" y1="238.48543689320388" x2="125.5813953488372" y2="265.126213592233" stroke="#16c784" stroke-width="1"/><rect x="120.36279069767441" y="247.81877022653723" width="10.43720930232558" height="16.129449838187696" fill="#16c784"/><line x1="142.97674418604652" y1="223.0809061488673" x2="142.97674418604652" y2="243.6504854368932" stroke="#16c784" stroke-width="1"/><rect x="137.75813953488372" y="235.94822006472492" width="10.43720930232558" height="3.8058252427184414" fill="#16c784"/><line x1="160.37209302325581" y1="223.80582524271847" x2="160.37209302325581" y2="241.92880258899675" stroke="#16c784" stroke-width="1"/><rect x="155.15348837209302" y="227.06796116504853" width="10.43720930232558" height="8.880258899676392" fill="#16c784"/><line x1="177.7674418604651" y1="147.32686084142395" x2="177.7674418604651" y2="226.34304207119743" stroke="#16c784" stroke-width="1"/><rect x="172.54883720930232" y="151.85760517799352" width="10.43720930232558" height="68.41423948220066" fill="#16c784"/><line x1="195.1627906976744" y1="151.85760517799352" x2="195.1627906976744" y2="151.85760517799352" stroke="#16c784" stroke-width="1"/><rect x="189.94418604651162" y="151.85760517799352" width="10.43720930232558" height="1" fill="#16c784"/><line x1="212.5581395348837" y1="129.92880258899677" x2="212.5581395348837" y2="169.6181229773463" stroke="#ea3943" stroke-width="1"/><rect x="207.33953488372092" y="140.80258899676377" width="10.43720930232558" height="4.893203883495119" fill="#ea3943"/><line x1="229.953488372093" y1="145.51456310679612" x2="229.953488372093" y2="190.82200647249192" stroke="#ea3943" stroke-width="1"/><rect x="224.7348837209302" y="145.6957928802589" width="10.43720930232558" height="40.86731391585761" fill="#ea3943"/><line x1="247.3488372093023" y1="160.91909385113271" x2="247.3488372093023" y2="199.33980582524273" stroke="#16c784" stroke-width="1"/><rect x="242.1302325581395" y="165.0873786407767" width="10.43720930232558" height="31.896440129449815" fill="#16c784"/><line x1="264.74418604651163" y1="146.7831715210356" x2="264.74418604651163" y2="176.50485436893203" stroke="#16c784" stroke-width="1"/><rect x="259.52558139534887" y="156.02588996763754" width="10.43720930232558" height="9.061488673139166" fill="#16c784"/><line x1="282.1395348837209" y1="132.28478964401296" x2="282.1395348837209" y2="169.3462783171521" stroke="#ea3943" stroke-width="1"/><rect x="276.92093023255813" y="156.75080906148867" width="10.43720930232558" height="6.524271844660177" fill="#ea3943"/><line x1="299.5348837209302" y1="152.2200647249191" x2="299.5348837209302" y2="171.88349514563106" stroke="#ea3943" stroke-width="1"/><rect x="294.31627906976746" y="159.83171521035598" width="10.43720930232558" height="1.359223300970882" fill="#ea3943"/><line x1="316.9302325581395" y1="168.07766990291262" x2="316.9302325581395" y2="210.93851132686086" stroke="#ea3943" stroke-width="1"/><rect x="311.71162790697673" y="172.42718446601944" width="10.43720930232558" height="26.73139158576049" fill="#ea3943"/><line x1="334.3255813953488" y1="180.0388349514563" x2="334.3255813953488" y2="208.2200647249191" stroke="#ea3943" stroke-width="1"/><rect x="329.10697674418606" y="191.54692556634305" width="10.43720930232558" height="12.50485436893203" fill="#ea3943"/><line x1="351.72093023255815" y1="200.33656957928804" x2="351.72093023255815" y2="233.41100323624596" stroke="#ea3943" stroke-width="1"/><rect x="346.5023255813954" y="208.67313915857605" width="10.43720930232558" height="18.938511326860834" fill="#ea3943"/><line x1="369.1162790697674" y1="224.98381877022655" x2="369.1162790697674" y2="254.4336569579288" stroke="#ea3943" stroke-width="1"/><rect x="363.89767441860465" y="231.05501618122977" width="10.43720930232558" height="11.417475728155324" fill="#ea3943"/><line x1="386.51162790697674" y1="217.91585760517802" x2="386.51162790697674" y2="241.92880258899675" stroke="#ea3943" stroke-width="1"/><rect x="381.293023255814" y="230.873786407767" width="10.43720930232558" height="2.2653721682847845" fill="#ea3943"/><line x1="403.906976744186" y1="195.62459546925567" x2="403.906976744186" y2="223.98705501618122" stroke="#16c784" stroke-width="1"/><rect x="398.68837209302325" y="205.59223300970874" width="10.43720930232558" height="7.702265372168284" fill="#16c784"/><line x1="421.30232558139534" y1="177.13915857605178" x2="421.30232558139534" y2="202.60194174757282" stroke="#16c784" stroke-width="1"/><rect x="416.0837209302326" y="187.7411003236246" width="10.43720930232558" height="11.961165048543677" fill="#16c784"/><line x1="438.6976744186046" y1="157.5663430420712" x2="438.6976744186046" y2="195.17152103559872" stroke="#16c784" stroke-width="1"/><rect x="433.47906976744184" y="161.82524271844662" width="10.43720930232558" height="25.91585760517799" fill="#16c784"/><line x1="456.09302325581393" y1="145.51456310679612" x2="456.09302325581393" y2="175.32686084142395" stroke="#16c784" stroke-width="1"/><rect x="450.87441860465117" y="150.04530744336572" width="10.43720930232558" height="9.786407766990266" fill="#16c784"/><line x1="473.48837209302326" y1="136.45307443365695" x2="473.48837209302326" y2="158.38187702265373" stroke="#ea3943" stroke-width="1"/><rect x="468.2697674418605" y="139.3527508090615" width="10.43720930232558" height="7.249190938511333" fill="#ea3943"/><line x1="490.8837209302325" y1="138.89967637540454" x2="490.8837209302325" y2="155.3009708737864" stroke="#16c784" stroke-width="1"/><rect x="485.66511627906976" y="144.789644012945" width="10.43720930232558" height="1.4498381877022553" fill="#16c784"/><line x1="508.27906976744185" y1="139.89644012944984" x2="508.27906976744185" y2="171.79288025889966" stroke="#ea3943" stroke-width="1"/><rect x="503.0604651162791" y="145.6051779935275" width="10.43720930232558" height="17.216828478964402" fill="#ea3943"/><line x1="525.6744186046511" y1="155.48220064724921" x2="525.6744186046511" y2="203.32686084142395" stroke="#ea3943" stroke-width="1"/><rect x="520.4558139534884" y="159.92233009708738" width="10.43720930232558" height="37.51456310679612" fill="#ea3943"/><line x1="543.0697674418604" y1="173.7864077669903" x2="543.0697674418604" y2="198.25242718446603" stroke="#ea3943" stroke-width="1"/><rect x="537.8511627906977" y="184.29773462783172" width="10.43720930232558" height="8.517799352750814" fill="#ea3943"/><line x1="560.4651162790697" y1="192.81553398058253" x2="560.4651162790697" y2="192.81553398058253" stroke="#16c784" stroke-width="1"/><rect x="555.2465116279069" y="192.81553398058253" width="10.43720930232558" height="1" fill="#16c784"/><line x1="577.860465116279" y1="142.97734627831713" x2="577.860465116279" y2="212.11650485436894" stroke="#16c784" stroke-width="1"/><rect x="572.6418604651162" y="168.3495145631068" width="10.43720930232558" height="23.197411003236255" fill="#16c784"/><line x1="595.2558139534883" y1="173.42394822006472" x2="595.2558139534883" y2="192.81553398058253" stroke="#ea3943" stroke-width="1"/><rect x="590.0372093023256" y="178.86084142394822" width="10.43720930232558" height="7.067961165048558" fill="#ea3943"/><line x1="612.6511627906976" y1="178.2265372168285" x2="612.6511627906976" y2="206.9514563106796" stroke="#ea3943" stroke-width="1"/><rect x="607.4325581395349" y="183.210355987055" width="10.43720930232558" height="19.754045307443363" fill="#ea3943"/><line x1="630.046511627907" y1="198.61488673139158" x2="630.046511627907" y2="222.26537216828478" stroke="#ea3943" stroke-width="1"/><rect x="624.8279069767442" y="200.60841423948222" width="10.43720930232558" height="16.129449838187696" fill="#ea3943"/><line x1="647.4418604651163" y1="196.07766990291262" x2="647.4418604651163" y2="236.49190938511327" stroke="#16c784" stroke-width="1"/><rect x="642.2232558139535" y="200.5177993527508" width="10.43720930232558" height="12.595469255663403" fill="#16c784"/><line x1="664.8372093023255" y1="176.14239482200648" x2="664.8372093023255" y2="211.3009708737864" stroke="#16c784" stroke-width="1"/><rect x="659.6186046511627" y="178.31715210355986" width="10.43720930232558" height="15.85760517799352" fill="#16c784"/><line x1="682.2325581395348" y1="172.15533980582524" x2="682.2325581395348" y2="215.46925566343043" stroke="#ea3943" stroke-width="1"/><rect x="677.0139534883721" y="172.15533980582524" width="10.43720930232558" height="23.37864077669903" fill="#ea3943"/><line x1="699.6279069767442" y1="201.7864077669903" x2="699.6279069767442" y2="241.3851132686084" stroke="#ea3943" stroke-width="1"/><rect x="694.4093023255814" y="208.1294498381877" width="10.43720930232558" height="24.828478964401285" fill="#ea3943"/><line x1="717.0232558139535" y1="216.6472491909385" x2="717.0232558139535" y2="231.41747572815535" stroke="#16c784" stroke-width="1"/><rect x="711.8046511627907" y="224.16828478964402" width="10.43720930232558" height="7.249190938511333" fill="#16c784"/><line x1="734.4186046511627" y1="207.67637540453075" x2="734.4186046511627" y2="225.61812297734627" stroke="#16c784" stroke-width="1"/><rect x="729.1999999999999" y="221.26860841423948" width="10.43720930232558" height="1" fill="#16c784"/><line x1="751.813953488372" y1="214.74433656957927" x2="751.813953488372" y2="243.10679611650485" stroke="#16c784" stroke-width="1"/><rect x="746.5953488372093" y="226.5242718446602" width="10.43720930232558" height="1.2686084142394805" fill="#16c784"/><line x1="769.2093023255813" y1="206.0453074433657" x2="769.2093023255813" y2="237.94174757281553" stroke="#16c784" stroke-width="1"/><rect x="763.9906976744186" y="211.1197411003236" width="10.43720930232558" height="20.56957928802592" fill="#16c784"/><line x1="786.6046511627907" y1="142.61488673139158" x2="786.6046511627907" y2="204.8673139158576" stroke="#16c784" stroke-width="1"/><rect x="781.3860465116279" y="154.48543689320388" width="10.43720930232558" height="47.93527508090614" fill="#16c784"/><line x1="804" y1="24" x2="804" y2="156.93203883495144" stroke="#16c784" stroke-width="1"/><rect x="798.7813953488372" y="70.57605177993526" width="10.43720930232558" height="82.82200647249192" fill="#16c784"/><text x="56" y="16" fill="#cdd6e8" font-size="13">Candlestick · last 44 sessions</text></svg>