<svg xmlns="http://www.w3.org/2000/svg" width="820" height="360" viewBox="0 0 820 360"><rect x="0" y="0" width="820" height="360" fill="#0b0f1a"/><line x1="56" y1="24" x2="804" y2="24" stroke="#1c2434"/><text x="50" y="28" fill="#7f8aa3" font-size="11" text-anchor="end">1631.5</text><line x1="56" y1="101" x2="804" y2="101" stroke="#1c2434"/><text x="50" y="105" fill="#7f8aa3" font-size="11" text-anchor="end">1551.73</text><line x1="56" y1="178" x2="804" y2="178" stroke="#1c2434"/><text x="50" y="182" fill="#7f8aa3" font-size="11" text-anchor="end">1471.95</text><line x1="56" y1="255" x2="804" y2="255" stroke="#1c2434"/><text x="50" y="259" fill="#7f8aa3" font-size="11" text-anchor="end">1392.18</text><line x1="56" y1="332" x2="804" y2="332" stroke="#1c2434"/><text x="50" y="336" fill="#7f8aa3" font-size="11" text-anchor="end">1312.4</text><line x1="56" y1="271.67407874396486" x2="56" y2="332" stroke="#ea3943" stroke-width="1"/><rect x="50.78139534883721" y="271.67407874396486" width="10.43720930232558" height="5.694790531382694" fill="#ea3943"/><line x1="73.3953488372093" y1="205.94297850820197" x2="73.3953488372093" y2="277.36886927534755" stroke="#ea3943" stroke-width="1"/><rect x="68.1767441860465" y="257.0993597333198" width="10.43720930232558" height="11.775572699552072" fill="#ea3943"/><line x1="90.7906976744186" y1="276.403654535251" x2="90.7906976744186" y2="297.5418809081787" stroke="#16c784" stroke-width="1"/><rect x="85.5720930232558" y="282.96716189753363" width="10.43720930232558" height="3.0886400386830246" fill="#16c784"/><line x1="108.18604651162791" y1="246.48199759225758" x2="108.18604651162791" y2="294.16362931784073" stroke="#ea3943" stroke-width="1"/><rect x="102.96744186046512" y="265.3036850241406" width="10.43720930232558" height="22.489550573875817" fill="#ea3943"/><line x1="125.5813953488372" y1="265.0140734724856" x2="125.5813953488372" y2="287.0210166763132" stroke="#ea3943" stroke-width="1"/><rect x="120.36279069767441" y="282.1949429758304" width="10.43720930232558" height="1.6408179285381834" fill="#ea3943"/><line x1="142.97674418604652" y1="227.46731434198128" x2="142.97674418604652" y2="280.4575093140306" stroke="#16c784" stroke-width="1"/><rect x="137.75813953488372" y="236.7333522820953" width="10.43720930232558" height="29.052940112093523" fill="#16c784"/><line x1="160.37209302325581" y1="184.7082542260776" x2="160.37209302325581" y2="244.35857229367113" stroke="#16c784" stroke-width="1"/><rect x="155.15348837209302" y="192.04386268599848" width="10.43720930232558" height="45.75120224539006" fill="#16c784"/><line x1="177.7674418604651" y1="133.55187300095983" x2="177.7674418604651" y2="182.77782474588446" stroke="#16c784" stroke-width="1"/><rect x="172.54883720930232" y="160.67438363286018" width="10.43720930232558" height="17.27736741254148" fill="#16c784"/><line x1="195.1627906976744" y1="160.67438363286018" x2="195.1627906976744" y2="160.67438363286018" stroke="#16c784" stroke-width="1"/><rect x="189.94418604651162" y="160.67438363286018" width="10.43720930232558" height="1" fill="#16c784"/><line x1="212.5581395348837" y1="119.55625926955966" x2="212.5581395348837" y2="184.61175631688093" stroke="#ea3943" stroke-width="1"/><rect x="207.33953488372092" y="150.92573832269792" width="10.43720930232558" height="23.744259041562458" fill="#ea3943"/><line x1="229.953488372093" y1="164.43874468404982" x2="229.953488372093" y2="206.52208378744692" stroke="#ea3943" stroke-width="1"/><rect x="224.7348837209302" y="173.12567734491884" width="10.43720930232558" height="29.05294011209355" fill="#ea3943"/><line x1="247.3488372093023" y1="191.65775322514688" x2="247.3488372093023" y2="239.24288704153338" stroke="#16c784" stroke-width="1"/><rect x="242.1302325581395" y="199.76558060677098" width="10.43720930232558" height="4.2469684212378525" fill="#16c784"/><line x1="264.74418604651163" y1="197.54565739898786" x2="264.74418604651163" y2="251.3080712927404" stroke="#ea3943" stroke-width="1"/><rect x="259.52558139534887" y="199.18647532752604" width="10.43720930232558" height="21.717331652172646" fill="#ea3943"/><line x1="282.1395348837209" y1="194.0707900753883" x2="282.1395348837209" y2="229.78373545896108" stroke="#ea3943" stroke-width="1"/><rect x="276.92093023255813" y="220.4211996096504" width="10.43720930232558" height="4.536462148827866" fill="#ea3943"/><line x1="299.5348837209302" y1="121.96929611980107" x2="299.5348837209302" y2="218.39427222026063" stroke="#16c784" stroke-width="1"/><rect x="294.31627906976746" y="126.11976663184225" width="10.43720930232558" height="91.40578875751845" fill="#16c784"/><line x1="316.9302325581395" y1="123.80322769079754" x2="316.9302325581395" y2="170.23003312462916" stroke="#ea3943" stroke-width="1"/><rect x="311.71162790697673" y="150.34663304345298" width="10.43720930232558" height="9.748645310162289" fill="#ea3943"/><line x1="334.3255813953488" y1="107.68407083674595" x2="334.3255813953488" y2="160.28827417200858" stroke="#16c784" stroke-width="1"/><rect x="329.10697674418606" y="117.62582978936652" width="10.43720930232558" height="15.153824289890053" fill="#16c784"/><line x1="351.72093023255815" y1="114.92318138747018" x2="351.72093023255815" y2="172.73956788406724" stroke="#ea3943" stroke-width="1"/><rect x="346.5023255813954" y="117.14322241931822" width="10.43720930232558" height="50.191166485021284" fill="#ea3943"/><line x1="369.1162790697674" y1="156.04142357483568" x2="369.1162790697674" y2="198.8003658666744" stroke="#ea3943" stroke-width="1"/><rect x="363.89767441860465" y="167.91349418358442" width="10.43720930232558" height="26.929514813507097" fill="#ea3943"/><line x1="386.51162790697674" y1="157.68224150337386" x2="386.51162790697674" y2="194.1674058086499" stroke="#16c784" stroke-width="1"/><rect x="381.293023255814" y="164.72835623570475" width="10.43720930232558" height="5.501676888924408" fill="#16c784"/><line x1="403.906976744186" y1="139.24666353234252" x2="403.906976744186" y2="173.4152888965738" stroke="#ea3943" stroke-width="1"/><rect x="398.68837209302325" y="148.9953088425048" width="10.43720930232558" height="18.725189522686293" fill="#ea3943"/><line x1="421.30232558139534" y1="154.78659728308418" x2="421.30232558139534" y2="177.37264576615672" stroke="#ea3943" stroke-width="1"/><rect x="416.0837209302326" y="160.96399518451517" width="10.43720930232558" height="6.853001089872578" fill="#ea3943"/><line x1="438.6976744186046" y1="160.86749727531847" x2="438.6976744186046" y2="193.1055753352917" stroke="#ea3943" stroke-width="1"/><rect x="433.47906976744184" y="160.86749727531847" width="10.43720930232558" height="23.0685380290559" fill="#ea3943"/><line x1="456.09302325581393" y1="131.62144352076666" x2="456.09302325581393" y2="184.7082542260776" stroke="#16c784" stroke-width="1"/><rect x="450.87441860465117" y="144.36223096041533" width="10.43720930232558" height="33.10691271493806" fill="#16c784"/><line x1="473.48837209302326" y1="124.86494034009075" x2="473.48837209302326" y2="157.5857435941772" stroke="#ea3943" stroke-width="1"/><rect x="468.2697674418605" y="143.20402040192542" width="10.43720930232558" height="5.405178979727765" fill="#ea3943"/><line x1="490.8837209302325" y1="97.83892761738699" x2="490.8837209302325" y2="160.09527835361527" stroke="#16c784" stroke-width="1"/><rect x="485.66511627906976" y="102.76149922706648" width="10.43720930232558" height="39.47730643476237" fill="#16c784"/><line x1="508.27906976744185" y1="95.90849813719387" x2="508.27906976744185" y2="163.47352994395322" stroke="#ea3943" stroke-width="1"/><rect x="503.0604651162791" y="100.73457183767667" width="10.43720930232558" height="39.380808525565755" fill="#ea3943"/><line x1="525.6744186046511" y1="118.49454662026642" x2="525.6744186046511" y2="158.55095833427376" stroke="#16c784" stroke-width="1"/><rect x="520.4558139534884" y="126.40926035943227" width="10.43720930232558" height="14.960828471496683" fill="#16c784"/><line x1="543.0697674418604" y1="101.69978657777324" x2="543.0697674418604" y2="132.97276772171486" stroke="#ea3943" stroke-width="1"/><rect x="537.8511627906977" y="117.33621823771159" width="10.43720930232558" height="8.397438933279062" fill="#ea3943"/><line x1="560.4651162790697" y1="125.73365717099065" x2="560.4651162790697" y2="125.73365717099065" stroke="#16c784" stroke-width="1"/><rect x="555.2465116279069" y="125.73365717099065" width="10.43720930232558" height="1" fill="#16c784"/><line x1="577.860465116279" y1="133.35887718256646" x2="577.860465116279" y2="180.55778371403642" stroke="#ea3943" stroke-width="1"/><rect x="572.6418604651162" y="144.26573305121863" width="10.43720930232558" height="4.246968421237881" fill="#ea3943"/><line x1="595.2558139534883" y1="142.72141303187715" x2="595.2558139534883" y2="166.36917416424293" stroke="#ea3943" stroke-width="1"/><rect x="590.0372093023256" y="147.06487936231167" width="10.43720930232558" height="11.389581062765416" fill="#ea3943"/><line x1="612.6511627906976" y1="106.52586027825606" x2="612.6511627906976" y2="167.91349418358442" stroke="#16c784" stroke-width="1"/><rect x="607.4325581395349" y="117.14322241931822" width="10.43720930232558" height="41.31123800575887" fill="#16c784"/><line x1="630.046511627907" y1="89.53810441736957" x2="630.046511627907" y2="141.2735909217323" stroke="#16c784" stroke-width="1"/><rect x="624.8279069767442" y="97.64593179899367" width="10.43720930232558" height="19.400792711127906" fill="#16c784"/><line x1="647.4418604651163" y1="86.64246019707988" x2="647.4418604651163" y2="133.06926563091153" stroke="#ea3943" stroke-width="1"/><rect x="642.2232558139535" y="93.10935182610086" width="10.43720930232558" height="3.5713652327962677" fill="#ea3943"/><line x1="664.8372093023255" y1="64.92512854490724" x2="664.8372093023255" y2="108.26329394005589" stroke="#ea3943" stroke-width="1"/><rect x="659.6186046511627" y="88.28327812561807" width="10.43720930232558" height="15.153942113954969" fill="#ea3943"/><line x1="682.2325581395348" y1="91.08242443671108" x2="682.2325581395348" y2="139.63277299319412" stroke="#ea3943" stroke-width="1"/><rect x="677.0139534883721" y="100.73457183767667" width="10.43720930232558" height="31.852086423186563" fill="#ea3943"/><line x1="699.6279069767442" y1="95.23289494875226" x2="699.6279069767442" y2="157.1031362241289" stroke="#ea3943" stroke-width="1"/><rect x="694.4093023255814" y="132.68315617005993" width="10.43720930232558" height="13.802617913006799" fill="#ea3943"/><line x1="717.0232558139535" y1="114.73018556907684" x2="717.0232558139535" y2="169.07182256613925" stroke="#ea3943" stroke-width="1"/><rect x="711.8046511627907" y="137.12312040969113" width="10.43720930232558" height="26.736518995113727" fill="#ea3943"/><line x1="734.4186046511627" y1="105.75364135655283" x2="734.4186046511627" y2="155.07620883473913" stroke="#16c784" stroke-width="1"/><rect x="729.1999999999999" y="115.59890239997674" width="10.43720930232558" height="30.500762222238365" fill="#16c784"/><line x1="751.813953488372" y1="78.14852335460415" x2="751.813953488372" y2="128.72579930047698" stroke="#16c784" stroke-width="1"/><rect x="746.5953488372093" y="106.04325290820776" width="10.43720930232558" height="20.366007451224505" fill="#16c784"/><line x1="769.2093023255813" y1="24" x2="769.2093023255813" y2="119.07365189951139" stroke="#16c784" stroke-width="1"/><rect x="763.9906976744186" y="50.0607979826072" width="10.43720930232558" height="57.43027703574543" fill="#16c784"/><line x1="786.6046511627907" y1="44.462505360421176" x2="786.6046511627907" y2="105.56064553815952" stroke="#ea3943" stroke-width="1"/><rect x="781.3860465116279" y="50.0607979826072" width="10.43720930232558" height="47.39202017392819" fill="#ea3943"/><line x1="804" y1="68.11026649278693" x2="804" y2="111.64154553039381" stroke="#ea3943" stroke-width="1"/><rect x="798.7813953488372" y="88.1867802164214" width="10.43720930232558" height="20.559121093682734" fill="#ea3943"/><text x="56" y="16" fill="#cdd6e8" font-size="13">Candlestick · last 44 sessions</text></svg>