<svg xmlns="http://www.w3.org/2000/svg" width="820" height="360" viewBox="0 0 820 360"><rect x="0" y="0" width="820" height="360" fill="#0b0f1a"/><line x1="56" y1="24" x2="804" y2="24" stroke="#1c2434"/><text x="50" y="28" fill="#7f8aa3" font-size="11" text-anchor="end">3245</text><line x1="56" y1="101" x2="804" y2="101" stroke="#1c2434"/><text x="50" y="105" fill="#7f8aa3" font-size="11" text-anchor="end">3095.63</text><line x1="56" y1="178" x2="804" y2="178" stroke="#1c2434"/><text x="50" y="182" fill="#7f8aa3" font-size="11" text-anchor="end">2946.25</text><line x1="56" y1="255" x2="804" y2="255" stroke="#1c2434"/><text x="50" y="259" fill="#7f8aa3" font-size="11" text-anchor="end">2796.88</text><line x1="56" y1="332" x2="804" y2="332" stroke="#1c2434"/><text x="50" y="336" fill="#7f8aa3" font-size="11" text-anchor="end">2647.5</text><line x1="56" y1="299.78242677824267" x2="56" y2="332" stroke="#ea3943" stroke-width="1"/><rect x="50.78139534883721" y="304.93723849372384" width="10.43720930232558" height="5.257882779811723" fill="#ea3943"/><line x1="73.3953488372093" y1="266.5338912133891" x2="73.3953488372093" y2="306.4836820083682" stroke="#ea3943" stroke-width="1"/><rect x="68.1767441860465" y="287.05006701098324" width="10.43720930232558" height="5.0001421940376645" fill="#ea3943"/><line x1="90.7906976744186" y1="294.6276150627615" x2="90.7906976744186" y2="312.61785760983264" stroke="#ea3943" stroke-width="1"/><rect x="85.5720930232558" y="297.2050209205021" width="10.43720930232558" height="5.257882779811723" fill="#ea3943"/><line x1="108.18604651162791" y1="268.8535564853556" x2="108.18604651162791" y2="313.1849372384937" stroke="#ea3943" stroke-width="1"/><rect x="102.96744186046512" y="290.5553641474895" width="10.43720930232558" height="15.61897881799166" fill="#ea3943"/><line x1="125.5813953488372" y1="281.74058577405856" x2="125.5813953488372" y2="301.7927530073222" stroke="#16c784" stroke-width="1"/><rect x="120.36279069767441" y="296.01938905596234" width="10.43720930232558" height="3.6599666579497807" fill="#16c784"/><line x1="142.97674418604652" y1="223.0788032819038" x2="142.97674418604652" y2="284.67880328190375" stroke="#16c784" stroke-width="1"/><rect x="137.75813953488372" y="227.7697322829498" width="10.43720930232558" height="56.65133041317989" fill="#16c784"/><line x1="160.37209302325581" y1="160.9118495031381" x2="160.37209302325581" y2="240.5020920502092" stroke="#16c784" stroke-width="1"/><rect x="155.15348837209302" y="166.11813382583682" width="10.43720930232558" height="63.55885362186194" fill="#16c784"/><line x1="177.7674418604651" y1="136.1171548117155" x2="177.7674418604651" y2="179.15983263598326" stroke="#ea3943" stroke-width="1"/><rect x="172.54883720930232" y="159.5715481171548" width="10.43720930232558" height="4.587732086820097" fill="#ea3943"/><line x1="195.1627906976744" y1="164.1592802039749" x2="195.1627906976744" y2="164.1592802039749" stroke="#16c784" stroke-width="1"/><rect x="189.94418604651162" y="164.1592802039749" width="10.43720930232558" height="1" fill="#16c784"/><line x1="212.5581395348837" y1="152.87029288702928" x2="212.5581395348837" y2="188.02608361663178" stroke="#ea3943" stroke-width="1"/><rect x="207.33953488372092" y="156.58173215219665" width="10.43720930232558" height="25.980326555962364" fill="#ea3943"/><line x1="229.953488372093" y1="173.12872809884936" x2="229.953488372093" y2="206.42873627092052" stroke="#ea3943" stroke-width="1"/><rect x="224.7348837209302" y="176.11854406380755" width="10.43720930232558" height="20.876987447698724" fill="#ea3943"/><line x1="247.3488372093023" y1="163.17991631799163" x2="247.3488372093023" y2="219.77977412395398" stroke="#16c784" stroke-width="1"/><rect x="242.1302325581395" y="166.73668606171546" width="10.43720930232558" height="42.83653569560673" fill="#16c784"/><line x1="264.74418604651163" y1="168.3347280334728" x2="264.74418604651163" y2="207.97517978556485" stroke="#ea3943" stroke-width="1"/><rect x="259.52558139534887" y="170.9121338912134" width="10.43720930232558" height="17.73250196129706" fill="#ea3943"/><line x1="282.1395348837209" y1="159.0560669456067" x2="282.1395348837209" y2="192.51074463912136" stroke="#16c784" stroke-width="1"/><rect x="276.92093023255813" y="164.3139497254184" width="10.43720930232558" height="27.21743102771967" fill="#16c784"/><line x1="299.5348837209302" y1="119.46708780073223" x2="299.5348837209302" y2="190.6034894743724" stroke="#16c784" stroke-width="1"/><rect x="294.31627906976746" y="125.44671973064854" width="10.43720930232558" height="28.970016671025093" fill="#16c784"/><line x1="316.9302325581395" y1="129.77671123169455" x2="316.9302325581395" y2="173.43794129184099" stroke="#ea3943" stroke-width="1"/><rect x="311.71162790697673" y="141.1688954628661" width="10.43720930232558" height="24.588426712866124" fill="#ea3943"/><line x1="334.3255813953488" y1="150.96303772228035" x2="334.3255813953488" y2="183.33528046548116" stroke="#ea3943" stroke-width="1"/><rect x="329.10697674418606" y="157.5612218880753" width="10.43720930232558" height="3.0928870292887325" fill="#ea3943"/><line x1="351.72093023255815" y1="152.92189134414227" x2="351.72093023255815" y2="192.56234309623431" stroke="#ea3943" stroke-width="1"/><rect x="346.5023255813954" y="162.1489539748954" width="10.43720930232558" height="23.66053543410044" fill="#ea3943"/><line x1="369.1162790697674" y1="167.40683675470711" x2="369.1162790697674" y2="204.36681158472805" stroke="#16c784" stroke-width="1"/><rect x="363.89767441860465" y="197.30474470449792" width="10.43720930232558" height="7.062066880230134" fill="#16c784"/><line x1="386.51162790697674" y1="164.77795828974897" x2="386.51162790697674" y2="208.95466952144352" stroke="#ea3943" stroke-width="1"/><rect x="381.293023255814" y="171.53068612709205" width="10.43720930232558" height="19.175874411610863" fill="#ea3943"/><line x1="403.906976744186" y1="159.0560669456067" x2="403.906976744186" y2="183.79916317991632" stroke="#ea3943" stroke-width="1"/><rect x="398.68837209302325" y="170.9121338912134" width="10.43720930232558" height="9.020920502092054" fill="#ea3943"/><line x1="421.30232558139534" y1="151.47851889382846" x2="421.30232558139534" y2="187.25286185930963" stroke="#ea3943" stroke-width="1"/><rect x="416.0837209302326" y="165.03569887552302" width="10.43720930232558" height="14.330275889121339" fill="#ea3943"/><line x1="438.6976744186046" y1="163.43765690376569" x2="438.6976744186046" y2="184.00530530857742" stroke="#ea3943" stroke-width="1"/><rect x="433.47906976744184" y="171.94309623430962" width="10.43720930232558" height="3.1444854864016634" fill="#ea3943"/><line x1="456.09302325581393" y1="129.15815899581588" x2="456.09302325581393" y2="182.25271966527197" stroke="#16c784" stroke-width="1"/><rect x="450.87441860465117" y="143.3854896705021" width="10.43720930232558" height="31.65049359309623" fill="#16c784"/><line x1="473.48837209302326" y1="123.53946456589958" x2="473.48837209302326" y2="145.60195802824268" stroke="#16c784" stroke-width="1"/><rect x="468.2697674418605" y="130.49846038179916" width="10.43720930232558" height="11.031246731171535" fill="#16c784"/><line x1="490.8837209302325" y1="116.7866108786611" x2="490.8837209302325" y2="149.7774058577406" stroke="#16c784" stroke-width="1"/><rect x="485.66511627906976" y="119.57015886506275" width="10.43720930232558" height="10.103481302301276" fill="#16c784"/><line x1="508.27906976744185" y1="103.02328876830543" x2="508.27906976744185" y2="179.41757322175732" stroke="#ea3943" stroke-width="1"/><rect x="503.0604651162791" y="113.17824267782427" width="10.43720930232558" height="56.23904615585775" fill="#ea3943"/><line x1="525.6744186046511" y1="110.18842671286609" x2="525.6744186046511" y2="165.2418410041841" stroke="#16c784" stroke-width="1"/><rect x="520.4558139534884" y="114.36387454236402" width="10.43720930232558" height="41.960117024058576" fill="#16c784"/><line x1="543.0697674418604" y1="96.16736401673637" x2="543.0697674418604" y2="136.01408374738494" stroke="#ea3943" stroke-width="1"/><rect x="537.8511627906977" y="105.96150627615063" width="10.43720930232558" height="24.743096234309604" fill="#ea3943"/><line x1="560.4651162790697" y1="130.70460251046023" x2="560.4651162790697" y2="130.70460251046023" stroke="#16c784" stroke-width="1"/><rect x="555.2465116279069" y="130.70460251046023" width="10.43720930232558" height="1" fill="#16c784"/><line x1="577.860465116279" y1="139.98326359832635" x2="577.860465116279" y2="173.489539748954" stroke="#ea3943" stroke-width="1"/><rect x="572.6418604651162" y="139.98326359832635" width="10.43720930232558" height="29.640167364016747" fill="#ea3943"/><line x1="595.2558139534883" y1="122.14756472280334" x2="595.2558139534883" y2="166.27280334728033" stroke="#16c784" stroke-width="1"/><rect x="590.0372093023256" y="131.7355648535565" width="10.43720930232558" height="28.86694560669457" fill="#16c784"/><line x1="612.6511627906976" y1="73.0737823614017" x2="612.6511627906976" y2="143.69470286349375" stroke="#16c784" stroke-width="1"/><rect x="607.4325581395349" y="76.2697404550209" width="10.43720930232558" height="52.88841854079499" fill="#16c784"/><line x1="630.046511627907" y1="31.93835970188286" x2="630.046511627907" y2="74.5171548117155" stroke="#16c784" stroke-width="1"/><rect x="624.8279069767442" y="58.79497907949792" width="10.43720930232558" height="11.134443645397482" fill="#16c784"/><line x1="647.4418604651163" y1="34.825104602510464" x2="647.4418604651163" y2="95.90962343096237" stroke="#16c784" stroke-width="1"/><rect x="642.2232558139535" y="40.95928020397491" width="10.43720930232558" height="10.361221888075306" fill="#16c784"/><line x1="664.8372093023255" y1="24" x2="664.8372093023255" y2="53.5370962996862" stroke="#ea3943" stroke-width="1"/><rect x="659.6186046511627" y="31.73221757322176" width="10.43720930232558" height="12.062209074267741" fill="#ea3943"/><line x1="682.2325581395348" y1="39.36136408211297" x2="682.2325581395348" y2="100.54895397489537" stroke="#ea3943" stroke-width="1"/><rect x="677.0139534883721" y="42.093439461297066" width="10.43720930232558" height="52.93989114801258" fill="#ea3943"/><line x1="699.6279069767442" y1="74.56875326882846" x2="699.6279069767442" y2="135.8594142259414" stroke="#ea3943" stroke-width="1"/><rect x="694.4093023255814" y="96.16736401673637" width="10.43720930232558" height="29.949506406903794" fill="#ea3943"/><line x1="717.0232558139535" y1="96.16736401673637" x2="717.0232558139535" y2="136.47796646182007" stroke="#16c784" stroke-width="1"/><rect x="711.8046511627907" y="107.19861074790796" width="10.43720930232558" height="12.165405988493717" fill="#16c784"/><line x1="734.4186046511627" y1="55.959832635983275" x2="734.4186046511627" y2="98.74476987447699" stroke="#16c784" stroke-width="1"/><rect x="729.1999999999999" y="69.20767357479076" width="10.43720930232558" height="26.95969044194561" fill="#16c784"/><line x1="751.813953488372" y1="49.77405857740587" x2="751.813953488372" y2="90.9094812369247" stroke="#16c784" stroke-width="1"/><rect x="746.5953488372093" y="58.79497907949792" width="10.43720930232558" height="25.87712964173639" fill="#16c784"/><line x1="769.2093023255813" y1="37.04169881014644" x2="769.2093023255813" y2="75.54811715481173" stroke="#16c784" stroke-width="1"/><rect x="763.9906976744186" y="52.91854406380753" width="10.43720930232558" height="9.79414225941423" fill="#16c784"/><line x1="786.6046511627907" y1="47.24825117677824" x2="786.6046511627907" y2="76.93989114801255" stroke="#ea3943" stroke-width="1"/><rect x="781.3860465116279" y="49.77405857740587" width="10.43720930232558" height="22.887313676778206" fill="#ea3943"/><line x1="804" y1="52.351464435146454" x2="804" y2="78.07392455543933" stroke="#ea3943" stroke-width="1"/><rect x="798.7813953488372" y="63.89819233786608" width="10.43720930232558" height="8.350895658995853" fill="#ea3943"/><text x="56" y="16" fill="#cdd6e8" font-size="13">Candlestick · last 44 sessions</text></svg>