<svg xmlns="http://www.w3.org/2000/svg" width="820" height="360" viewBox="0 0 820 360"><rect x="0" y="0" width="820" height="360" fill="#0b0f1a"/><line x1="56" y1="24" x2="804" y2="24" stroke="#1c2434"/><text x="50" y="28" fill="#7f8aa3" font-size="11" text-anchor="end">9009</text><line x1="56" y1="101" x2="804" y2="101" stroke="#1c2434"/><text x="50" y="105" fill="#7f8aa3" font-size="11" text-anchor="end">8710.38</text><line x1="56" y1="178" x2="804" y2="178" stroke="#1c2434"/><text x="50" y="182" fill="#7f8aa3" font-size="11" text-anchor="end">8411.75</text><line x1="56" y1="255" x2="804" y2="255" stroke="#1c2434"/><text x="50" y="259" fill="#7f8aa3" font-size="11" text-anchor="end">8113.13</text><line x1="56" y1="332" x2="804" y2="332" stroke="#1c2434"/><text x="50" y="336" fill="#7f8aa3" font-size="11" text-anchor="end">7814.5</text><line x1="56" y1="258.64210966931773" x2="56" y2="282.6220175805777" stroke="#ea3943" stroke-width="1"/><rect x="50.78139534883721" y="268.05357890330686" width="10.43720930232558" height="10.829635830891561" fill="#ea3943"/><line x1="73.3953488372093" y1="260.06027626622017" x2="73.3953488372093" y2="288.5525324403516" stroke="#ea3943" stroke-width="1"/><rect x="68.1767441860465" y="276.4336542486396" width="10.43720930232558" height="1.0313938886563392" fill="#ea3943"/><line x1="90.7906976744186" y1="248.0703223105902" x2="90.7906976744186" y2="332" stroke="#16c784" stroke-width="1"/><rect x="85.5720930232558" y="263.92800334868144" width="10.43720930232558" height="39.837588949351186" fill="#16c784"/><line x1="108.18604651162791" y1="184.12390121389703" x2="108.18604651162791" y2="270.88991209711173" stroke="#16c784" stroke-width="1"/><rect x="102.96744186046512" y="204.62285475094183" width="10.43720930232558" height="28.363331938049384" fill="#16c784"/><line x1="125.5813953488372" y1="170.58685642528255" x2="125.5813953488372" y2="218.4177480117204" stroke="#16c784" stroke-width="1"/><rect x="120.36279069767441" y="190.69903725408122" width="10.43720930232558" height="13.923817496860607" fill="#16c784"/><line x1="142.97674418604652" y1="169.94223524487234" x2="142.97674418604652" y2="187.47593135203013" stroke="#ea3943" stroke-width="1"/><rect x="137.75813953488372" y="173.29426538300544" width="10.43720930232558" height="6.704060276266233" fill="#ea3943"/><line x1="160.37209302325581" y1="172.2628714943491" x2="160.37209302325581" y2="225.37965676015068" stroke="#ea3943" stroke-width="1"/><rect x="155.15348837209302" y="179.99832565927167" width="10.43720930232558" height="37.51695269987442" fill="#ea3943"/><line x1="177.7674418604651" y1="205.5253244035161" x2="177.7674418604651" y2="240.33486814566766" stroke="#16c784" stroke-width="1"/><rect x="172.54883720930232" y="213.90539974884888" width="10.43720930232558" height="7.60652992884053" fill="#16c784"/><line x1="195.1627906976744" y1="213.90539974884888" x2="195.1627906976744" y2="213.90539974884888" stroke="#16c784" stroke-width="1"/><rect x="189.94418604651162" y="213.90539974884888" width="10.43720930232558" height="1" fill="#16c784"/><line x1="212.5581395348837" y1="200.3683549602344" x2="212.5581395348837" y2="246.5232314776057" stroke="#16c784" stroke-width="1"/><rect x="207.33953488372092" y="238.65885307660108" width="10.43720930232558" height="1" fill="#16c784"/><line x1="229.953488372093" y1="219.83591460862286" x2="229.953488372093" y2="263.28338216827126" stroke="#ea3943" stroke-width="1"/><rect x="224.7348837209302" y="227.05567182921726" width="10.43720930232558" height="29.13687735454164" fill="#ea3943"/><line x1="247.3488372093023" y1="253.2272917538719" x2="247.3488372093023" y2="331.61322729175384" stroke="#16c784" stroke-width="1"/><rect x="242.1302325581395" y="261.0916701548765" width="10.43720930232558" height="70.52155713687733" fill="#16c784"/><line x1="264.74418604651163" y1="202.30221850146503" x2="264.74418604651163" y2="255.93470071159481" stroke="#16c784" stroke-width="1"/><rect x="259.52558139534887" y="209.26412724989535" width="10.43720930232558" height="46.67057346169946" fill="#16c784"/><line x1="282.1395348837209" y1="206.42779405609042" x2="282.1395348837209" y2="226.15320217664294" stroke="#ea3943" stroke-width="1"/><rect x="276.92093023255813" y="214.55002092925912" width="10.43720930232558" height="5.414817915445781" fill="#ea3943"/><line x1="299.5348837209302" y1="196.24277940560904" x2="299.5348837209302" y2="222.28547509418166" stroke="#16c784" stroke-width="1"/><rect x="294.31627906976746" y="205.65424863959817" width="10.43720930232558" height="10.185014650481378" fill="#16c784"/><line x1="316.9302325581395" y1="157.82335705316032" x2="316.9302325581395" y2="229.76308078694012" stroke="#16c784" stroke-width="1"/><rect x="311.71162790697673" y="191.73043114273756" width="10.43720930232558" height="38.032649644202564" fill="#16c784"/><line x1="334.3255813953488" y1="145.31770615320218" x2="334.3255813953488" y2="189.92549183758896" stroke="#16c784" stroke-width="1"/><rect x="329.10697674418606" y="149.05650899958144" width="10.43720930232558" height="26.816241105064847" fill="#16c784"/><line x1="351.72093023255815" y1="123.27166178317287" x2="351.72093023255815" y2="162.85140226036" stroke="#ea3943" stroke-width="1"/><rect x="346.5023255813954" y="148.28296358308916" width="10.43720930232558" height="9.927166178317265" fill="#ea3943"/><line x1="369.1162790697674" y1="147.25156969443282" x2="369.1162790697674" y2="174.58350774382586" stroke="#16c784" stroke-width="1"/><rect x="363.89767441860465" y="157.04981163666807" width="10.43720930232558" height="3.867727082461272" fill="#16c784"/><line x1="386.51162790697674" y1="140.2896609460025" x2="386.51162790697674" y2="170.7157806613646" stroke="#ea3943" stroke-width="1"/><rect x="381.293023255814" y="146.22017580577648" width="10.43720930232558" height="9.540393470071166" fill="#ea3943"/><line x1="403.906976744186" y1="146.47802427794056" x2="403.906976744186" y2="183.35035579740477" stroke="#ea3943" stroke-width="1"/><rect x="398.68837209302325" y="148.54081205525324" width="10.43720930232558" height="14.826287149434904" fill="#ea3943"/><line x1="421.30232558139534" y1="150.86144830473" x2="421.30232558139534" y2="185.67099204688154" stroke="#ea3943" stroke-width="1"/><rect x="416.0837209302326" y="163.36709920468815" width="10.43720930232558" height="20.11218082879867" fill="#ea3943"/><line x1="438.6976744186046" y1="164.39849309334448" x2="438.6976744186046" y2="184.89744663038928" stroke="#16c784" stroke-width="1"/><rect x="433.47906976744184" y="173.93888656341565" width="10.43720930232558" height="9.540393470071166" fill="#16c784"/><line x1="456.09302325581393" y1="164.39849309334448" x2="456.09302325581393" y2="184.3817496860611" stroke="#ea3943" stroke-width="1"/><rect x="450.87441860465117" y="171.1025533696107" width="10.43720930232558" height="6.961908748430346" fill="#ea3943"/><line x1="473.48837209302326" y1="149.83005441607366" x2="473.48837209302326" y2="181.029719547928" stroke="#16c784" stroke-width="1"/><rect x="468.2697674418605" y="157.95228128924236" width="10.43720930232558" height="22.046044370029307" fill="#16c784"/><line x1="490.8837209302325" y1="145.44663038928422" x2="490.8837209302325" y2="172.13394725826706" stroke="#ea3943" stroke-width="1"/><rect x="485.66511627906976" y="145.44663038928422" width="10.43720930232558" height="17.791544579321908" fill="#ea3943"/><line x1="508.27906976744185" y1="140.03181247383841" x2="508.27906976744185" y2="166.33235663457512" stroke="#ea3943" stroke-width="1"/><rect x="503.0604651162791" y="155.76056927584764" width="10.43720930232558" height="2.7074089577228904" fill="#ea3943"/><line x1="525.6744186046511" y1="133.19882796149014" x2="525.6744186046511" y2="167.87944746755966" stroke="#16c784" stroke-width="1"/><rect x="520.4558139534884" y="136.29300962745918" width="10.43720930232558" height="18.95186270406026" fill="#16c784"/><line x1="543.0697674418604" y1="105.35119296776895" x2="543.0697674418604" y2="146.09125156969444" stroke="#16c784" stroke-width="1"/><rect x="537.8511627906977" y="131.5228128924236" width="10.43720930232558" height="4.254499790707428" fill="#16c784"/><line x1="560.4651162790697" y1="131.5228128924236" x2="560.4651162790697" y2="131.5228128924236" stroke="#16c784" stroke-width="1"/><rect x="555.2465116279069" y="131.5228128924236" width="10.43720930232558" height="1" fill="#16c784"/><line x1="577.860465116279" y1="94.90832984512346" x2="577.860465116279" y2="128.17078275429049" stroke="#ea3943" stroke-width="1"/><rect x="572.6418604651162" y="103.6751778987024" width="10.43720930232558" height="11.603181247383816" fill="#ea3943"/><line x1="595.2558139534883" y1="85.62578484721641" x2="595.2558139534883" y2="116.82544997907075" stroke="#16c784" stroke-width="1"/><rect x="590.0372093023256" y="108.31645039765593" width="10.43720930232558" height="7.090832984512332" fill="#16c784"/><line x1="612.6511627906976" y1="93.74801172038511" x2="612.6511627906976" y2="126.49476768522393" stroke="#ea3943" stroke-width="1"/><rect x="607.4325581395349" y="108.57429886982001" width="10.43720930232558" height="16.115529510255357" fill="#ea3943"/><line x1="630.046511627907" y1="90.78275429049813" x2="630.046511627907" y2="126.49476768522393" stroke="#16c784" stroke-width="1"/><rect x="624.8279069767442" y="104.70657178735874" width="10.43720930232558" height="19.5964838844705" fill="#16c784"/><line x1="647.4418604651163" y1="46.81958978652159" x2="647.4418604651163" y2="99.16282963583089" stroke="#16c784" stroke-width="1"/><rect x="642.2232558139535" y="53.78149853495188" width="10.43720930232558" height="38.80619506069482" fill="#16c784"/><line x1="664.8372093023255" y1="45.65927166178318" x2="664.8372093023255" y2="71.83089158643787" stroke="#ea3943" stroke-width="1"/><rect x="659.6186046511627" y="53.13687735454164" width="10.43720930232558" height="1.9338635412306644" fill="#ea3943"/><line x1="682.2325581395348" y1="39.21305985768106" x2="682.2325581395348" y2="75.0539974884889" stroke="#ea3943" stroke-width="1"/><rect x="677.0139534883721" y="55.19966513185432" width="10.43720930232558" height="13.150272080368381" fill="#ea3943"/><line x1="699.6279069767442" y1="55.19966513185432" x2="699.6279069767442" y2="103.6751778987024" stroke="#ea3943" stroke-width="1"/><rect x="694.4093023255814" y="77.89033068229386" width="10.43720930232558" height="11.989953955629943" fill="#ea3943"/><line x1="717.0232558139535" y1="46.81958978652159" x2="717.0232558139535" y2="89.10673922143158" stroke="#16c784" stroke-width="1"/><rect x="711.8046511627907" y="66.15822519882795" width="10.43720930232558" height="22.948514022603632" fill="#16c784"/><line x1="734.4186046511627" y1="55.58643784010047" x2="734.4186046511627" y2="84.72331519464211" stroke="#ea3943" stroke-width="1"/><rect x="729.1999999999999" y="65.25575554625368" width="10.43720930232558" height="2.0627877773126784" fill="#ea3943"/><line x1="751.813953488372" y1="43.854332356634586" x2="751.813953488372" y2="87.04395144411887" stroke="#ea3943" stroke-width="1"/><rect x="746.5953488372093" y="57.52030138133108" width="10.43720930232558" height="24.88237756383424" fill="#ea3943"/><line x1="769.2093023255813" y1="47.077438258685675" x2="769.2093023255813" y2="93.61908748430304" stroke="#16c784" stroke-width="1"/><rect x="763.9906976744186" y="51.97655922980323" width="10.43720930232558" height="38.806195060694904" fill="#16c784"/><line x1="786.6046511627907" y1="24" x2="786.6046511627907" y2="50.816241105064876" stroke="#ea3943" stroke-width="1"/><rect x="781.3860465116279" y="39.59983256592716" width="10.43720930232558" height="3.738802846379258" fill="#ea3943"/><line x1="804" y1="40.6312264545835" x2="804" y2="64.61113436584344" stroke="#ea3943" stroke-width="1"/><rect x="798.7813953488372" y="44.241105064880685" width="10.43720930232558" height="10.958560066973632" fill="#ea3943"/><text x="56" y="16" fill="#cdd6e8" font-size="13">Candlestick · last 44 sessions</text></svg>