<svg xmlns="http://www.w3.org/2000/svg" width="820" height="360" viewBox="0 0 820 360"><rect x="0" y="0" width="820" height="360" fill="#0b0f1a"/><line x1="56" y1="24" x2="804" y2="24" stroke="#1c2434"/><text x="50" y="28" fill="#7f8aa3" font-size="11" text-anchor="end">167.55</text><line x1="56" y1="101" x2="804" y2="101" stroke="#1c2434"/><text x="50" y="105" fill="#7f8aa3" font-size="11" text-anchor="end">160.17</text><line x1="56" y1="178" x2="804" y2="178" stroke="#1c2434"/><text x="50" y="182" fill="#7f8aa3" font-size="11" text-anchor="end">152.79</text><line x1="56" y1="255" x2="804" y2="255" stroke="#1c2434"/><text x="50" y="259" fill="#7f8aa3" font-size="11" text-anchor="end">145.41</text><line x1="56" y1="332" x2="804" y2="332" stroke="#1c2434"/><text x="50" y="336" fill="#7f8aa3" font-size="11" text-anchor="end">138.03</text><line x1="56" y1="186.24255578477047" x2="56" y2="220.04748625442787" stroke="#ea3943" stroke-width="1"/><rect x="50.78139534883721" y="186.24255578477047" width="10.43720930232558" height="8.972904798505965" fill="#ea3943"/><line x1="73.3953488372093" y1="174.13953829764247" x2="73.3953488372093" y2="217.33464762902128" stroke="#16c784" stroke-width="1"/><rect x="68.1767441860465" y="192.71133859154986" width="10.43720930232558" height="8.033918753162766" fill="#16c784"/><line x1="90.7906976744186" y1="160.1585487198281" x2="90.7906976744186" y2="219.63005298706776" stroke="#16c784" stroke-width="1"/><rect x="85.5720930232558" y="169.44444886678178" width="10.43720930232558" height="37.665312569942586" fill="#16c784"/><line x1="108.18604651162791" y1="118.63285404960035" x2="108.18604651162791" y2="167.98375083931083" stroke="#ea3943" stroke-width="1"/><rect x="102.96744186046512" y="144.50814448086268" width="10.43720930232558" height="15.859120872645462" fill="#ea3943"/><line x1="125.5813953488372" y1="115.92001542419376" x2="125.5813953488372" y2="164.8536381506888" stroke="#16c784" stroke-width="1"/><rect x="120.36279069767441" y="121.44981218562998" width="10.43720930232558" height="33.49193512120965" fill="#16c784"/><line x1="142.97674418604652" y1="42.258804945459644" x2="142.97674418604652" y2="101.73030921269932" stroke="#16c784" stroke-width="1"/><rect x="137.75813953488372" y="60.204614542471575" width="10.43720930232558" height="41.52569467022775" fill="#16c784"/><line x1="160.37209302325581" y1="57.909209184425094" x2="160.37209302325581" y2="105.59085051712918" stroke="#ea3943" stroke-width="1"/><rect x="155.15348837209302" y="58.11792581810511" width="10.43720930232558" height="39.021731882645895" fill="#ea3943"/><line x1="177.7674418604651" y1="59.995897908791505" x2="177.7674418604651" y2="108.51224657207115" stroke="#16c784" stroke-width="1"/><rect x="172.54883720930232" y="65.0041418922446" width="10.43720930232558" height="29.005403119884363" fill="#16c784"/><line x1="195.1627906976744" y1="65.0041418922446" x2="195.1627906976744" y2="65.0041418922446" stroke="#16c784" stroke-width="1"/><rect x="189.94418604651162" y="65.0041418922446" width="10.43720930232558" height="1" fill="#16c784"/><line x1="212.5581395348837" y1="43.30222890971527" x2="212.5581395348837" y2="156.4024453343106" stroke="#ea3943" stroke-width="1"/><rect x="207.33953488372092" y="43.71950297293063" width="10.43720930232558" height="106.63143361781601" fill="#ea3943"/><line x1="229.953488372093" y1="127.81431627764167" x2="229.953488372093" y2="213.16127018028834" stroke="#ea3943" stroke-width="1"/><rect x="224.7348837209302" y="133.761546306438" width="10.43720930232558" height="75.64362048833289" fill="#ea3943"/><line x1="247.3488372093023" y1="205.6490634092534" x2="247.3488372093023" y2="254.06097415362063" stroke="#16c784" stroke-width="1"/><rect x="242.1302325581395" y="217.0216522805735" width="10.43720930232558" height="37.03932187304713" fill="#16c784"/><line x1="264.74418604651163" y1="230.0636558130447" x2="264.74418604651163" y2="288.4918953201735" stroke="#ea3943" stroke-width="1"/><rect x="259.52558139534887" y="236.42815990505645" width="10.43720930232558" height="14.085427496726737" fill="#ea3943"/><line x1="282.1395348837209" y1="236.1151645566087" x2="282.1395348837209" y2="268.66795442833046" stroke="#ea3943" stroke-width="1"/><rect x="276.92093023255813" y="250.51358740178318" width="10.43720930232558" height="14.606980274709827" fill="#ea3943"/><line x1="299.5348837209302" y1="243.31437597919594" x2="299.5348837209302" y2="271.7980671169525" stroke="#ea3943" stroke-width="1"/><rect x="294.31627906976746" y="248.84417274063216" width="10.43720930232558" height="7.407928056267252" fill="#ea3943"/><line x1="316.9302325581395" y1="286.09221124735933" x2="316.9302325581395" y2="308.21139829310414" stroke="#16c784" stroke-width="1"/><rect x="311.71162790697673" y="300.80347023683686" width="10.43720930232558" height="3.338829322302047" fill="#16c784"/><line x1="334.3255813953488" y1="265.7465583733885" x2="334.3255813953488" y2="300.80347023683686" stroke="#16c784" stroke-width="1"/><rect x="329.10697674418606" y="271.7980671169525" width="10.43720930232558" height="21.38891763408168" fill="#16c784"/><line x1="351.72093023255815" y1="256.14766287798705" x2="351.72093023255815" y2="301.01218687051687" stroke="#ea3943" stroke-width="1"/><rect x="346.5023255813954" y="258.2343516023535" width="10.43720930232558" height="37.143759791959496" fill="#ea3943"/><line x1="369.1162790697674" y1="302.05561083477244" x2="369.1162790697674" y2="332" stroke="#ea3943" stroke-width="1"/><rect x="363.89767441860465" y="302.05561083477244" width="10.43720930232558" height="24.205875770111277" fill="#ea3943"/><line x1="386.51162790697674" y1="171.11386352793284" x2="386.51162790697674" y2="283.275093907185" stroke="#16c784" stroke-width="1"/><rect x="381.293023255814" y="181.54746635390978" width="10.43720930232558" height="96.30210950660671" fill="#16c784"/><line x1="403.906976744186" y1="94.42681907534441" x2="403.906976744186" y2="131.46614094839148" stroke="#ea3943" stroke-width="1"/><rect x="398.68837209302325" y="113.20733600293184" width="10.43720930232558" height="13.563715514598954" fill="#ea3943"/><line x1="421.30232558139534" y1="93.48783303000121" x2="421.30232558139534" y2="131.3618622336238" stroke="#ea3943" stroke-width="1"/><rect x="416.0837209302326" y="102.77373317695489" width="10.43720930232558" height="15.650404238965422" fill="#ea3943"/><line x1="438.6976744186046" y1="100.16533247046067" x2="438.6976744186046" y2="122.91051021310093" stroke="#ea3943" stroke-width="1"/><rect x="433.47906976744184" y="103.81715714121046" width="10.43720930232558" height="3.442948832925083" fill="#ea3943"/><line x1="456.09302325581393" y1="107.99053458994337" x2="456.09302325581393" y2="130.9444289662637" stroke="#ea3943" stroke-width="1"/><rect x="450.87441860465117" y="109.97294459954213" width="10.43720930232558" height="8.972904798505965" fill="#ea3943"/><line x1="473.48837209302326" y1="121.76296673822239" x2="473.48837209302326" y2="149.4119505454034" stroke="#ea3943" stroke-width="1"/><rect x="468.2697674418605" y="124.78864150793206" width="10.43720930232558" height="12.83328689879113" fill="#ea3943"/><line x1="490.8837209302325" y1="120.51082614028675" x2="490.8837209302325" y2="149.20323391172337" stroke="#16c784" stroke-width="1"/><rect x="485.66511627906976" y="132.09213164528697" width="10.43720930232558" height="2.6084007064942227" fill="#16c784"/><line x1="508.27906976744185" y1="132.09213164528697" x2="508.27906976744185" y2="203.97964874810233" stroke="#ea3943" stroke-width="1"/><rect x="503.0604651162791" y="133.03111769063017" width="10.43720930232558" height="58.845513570344195" fill="#ea3943"/><line x1="525.6744186046511" y1="148.36852658114785" x2="525.6744186046511" y2="198.76284733511386" stroke="#16c784" stroke-width="1"/><rect x="520.4558139534884" y="155.8807333521828" width="10.43720930232558" height="35.99589790879156" fill="#16c784"/><line x1="543.0697674418604" y1="79.81983880063453" x2="543.0697674418604" y2="139.1870643531065" stroke="#16c784" stroke-width="1"/><rect x="537.8511627906977" y="95.67895967328002" width="10.43720930232558" height="42.568959430338595" fill="#16c784"/><line x1="560.4651162790697" y1="95.67895967328002" x2="560.4651162790697" y2="95.67895967328002" stroke="#16c784" stroke-width="1"/><rect x="555.2465116279069" y="95.67895967328002" width="10.43720930232558" height="1" fill="#16c784"/><line x1="577.860465116279" y1="96.09623373649544" x2="577.860465116279" y2="138.2479191036186" stroke="#ea3943" stroke-width="1"/><rect x="572.6418604651162" y="102.77373317695489" width="10.43720930232558" height="27.544705092413324" fill="#ea3943"/><line x1="595.2558139534883" y1="104.1301524896582" x2="595.2558139534883" y2="147.01226647258923" stroke="#ea3943" stroke-width="1"/><rect x="590.0372093023256" y="112.58134530603635" width="10.43720930232558" height="14.189706211494439" fill="#ea3943"/><line x1="612.6511627906976" y1="42.78051692758743" x2="612.6511627906976" y2="124.78864150793206" stroke="#16c784" stroke-width="1"/><rect x="607.4325581395349" y="78.56769820269892" width="10.43720930232558" height="46.220943305233135" fill="#16c784"/><line x1="630.046511627907" y1="44.762926937186194" x2="630.046511627907" y2="75.43774471822155" stroke="#16c784" stroke-width="1"/><rect x="624.8279069767442" y="53.422836387244445" width="10.43720930232558" height="7.616485485802684" fill="#16c784"/><line x1="647.4418604651163" y1="24" x2="647.4418604651163" y2="64.06499664275674" stroke="#ea3943" stroke-width="1"/><rect x="642.2232558139535" y="40.17211622109323" width="10.43720930232558" height="17.215380981204078" fill="#ea3943"/><line x1="664.8372093023255" y1="26.086688724366468" x2="664.8372093023255" y2="75.12474936977384" stroke="#16c784" stroke-width="1"/><rect x="659.6186046511627" y="38.92013482730226" width="10.43720930232558" height="15.858961668500797" fill="#16c784"/><line x1="682.2325581395348" y1="29.738513395116286" x2="682.2325581395348" y2="65.31713724069238" stroke="#ea3943" stroke-width="1"/><rect x="677.0139534883721" y="32.972904798505965" width="10.43720930232558" height="26.397002413390112" fill="#ea3943"/><line x1="699.6279069767442" y1="62.60429861528576" x2="699.6279069767442" y2="154.83746859207196" stroke="#ea3943" stroke-width="1"/><rect x="694.4093023255814" y="83.57594218615202" width="10.43720930232558" height="58.636796936664155" fill="#ea3943"/><line x1="717.0232558139535" y1="114.7723127451705" x2="717.0232558139535" y2="154.83746859207196" stroke="#ea3943" stroke-width="1"/><rect x="711.8046511627907" y="133.03111769063017" width="10.43720930232558" height="19.928219606610696" fill="#ea3943"/><line x1="734.4186046511627" y1="124.68436279316435" x2="734.4186046511627" y2="147.6382571694847" stroke="#ea3943" stroke-width="1"/><rect x="729.1999999999999" y="126.66661359861843" width="10.43720930232558" height="2.2954053580465086" fill="#ea3943"/><line x1="751.813953488372" y1="98.9133510766697" x2="751.813953488372" y2="172.6788402701715" stroke="#16c784" stroke-width="1"/><rect x="746.5953488372093" y="110.91193064488533" width="10.43720930232558" height="51.33330679930921" fill="#16c784"/><line x1="769.2093023255813" y1="135.1179656191413" x2="769.2093023255813" y2="166.94032687505523" stroke="#ea3943" stroke-width="1"/><rect x="763.9906976744186" y="139.2913430678742" width="10.43720930232558" height="13.667994229366656" fill="#ea3943"/><line x1="786.6046511627907" y1="124.9973581416121" x2="786.6046511627907" y2="147.1165451873569" stroke="#16c784" stroke-width="1"/><rect x="781.3860465116279" y="139.08262643419417" width="10.43720930232558" height="5.529796761436188" fill="#16c784"/><line x1="804" y1="117.58943008534482" x2="804" y2="155.98517127109523" stroke="#ea3943" stroke-width="1"/><rect x="798.7813953488372" y="137.30893305827541" width="10.43720930232558" height="18.571800293907387" fill="#ea3943"/><text x="56" y="16" fill="#cdd6e8" font-size="13">Candlestick · last 44 sessions</text></svg>