<svg xmlns="http://www.w3.org/2000/svg" width="680" height="300" viewBox="0 0 680 300"><rect x="0" y="0" width="680" height="300" fill="#0b0f1a"/><line x1="56" y1="24" x2="664" y2="24" stroke="#1c2434"/><text x="50" y="28" fill="#7f8aa3" font-size="11" text-anchor="end">1966</text><line x1="56" y1="86" x2="664" y2="86" stroke="#1c2434"/><text x="50" y="90" fill="#7f8aa3" font-size="11" text-anchor="end">1916.65</text><line x1="56" y1="148" x2="664" y2="148" stroke="#1c2434"/><text x="50" y="152" fill="#7f8aa3" font-size="11" text-anchor="end">1867.3</text><line x1="56" y1="210" x2="664" y2="210" stroke="#1c2434"/><text x="50" y="214" fill="#7f8aa3" font-size="11" text-anchor="end">1817.95</text><line x1="56" y1="272" x2="664" y2="272" stroke="#1c2434"/><text x="50" y="276" fill="#7f8aa3" font-size="11" text-anchor="end">1768.6</text><line x1="56" y1="54.15197195475113" x2="56" y2="97.11847064592749" stroke="#ea3943" stroke-width="1"/><rect x="51.758139534883725" y="71.23805872360478" width="8.483720930232558" height="18.719379927413314" fill="#ea3943"/><line x1="70.13953488372093" y1="89.32927256862743" x2="70.13953488372093" y2="109.80754819890657" stroke="#ea3943" stroke-width="1"/><rect x="65.89767441860465" y="89.32927256862743" width="8.483720930232558" height="11.432592027337819" fill="#ea3943"/><line x1="84.27906976744185" y1="87.69597941006776" x2="84.27906976744185" y2="131.03943909502252" stroke="#ea3943" stroke-width="1"/><rect x="80.03720930232558" y="93.09826906297133" width="8.483720930232558" height="32.28767529053533" fill="#ea3943"/><line x1="98.4186046511628" y1="111.189482907994" x2="98.4186046511628" y2="145.48725899000743" stroke="#ea3943" stroke-width="1"/><rect x="94.17674418604652" y="117.8479513648189" width="8.483720930232558" height="25.001040751319806" fill="#ea3943"/><line x1="112.55813953488372" y1="116.34041411142533" x2="112.55813953488372" y2="153.27661042816743" stroke="#ea3943" stroke-width="1"/><rect x="108.31627906976745" y="116.34041411142533" width="8.483720930232558" height="22.237017972284974" fill="#ea3943"/><line x1="126.69767441860465" y1="139.5825591598793" x2="126.69767441860465" y2="176.2673970271492" stroke="#ea3943" stroke-width="1"/><rect x="122.45581395348837" y="139.5825591598793" width="8.483720930232558" height="34.04657099340116" fill="#ea3943"/><line x1="140.8372093023256" y1="145.36165644570127" x2="140.8372093023256" y2="181.7952892243589" stroke="#16c784" stroke-width="1"/><rect x="136.59534883720931" y="166.97066169645558" width="8.483720930232558" height="14.824627527903317" fill="#16c784"/><line x1="154.97674418604652" y1="166.97066169645558" x2="154.97674418604652" y2="166.97066169645558" stroke="#16c784" stroke-width="1"/><rect x="150.73488372093024" y="166.97066169645558" width="8.483720930232558" height="1" fill="#16c784"/><line x1="169.11627906976744" y1="157.17120946681746" x2="169.11627906976744" y2="209.3089943052413" stroke="#ea3943" stroke-width="1"/><rect x="164.87441860465117" y="157.17120946681746" width="8.483720930232558" height="38.94629710822022" fill="#ea3943"/><line x1="183.25581395348837" y1="179.78518843288083" x2="183.25581395348837" y2="227.65141323887624" stroke="#ea3943" stroke-width="1"/><rect x="179.0139534883721" y="194.86117441025638" width="8.483720930232558" height="24.372874668929143" fill="#ea3943"/><line x1="197.3953488372093" y1="201.14283523416287" x2="197.3953488372093" y2="260.9442156055806" stroke="#16c784" stroke-width="1"/><rect x="193.15348837209302" y="214.71128395814486" width="8.483720930232558" height="36.68483786726989" fill="#16c784"/><line x1="211.53488372093022" y1="187.95134750395925" x2="211.53488372093022" y2="226.39508107409495" stroke="#ea3943" stroke-width="1"/><rect x="207.29302325581395" y="194.98677695456252" width="8.483720930232558" height="7.286787900075495" fill="#ea3943"/><line x1="225.67441860465118" y1="195.11237949886865" x2="225.67441860465118" y2="234.56124014517337" stroke="#16c784" stroke-width="1"/><rect x="221.4325581395349" y="208.80643076715677" width="8.483720930232558" height="4.89972611481906" fill="#16c784"/><line x1="239.8139534883721" y1="197.62504382843125" x2="239.8139534883721" y2="244.23508983050533" stroke="#ea3943" stroke-width="1"/><rect x="235.57209302325583" y="201.26843777846898" width="8.483720930232558" height="33.54416081617663" fill="#ea3943"/><line x1="253.95348837209303" y1="207.2988935137632" x2="253.95348837209303" y2="268.9847721323529" stroke="#16c784" stroke-width="1"/><rect x="249.71162790697676" y="215.84186021776006" width="8.483720930232558" height="47.99198071116152" fill="#16c784"/><line x1="268.09302325581393" y1="186.0668492567873" x2="268.09302325581393" y2="246.1195880776773" stroke="#ea3943" stroke-width="1"/><rect x="263.85116279069763" y="186.0668492567873" width="8.483720930232558" height="47.74062226168928" fill="#ea3943"/><line x1="282.2325581395349" y1="222.8774430292233" x2="282.2325581395349" y2="268.9847721323529" stroke="#ea3943" stroke-width="1"/><rect x="277.9906976744186" y="233.80747151847658" width="8.483720930232558" height="29.900766866138838" fill="#ea3943"/><line x1="296.37209302325584" y1="237.57646801282047" x2="296.37209302325584" y2="272" stroke="#16c784" stroke-width="1"/><rect x="292.13023255813954" y="254.41134969306185" width="8.483720930232558" height="12.060758109728425" fill="#16c784"/><line x1="310.51162790697674" y1="201.14283523416287" x2="310.51162790697674" y2="252.65245399019602" stroke="#16c784" stroke-width="1"/><rect x="306.26976744186044" y="204.2836656461161" width="8.483720930232558" height="48.36878834407992" fill="#16c784"/><line x1="324.6511627906977" y1="160.94020596116138" x2="324.6511627906977" y2="212.44982471719453" stroke="#16c784" stroke-width="1"/><rect x="320.4093023255814" y="180.79031550904983" width="8.483720930232558" height="1" fill="#16c784"/><line x1="338.7906976744186" y1="158.17633654298652" x2="338.7906976744186" y2="185.81564416817503" stroke="#16c784" stroke-width="1"/><rect x="334.5488372093023" y="165.96553462028655" width="8.483720930232558" height="16.081113053544584" fill="#16c784"/><line x1="352.93023255813955" y1="134.55723050075412" x2="352.93023255813955" y2="180.41335451527146" stroke="#16c784" stroke-width="1"/><rect x="348.68837209302325" y="137.44685582409508" width="8.483720930232558" height="28.518678796191466" fill="#16c784"/><line x1="367.06976744186045" y1="133.5521034245851" x2="367.06976744186045" y2="154.90975022586716" stroke="#ea3943" stroke-width="1"/><rect x="362.82790697674415" y="133.5521034245851" width="8.483720930232558" height="5.0253286591251936" fill="#ea3943"/><line x1="381.2093023255814" y1="84.9321099918929" x2="381.2093023255814" y2="148.12567922473613" stroke="#16c784" stroke-width="1"/><rect x="376.9674418604651" y="93.34947415158362" width="8.483720930232558" height="45.85612401451732" fill="#16c784"/><line x1="395.34883720930236" y1="76.13778483842384" x2="395.34883720930236" y2="105.66159071078431" stroke="#16c784" stroke-width="1"/><rect x="391.10697674418606" y="86.06283961236807" width="8.483720930232558" height="1.0049737153090632" fill="#16c784"/><line x1="409.48837209302326" y1="72.11758325546765" x2="409.48837209302326" y2="111.06388036368787" stroke="#ea3943" stroke-width="1"/><rect x="405.24651162790695" y="97.36982909539972" width="8.483720930232558" height="7.53799298868779" fill="#ea3943"/><line x1="423.6279069767442" y1="114.33031331994724" x2="423.6279069767442" y2="140.96449386896674" stroke="#ea3943" stroke-width="1"/><rect x="419.3860465116279" y="117.973707269985" width="8.483720930232558" height="17.462894401772047" fill="#ea3943"/><line x1="437.7674418604651" y1="120.73757668815986" x2="437.7674418604651" y2="172.24719544419304" stroke="#ea3943" stroke-width="1"/><rect x="433.5255813953488" y="125.76290534728506" width="8.483720930232558" height="43.09225459634246" fill="#ea3943"/><line x1="451.90697674418607" y1="168.8551599436275" x2="451.90697674418607" y2="168.8551599436275" stroke="#16c784" stroke-width="1"/><rect x="447.66511627906976" y="168.8551599436275" width="8.483720930232558" height="1" fill="#16c784"/><line x1="466.04651162790697" y1="169.9857362032427" x2="466.04651162790697" y2="190.96657537160635" stroke="#16c784" stroke-width="1"/><rect x="461.80465116279066" y="180.915918053356" width="8.483720930232558" height="5.025328659125165" fill="#16c784"/><line x1="480.1860465116279" y1="136.31612620361994" x2="480.1860465116279" y2="178.27765117948724" stroke="#ea3943" stroke-width="1"/><rect x="475.9441860465116" y="165.96553462028655" width="8.483720930232558" height="1.2563321647812984" fill="#ea3943"/><line x1="494.3255813953488" y1="123.25024101772243" x2="494.3255813953488" y2="175.26242331184014" stroke="#16c784" stroke-width="1"/><rect x="490.0837209302325" y="143.3515556542232" width="8.483720930232558" height="31.910867657616933" fill="#16c784"/><line x1="508.4651162790698" y1="127.27044260067862" x2="508.4651162790698" y2="169.48332602601818" stroke="#16c784" stroke-width="1"/><rect x="504.2232558139535" y="138.326226995098" width="8.483720930232558" height="17.839855395550444" fill="#16c784"/><line x1="522.6046511627908" y1="90.58560473340873" x2="522.6046511627908" y2="125.76290534728506" stroke="#16c784" stroke-width="1"/><rect x="518.3627906976745" y="93.8520376896681" width="8.483720930232558" height="25.62920683371047" fill="#16c784"/><line x1="536.7441860465117" y1="65.83592243156116" x2="536.7441860465117" y2="87.31917177714934" stroke="#16c784" stroke-width="1"/><rect x="532.5023255813954" y="74.63024758503025" width="8.483720930232558" height="11.181233577865584" fill="#16c784"/><line x1="550.8837209302326" y1="35.93515556542232" x2="550.8837209302326" y2="85.56027607428356" stroke="#16c784" stroke-width="1"/><rect x="546.6418604651163" y="74.50449167986415" width="8.483720930232558" height="2.8896253233409652" fill="#16c784"/><line x1="565.0232558139535" y1="76.51474583220218" x2="565.0232558139535" y2="138.20062445079188" stroke="#ea3943" stroke-width="1"/><rect x="560.7813953488372" y="93.09826906297133" width="8.483720930232558" height="28.7700372456637" fill="#ea3943"/><line x1="579.1627906976744" y1="24" x2="579.1627906976744" y2="108.42546012895917" stroke="#16c784" stroke-width="1"/><rect x="574.9209302325581" y="67.84602322303925" width="8.483720930232558" height="36.55923532296373" fill="#16c784"/><line x1="593.3023255813954" y1="69.22795793212669" x2="593.3023255813954" y2="99.37992988687782" stroke="#ea3943" stroke-width="1"/><rect x="589.0604651162791" y="69.22795793212669" width="8.483720930232558" height="12.060758109728454" fill="#ea3943"/><line x1="607.4418604651163" y1="85.56027607428356" x2="607.4418604651163" y2="111.06388036368787" stroke="#ea3943" stroke-width="1"/><rect x="603.2" y="89.32927256862743" width="8.483720930232558" height="15.327191065987847" fill="#ea3943"/><line x1="621.5813953488372" y1="55.2827015752263" x2="621.5813953488372" y2="125.76290534728506" stroke="#16c784" stroke-width="1"/><rect x="617.339534883721" y="61.06179886104826" width="8.483720930232558" height="64.7011064862368" fill="#16c784"/><line x1="635.7209302325582" y1="39.45294697115395" x2="635.7209302325582" y2="86.06283961236807" stroke="#ea3943" stroke-width="1"/><rect x="631.479069767442" y="39.45294697115395" width="8.483720930232558" height="44.47403594456992" fill="#ea3943"/><line x1="649.8604651162791" y1="61.68996494343892" x2="649.8604651162791" y2="85.56027607428356" stroke="#ea3943" stroke-width="1"/><rect x="645.6186046511629" y="71.74062226168928" width="8.483720930232558" height="7.789198077300057" fill="#ea3943"/><line x1="664" y1="75.25841366742091" x2="664" y2="103.52588737500008" stroke="#ea3943" stroke-width="1"/><rect x="659.7581395348838" y="84.30394390950224" width="8.483720930232558" height="11.558194571643952" fill="#ea3943"/><text x="56" y="16" fill="#cdd6e8" font-size="13">Candlestick · last 44 sessions</text></svg>