<svg xmlns="http://www.w3.org/2000/svg" width="820" height="360" viewBox="0 0 820 360"><rect x="0" y="0" width="820" height="360" fill="#0b0f1a"/><line x1="56" y1="24" x2="804" y2="24" stroke="#1c2434"/><text x="50" y="28" fill="#7f8aa3" font-size="11" text-anchor="end">1569</text><line x1="56" y1="101" x2="804" y2="101" stroke="#1c2434"/><text x="50" y="105" fill="#7f8aa3" font-size="11" text-anchor="end">1495.4</text><line x1="56" y1="178" x2="804" y2="178" stroke="#1c2434"/><text x="50" y="182" fill="#7f8aa3" font-size="11" text-anchor="end">1421.8</text><line x1="56" y1="255" x2="804" y2="255" stroke="#1c2434"/><text x="50" y="259" fill="#7f8aa3" font-size="11" text-anchor="end">1348.2</text><line x1="56" y1="332" x2="804" y2="332" stroke="#1c2434"/><text x="50" y="336" fill="#7f8aa3" font-size="11" text-anchor="end">1274.6</text><line x1="56" y1="251.23362572432595" x2="56" y2="332" stroke="#16c784" stroke-width="1"/><rect x="50.65714285714286" y="255.10462594201246" width="10.685714285714285" height="69.04890731737655" fill="#16c784"/><line x1="73.80952380952381" y1="151.63585898060515" x2="73.80952380952381" y2="242.3409634183002" stroke="#16c784" stroke-width="1"/><rect x="68.46666666666667" y="188.25270377012305" width="10.685714285714285" height="49.171191574495424" fill="#16c784"/><line x1="91.61904761904762" y1="154.35594190879974" x2="91.61904761904762" y2="207.50272771563922" stroke="#ea3943" stroke-width="1"/><rect x="86.27619047619048" y="189.29889933553784" width="10.685714285714285" height="9.101850335340885" fill="#ea3943"/><line x1="109.42857142857143" y1="176.2214547678529" x2="109.42857142857143" y2="236.27310576454613" stroke="#ea3943" stroke-width="1"/><rect x="104.08571428571429" y="195.6806667426842" width="10.685714285714285" height="29.188881816956723" fill="#ea3943"/><line x1="127.23809523809524" y1="198.81925343892857" x2="127.23809523809524" y2="232.50682727093678" stroke="#16c784" stroke-width="1"/><rect x="121.8952380952381" y="214.3029988908354" width="10.685714285714285" height="9.52035410339073" fill="#16c784"/><line x1="145.04761904761904" y1="184.90492904456354" x2="145.04761904761904" y2="225.28805232769076" stroke="#16c784" stroke-width="1"/><rect x="139.70476190476188" y="202.89944168593019" width="10.685714285714285" height="1" fill="#16c784"/><line x1="162.85714285714286" y1="171.09507095543646" x2="162.85714285714286" y2="205.93343436751704" stroke="#16c784" stroke-width="1"/><rect x="157.5142857142857" y="176.95374057987542" width="10.685714285714285" height="23.853309975225187" fill="#16c784"/><line x1="180.66666666666669" y1="165.8640931283625" x2="180.66666666666669" y2="219.4293827032518" stroke="#ea3943" stroke-width="1"/><rect x="175.32380952380953" y="174.65216141973067" width="10.685714285714285" height="38.290732152297636" fill="#ea3943"/><line x1="198.47619047619048" y1="212.9428935720283" x2="198.47619047619048" y2="212.9428935720283" stroke="#16c784" stroke-width="1"/><rect x="193.13333333333333" y="212.9428935720283" width="10.685714285714285" height="1" fill="#16c784"/><line x1="216.28571428571428" y1="148.7064603136759" x2="216.28571428571428" y2="195.05297494531922" stroke="#16c784" stroke-width="1"/><rect x="210.94285714285712" y="177.9999361452902" width="10.685714285714285" height="12.345158755662425" fill="#16c784"/><line x1="234.0952380952381" y1="98.07069711513543" x2="234.0952380952381" y2="160.94702505468075" stroke="#16c784" stroke-width="1"/><rect x="228.75238095238095" y="136.77993303548288" width="10.685714285714285" height="24.062498004540345" fill="#16c784"/><line x1="251.90476190476193" y1="39.69293348122193" x2="251.90476190476193" y2="135.94292549938322" stroke="#16c784" stroke-width="1"/><rect x="246.56190476190477" y="75.78668048803246" width="10.685714285714285" height="49.48510132788766" fill="#16c784"/><line x1="269.7142857142857" y1="106.64944966776892" x2="269.7142857142857" y2="183.02172594304906" stroke="#ea3943" stroke-width="1"/><rect x="264.37142857142857" y="106.64944966776892" width="10.685714285714285" height="72.2920880282785" fill="#ea3943"/><line x1="287.5238095238095" y1="155.7160472276068" x2="287.5238095238095" y2="210.22281064383378" stroke="#16c784" stroke-width="1"/><rect x="282.18095238095236" y="162.62091241746052" width="10.685714285714285" height="27.724182483492115" fill="#16c784"/><line x1="305.33333333333337" y1="124.12086452642816" x2="305.33333333333337" y2="175.07066518778055" stroke="#ea3943" stroke-width="1"/><rect x="299.9904761904762" y="144.62639977609388" width="10.685714285714285" height="19.04070820678146" fill="#ea3943"/><line x1="323.14285714285717" y1="151.63585898060515" x2="323.14285714285717" y2="197.6684638588562" stroke="#16c784" stroke-width="1"/><rect x="317.8" y="178.73234966673232" width="10.685714285714285" height="11.612745234220313" fill="#16c784"/><line x1="340.95238095238096" y1="159.0638219531663" x2="340.95238095238096" y2="207.6073217302968" stroke="#ea3943" stroke-width="1"/><rect x="335.6095238095238" y="159.0638219531663" width="10.685714285714285" height="29.18888181695675" fill="#ea3943"/><line x1="358.76190476190476" y1="164.60870953363255" x2="358.76190476190476" y2="202.58553193253792" stroke="#ea3943" stroke-width="1"/><rect x="353.4190476190476" y="185.21871108853622" width="10.685714285714285" height="12.76366252371227" fill="#ea3943"/><line x1="376.57142857142856" y1="191.18210243705232" x2="376.57142857142856" y2="246.63046740403652" stroke="#16c784" stroke-width="1"/><rect x="371.2285714285714" y="207.2934119769045" width="10.685714285714285" height="6.9049928992733385" fill="#16c784"/><line x1="394.3809523809524" y1="189.92659113290281" x2="394.3809523809524" y2="238.47009091003326" stroke="#ea3943" stroke-width="1"/><rect x="389.03809523809525" y="190.34509490095263" width="10.685714285714285" height="44.77722128352113" fill="#ea3943"/><line x1="412.1904761904762" y1="185.11411707387865" x2="412.1904761904762" y2="223.82335299422613" stroke="#16c784" stroke-width="1"/><rect x="406.84761904761905" y="198.19156164156362" width="10.685714285714285" height="3.66168447895177" fill="#16c784"/><line x1="430" y1="129.2472483388446" x2="430" y2="195.47147871336907" stroke="#16c784" stroke-width="1"/><rect x="424.65714285714284" y="133.01352683245395" width="10.685714285714285" height="46.97420642900829" fill="#16c784"/><line x1="447.80952380952385" y1="98.48907317376566" x2="447.80952380952385" y2="145.0447758347241" stroke="#ea3943" stroke-width="1"/><rect x="442.4666666666667" y="101.94156962340233" width="10.685714285714285" height="30.130483367713964" fill="#ea3943"/><line x1="465.61904761904765" y1="102.04616363805991" x2="465.61904761904765" y2="163.1440102001679" stroke="#16c784" stroke-width="1"/><rect x="460.2761904761905" y="113.97281862567252" width="10.685714285714285" height="25.213287584612658" fill="#16c784"/><line x1="483.42857142857144" y1="128.82874457079475" x2="483.42857142857144" y2="203.1086297152453" stroke="#16c784" stroke-width="1"/><rect x="478.0857142857143" y="134.58282018057614" width="10.685714285714285" height="62.35335786625757" fill="#16c784"/><line x1="501.23809523809524" y1="90.95651618654699" x2="501.23809523809524" y2="122.86548093169827" stroke="#16c784" stroke-width="1"/><rect x="495.8952380952381" y="113.03121707491525" width="10.685714285714285" height="9.3111660740756" fill="#16c784"/><line x1="519.047619047619" y1="105.18475033430428" x2="519.047619047619" y2="127.25945122267257" stroke="#16c784" stroke-width="1"/><rect x="513.7047619047619" y="115.85602172718697" width="10.685714285714285" height="1" fill="#16c784"/><line x1="536.8571428571429" y1="91.47961396925436" x2="536.8571428571429" y2="119.09920243808892" stroke="#16c784" stroke-width="1"/><rect x="531.5142857142857" y="98.38447915910811" width="10.685714285714285" height="20.714723278980813" fill="#16c784"/><line x1="554.6666666666667" y1="73.48510132788772" x2="554.6666666666667" y2="111.46192372679306" stroke="#ea3943" stroke-width="1"/><rect x="549.3238095238096" y="83.6331472286434" width="10.685714285714285" height="19.9823097575387" fill="#ea3943"/><line x1="572.4761904761905" y1="103.6154569861821" x2="572.4761904761905" y2="103.6154569861821" stroke="#16c784" stroke-width="1"/><rect x="567.1333333333333" y="103.6154569861821" width="10.685714285714285" height="1" fill="#16c784"/><line x1="590.2857142857143" y1="71.49730421171569" x2="590.2857142857143" y2="114.49591640837988" stroke="#ea3943" stroke-width="1"/><rect x="584.9428571428572" y="103.09235920347467" width="10.685714285714285" height="2.0923911308296113" fill="#ea3943"/><line x1="608.0952380952381" y1="93.15350133203412" x2="608.0952380952381" y2="140.44161751443468" stroke="#ea3943" stroke-width="1"/><rect x="602.7523809523809" y="99.43067472452293" width="10.685714285714285" height="32.641378266593364" fill="#ea3943"/><line x1="625.9047619047619" y1="122.86548093169827" x2="625.9047619047619" y2="240.35329401154775" stroke="#ea3943" stroke-width="1"/><rect x="620.5619047619048" y="127.25945122267257" width="10.685714285714285" height="104.2011804828494" fill="#ea3943"/><line x1="643.7142857142858" y1="140.23230177569997" x2="643.7142857142858" y2="211.16441219459102" stroke="#16c784" stroke-width="1"/><rect x="638.3714285714286" y="156.9714308223367" width="10.685714285714285" height="49.066597559837845" fill="#16c784"/><line x1="661.5238095238095" y1="103.72005100083965" x2="661.5238095238095" y2="147.34648270428843" stroke="#16c784" stroke-width="1"/><rect x="656.1809523809524" y="133.8505343685536" width="10.685714285714285" height="3.766278493609377" fill="#16c784"/><line x1="679.3333333333334" y1="105.60325410235413" x2="679.3333333333334" y2="136.25683525277552" stroke="#16c784" stroke-width="1"/><rect x="673.9904761904762" y="115.12360820574486" width="10.685714285714285" height="15.692933481221928" fill="#16c784"/><line x1="697.1428571428571" y1="72.22959002373818" x2="697.1428571428571" y2="115.12360820574486" stroke="#16c784" stroke-width="1"/><rect x="691.8" y="79.2391769376691" width="10.685714285714285" height="35.77983725341821" fill="#16c784"/><line x1="714.952380952381" y1="78.40216940156941" x2="714.952380952381" y2="166.28259689641231" stroke="#ea3943" stroke-width="1"/><rect x="709.6095238095238" y="78.40216940156941" width="10.685714285714285" height="74.38447915910814" fill="#ea3943"/><line x1="732.7619047619048" y1="117.94841285801655" x2="732.7619047619048" y2="171.72276275280143" stroke="#16c784" stroke-width="1"/><rect x="727.4190476190477" y="129.03806030952947" width="10.685714285714285" height="19.459211974831305" fill="#16c784"/><line x1="750.5714285714286" y1="72.12499600908063" x2="750.5714285714286" y2="106.64944966776892" stroke="#16c784" stroke-width="1"/><rect x="745.2285714285714" y="92.21189978127688" width="10.685714285714285" height="8.369564523318388" fill="#16c784"/><line x1="768.3809523809524" y1="46.074700888368284" x2="768.3809523809524" y2="127.57336097606483" stroke="#16c784" stroke-width="1"/><rect x="763.0380952380953" y="53.398069846271824" width="10.685714285714285" height="48.96200354518035" fill="#16c784"/><line x1="786.1904761904763" y1="24" x2="786.1904761904763" y2="64.06934123915454" stroke="#ea3943" stroke-width="1"/><rect x="780.8476190476191" y="49.10869356995511" width="10.685714285714285" height="10.985053436855367" fill="#ea3943"/><line x1="804" y1="36.13584301692771" x2="804" y2="64.59243902186194" stroke="#ea3943" stroke-width="1"/><rect x="798.6571428571428" y="58.41985964403074" width="10.685714285714285" height="1.6738873627797375" fill="#ea3943"/><text x="56" y="16" fill="#cdd6e8" font-size="13">Candlestick · last 43 sessions</text></svg>