<svg xmlns="http://www.w3.org/2000/svg" width="820" height="360" viewBox="0 0 820 360"><rect x="0" y="0" width="820" height="360" fill="#0b0f1a"/><line x1="56" y1="24" x2="804" y2="24" stroke="#1c2434"/><text x="50" y="28" fill="#7f8aa3" font-size="11" text-anchor="end">692</text><line x1="56" y1="101" x2="804" y2="101" stroke="#1c2434"/><text x="50" y="105" fill="#7f8aa3" font-size="11" text-anchor="end">657.5</text><line x1="56" y1="178" x2="804" y2="178" stroke="#1c2434"/><text x="50" y="182" fill="#7f8aa3" font-size="11" text-anchor="end">623</text><line x1="56" y1="255" x2="804" y2="255" stroke="#1c2434"/><text x="50" y="259" fill="#7f8aa3" font-size="11" text-anchor="end">588.5</text><line x1="56" y1="332" x2="804" y2="332" stroke="#1c2434"/><text x="50" y="336" fill="#7f8aa3" font-size="11" text-anchor="end">554</text><line x1="56" y1="285.1304347826087" x2="56" y2="332" stroke="#16c784" stroke-width="1"/><rect x="50.78139534883721" y="289.2593658004982" width="10.43720930232558" height="27.67541680819744" fill="#16c784"/><line x1="73.3953488372093" y1="261.91878609035325" x2="73.3953488372093" y2="292.94202898550725" stroke="#16c784" stroke-width="1"/><rect x="68.1767441860465" y="279.7738585541214" width="10.43720930232558" height="6.584085215692937" fill="#16c784"/><line x1="90.7906976744186" y1="263.4811321756114" x2="90.7906976744186" y2="307.0028713060462" stroke="#16c784" stroke-width="1"/><rect x="85.5720930232558" y="266.60582434612775" width="10.43720930232558" height="29.3491936282835" fill="#16c784"/><line x1="108.18604651162791" y1="247.41153971354166" x2="108.18604651162791" y2="267.6101994168931" stroke="#ea3943" stroke-width="1"/><rect x="102.96744186046512" y="252.09857796931612" width="10.43720930232558" height="4.128931017889499" fill="#ea3943"/><line x1="125.5813953488372" y1="242.72463768115944" x2="125.5813953488372" y2="264.8203443444294" stroke="#ea3943" stroke-width="1"/><rect x="120.36279069767441" y="254.10719188745472" width="10.43720930232558" height="4.910172172214658" fill="#ea3943"/><line x1="142.97674418604652" y1="237.36806145267212" x2="142.97674418604652" y2="253.54922087296197" stroke="#16c784" stroke-width="1"/><rect x="137.75813953488372" y="246.5188678243886" width="10.43720930232558" height="1" fill="#16c784"/><line x1="160.37209302325581" y1="236.58695652173913" x2="160.37209302325581" y2="258.1246921705163" stroke="#ea3943" stroke-width="1"/><rect x="155.15348837209302" y="246.8535686990489" width="10.43720930232558" height="5.245009270267218" fill="#ea3943"/><line x1="177.7674418604651" y1="227.88255420629528" x2="177.7674418604651" y2="251.54060695482337" stroke="#16c784" stroke-width="1"/><rect x="172.54883720930232" y="242.94777159759963" width="10.43720930232558" height="8.592835357223748" fill="#16c784"/><line x1="195.1627906976744" y1="242.94777159759963" x2="195.1627906976744" y2="242.94777159759963" stroke="#16c784" stroke-width="1"/><rect x="189.94418604651162" y="242.94777159759963" width="10.43720930232558" height="1" fill="#16c784"/><line x1="212.5581395348837" y1="211.70139478600544" x2="212.5581395348837" y2="259.35220115772194" stroke="#ea3943" stroke-width="1"/><rect x="207.33953488372092" y="240.4927536231884" width="10.43720930232558" height="9.820344344429344" fill="#ea3943"/><line x1="229.953488372093" y1="225.0926991338315" x2="229.953488372093" y2="278.9927536231884" stroke="#ea3943" stroke-width="1"/><rect x="224.7348837209302" y="240.4927536231884" width="10.43720930232558" height="33.366693911345095" fill="#ea3943"/><line x1="247.3488372093023" y1="238.70727362149006" x2="247.3488372093023" y2="291.82608695652175" stroke="#16c784" stroke-width="1"/><rect x="242.1302325581395" y="247.523242895154" width="10.43720930232558" height="34.705769856770814" fill="#16c784"/><line x1="264.74418604651163" y1="249.08545275701994" x2="264.74418604651163" y2="288.3666939113451" stroke="#ea3943" stroke-width="1"/><rect x="259.52558139534887" y="251.42903999660325" width="10.43720930232558" height="19.08258145097375" fill="#ea3943"/><line x1="282.1395348837209" y1="270.28835130774456" x2="282.1395348837209" y2="289.2593658004982" stroke="#16c784" stroke-width="1"/><rect x="276.92093023255813" y="278.8811866649683" width="10.43720930232558" height="1.7854800016983745" fill="#16c784"/><line x1="299.5348837209302" y1="256.1159420289855" x2="299.5348837209302" y2="287.1391849241395" stroke="#ea3943" stroke-width="1"/><rect x="294.31627906976746" y="270.8463223222373" width="10.43720930232558" height="8.257998259171188" fill="#ea3943"/><line x1="316.9302325581395" y1="286.80434782608694" x2="316.9302325581395" y2="324.18840579710144" stroke="#ea3943" stroke-width="1"/><rect x="311.71162790697673" y="294.05797101449275" width="10.43720930232558" height="21.64930260699731" fill="#ea3943"/><line x1="334.3255813953488" y1="280.44353275022644" x2="334.3255813953488" y2="311.9130434782609" stroke="#16c784" stroke-width="1"/><rect x="329.10697674418606" y="284.7955976845561" width="10.43720930232558" height="24.885561735733745" fill="#16c784"/><line x1="351.72093023255815" y1="279.2158875396286" x2="351.72093023255815" y2="317.2696197067482" stroke="#ea3943" stroke-width="1"/><rect x="346.5023255813954" y="289.59420289855075" width="10.43720930232558" height="21.8724365234375" fill="#ea3943"/><line x1="369.1162790697674" y1="305.6637953606205" x2="369.1162790697674" y2="328.6521739130435" stroke="#16c784" stroke-width="1"/><rect x="363.89767441860465" y="311.9130434782609" width="10.43720930232558" height="4.68690203238225" fill="#16c784"/><line x1="386.51162790697674" y1="253.43765391474184" x2="386.51162790697674" y2="306.22176637511325" stroke="#16c784" stroke-width="1"/><rect x="381.293023255814" y="258.2362591287364" width="10.43720930232558" height="35.82171188575637" fill="#16c784"/><line x1="403.906976744186" y1="184.0261142012002" x2="403.906976744186" y2="233.1275634765625" stroke="#16c784" stroke-width="1"/><rect x="398.68837209302325" y="197.08258145097375" width="10.43720930232558" height="30.018867824388565" fill="#16c784"/><line x1="421.30232558139534" y1="157.91304347826087" x2="421.30232558139534" y2="203.22026261039403" stroke="#16c784" stroke-width="1"/><rect x="416.0837209302326" y="163.93915767946106" width="10.43720930232558" height="25.220262610394002" fill="#16c784"/><line x1="438.6976744186046" y1="154.0072463768116" x2="438.6976744186046" y2="188.71301623358244" stroke="#ea3943" stroke-width="1"/><rect x="433.47906976744184" y="155.56959246206975" width="10.43720930232558" height="21.202898550724626" fill="#ea3943"/><line x1="456.09302325581393" y1="131.1304347826087" x2="456.09302325581393" y2="178" stroke="#16c784" stroke-width="1"/><rect x="450.87441860465117" y="138.4956249292346" width="10.43720930232558" height="38.27686608355978" fill="#16c784"/><line x1="473.48837209302326" y1="142.28985507246378" x2="473.48837209302326" y2="185.476757104846" stroke="#ea3943" stroke-width="1"/><rect x="468.2697674418605" y="142.28985507246378" width="10.43720930232558" height="32.36231884057969" fill="#ea3943"/><line x1="490.8837209302325" y1="158.35944753453353" x2="490.8837209302325" y2="173.31309796761775" stroke="#16c784" stroke-width="1"/><rect x="485.66511627906976" y="167.73338782269022" width="10.43720930232558" height="1" fill="#16c784"/><line x1="508.27906976744185" y1="148.09269913383153" x2="508.27906976744185" y2="206.90292579540306" stroke="#ea3943" stroke-width="1"/><rect x="503.0604651162791" y="169.18403072633606" width="10.43720930232558" height="32.585588980412126" fill="#ea3943"/><line x1="525.6744186046511" y1="178.78110493093297" x2="525.6744186046511" y2="208.3535686990489" stroke="#16c784" stroke-width="1"/><rect x="520.4558139534884" y="188.82458319180253" width="10.43720930232558" height="14.17254550215128" fill="#16c784"/><line x1="543.0697674418604" y1="158.47101449275362" x2="543.0697674418604" y2="184.69565217391303" stroke="#ea3943" stroke-width="1"/><rect x="537.8511627906977" y="180.231884057971" width="10.43720930232558" height="1.4507791270380608" fill="#ea3943"/><line x1="560.4651162790697" y1="181.68266318500906" x2="560.4651162790697" y2="181.68266318500906" stroke="#16c784" stroke-width="1"/><rect x="555.2465116279069" y="181.68266318500906" width="10.43720930232558" height="1" fill="#16c784"/><line x1="577.860465116279" y1="165.50150376471922" x2="577.860465116279" y2="203.8898005831069" stroke="#ea3943" stroke-width="1"/><rect x="572.6418604651162" y="180.231884057971" width="10.43720930232558" height="16.181159420289873" fill="#ea3943"/><line x1="595.2558139534883" y1="172.42028985507247" x2="595.2558139534883" y2="210.0274817425272" stroke="#16c784" stroke-width="1"/><rect x="590.0372093023256" y="184.58408521569294" width="10.43720930232558" height="12.833333333333314" fill="#16c784"/><line x1="612.6511627906976" y1="116.28835130774456" x2="612.6511627906976" y2="189.15942028985506" stroke="#16c784" stroke-width="1"/><rect x="607.4325581395349" y="120.64055246546647" width="10.43720930232558" height="63.050724637681185" fill="#16c784"/><line x1="630.046511627907" y1="94.6391849241395" x2="630.046511627907" y2="123.43040753793025" stroke="#16c784" stroke-width="1"/><rect x="624.8279069767442" y="99.43765391474184" width="10.43720930232558" height="20.421793619791686" fill="#16c784"/><line x1="647.4418604651163" y1="55.24637681159419" x2="647.4418604651163" y2="103.00875014153078" stroke="#16c784" stroke-width="1"/><rect x="642.2232558139535" y="59.93327884397644" width="10.43720930232558" height="32.80872289685237" fill="#16c784"/><line x1="664.8372093023255" y1="41.4086684074955" x2="664.8372093023255" y2="72.87831535892212" stroke="#ea3943" stroke-width="1"/><rect x="659.6186046511627" y="56.9202898550725" width="10.43720930232558" height="8.815969273663939" fill="#ea3943"/><line x1="682.2325581395348" y1="65.73625912873644" x2="682.2325581395348" y2="117.96226435122281" stroke="#ea3943" stroke-width="1"/><rect x="677.0139534883721" y="65.73625912873644" width="10.43720930232558" height="49.54785333163494" fill="#ea3943"/><line x1="699.6279069767442" y1="84.59570666326991" x2="699.6279069767442" y2="160.70289855072463" stroke="#ea3943" stroke-width="1"/><rect x="694.4093023255814" y="124.43478260869566" width="10.43720930232558" height="29.014492753623188" fill="#ea3943"/><line x1="717.0232558139535" y1="82.02898550724638" x2="717.0232558139535" y2="151.2173913043478" stroke="#16c784" stroke-width="1"/><rect x="711.8046511627907" y="96.31309796761775" width="10.43720930232558" height="50.10568812273553" fill="#16c784"/><line x1="734.4186046511627" y1="24" x2="734.4186046511627" y2="107.58408521569294" stroke="#16c784" stroke-width="1"/><rect x="729.1999999999999" y="37.949275362318815" width="10.43720930232558" height="35.1521739130435" fill="#16c784"/><line x1="751.813953488372" y1="27.905797101449252" x2="751.813953488372" y2="65.62469217051631" stroke="#16c784" stroke-width="1"/><rect x="746.5953488372093" y="45.537735648777186" width="10.43720930232558" height="6.249248117640377" fill="#16c784"/><line x1="769.2093023255813" y1="47.21164869225544" x2="769.2093023255813" y2="83.3680614526721" stroke="#ea3943" stroke-width="1"/><rect x="763.9906976744186" y="55.24637681159419" width="10.43720930232558" height="14.618813335031746" fill="#ea3943"/><line x1="786.6046511627907" y1="47.657916525135875" x2="786.6046511627907" y2="105.57533507416213" stroke="#ea3943" stroke-width="1"/><rect x="781.3860465116279" y="69.75362318840581" width="10.43720930232558" height="30.68840579710144" fill="#ea3943"/><line x1="804" y1="92.18403072633606" x2="804" y2="125.10432058140853" stroke="#ea3943" stroke-width="1"/><rect x="798.7813953488372" y="93.18840579710144" width="10.43720930232558" height="28.791358837182997" fill="#ea3943"/><text x="56" y="16" fill="#cdd6e8" font-size="13">Candlestick · last 44 sessions</text></svg>