<svg xmlns="http://www.w3.org/2000/svg" width="820" height="360" viewBox="0 0 820 360"><rect x="0" y="0" width="820" height="360" fill="#0b0f1a"/><line x1="56" y1="24" x2="804" y2="24" stroke="#1c2434"/><text x="50" y="28" fill="#7f8aa3" font-size="11" text-anchor="end">4429.4</text><line x1="56" y1="101" x2="804" y2="101" stroke="#1c2434"/><text x="50" y="105" fill="#7f8aa3" font-size="11" text-anchor="end">4293.72</text><line x1="56" y1="178" x2="804" y2="178" stroke="#1c2434"/><text x="50" y="182" fill="#7f8aa3" font-size="11" text-anchor="end">4158.05</text><line x1="56" y1="255" x2="804" y2="255" stroke="#1c2434"/><text x="50" y="259" fill="#7f8aa3" font-size="11" text-anchor="end">4022.37</text><line x1="56" y1="332" x2="804" y2="332" stroke="#1c2434"/><text x="50" y="336" fill="#7f8aa3" font-size="11" text-anchor="end">3886.7</text><line x1="56" y1="71.5591342656594" x2="56" y2="115.59973170171023" stroke="#ea3943" stroke-width="1"/><rect x="50.78139534883721" y="77.40488794137747" width="10.43720930232558" height="17.366280699213036" fill="#ea3943"/><line x1="73.3953488372093" y1="88.64192570152761" x2="73.3953488372093" y2="147.94909890192943" stroke="#ea3943" stroke-width="1"/><rect x="68.1767441860465" y="95.1685524173613" width="10.43720930232558" height="38.59222753710358" fill="#ea3943"/><line x1="90.7906976744186" y1="131.37703152504906" x2="90.7906976744186" y2="204.7023746917876" stroke="#ea3943" stroke-width="1"/><rect x="85.5720930232558" y="134.32831271236347" width="10.43720930232558" height="51.53186357094944" fill="#ea3943"/><line x1="108.18604651162791" y1="124.11272307018896" x2="108.18604651162791" y2="198.2893653737754" stroke="#ea3943" stroke-width="1"/><rect x="102.96744186046512" y="172.6935825694285" width="10.43720930232558" height="17.139323019174498" fill="#ea3943"/><line x1="125.5813953488372" y1="177.4608023126557" x2="125.5813953488372" y2="208.90206167711625" stroke="#ea3943" stroke-width="1"/><rect x="120.36279069767441" y="185.40626092323583" width="10.43720930232558" height="15.890917221160294" fill="#ea3943"/><line x1="142.97674418604652" y1="179.78774204316076" x2="142.97674418604652" y2="223.65791338247936" stroke="#ea3943" stroke-width="1"/><rect x="137.75813953488372" y="182.5685971337429" width="10.43720930232558" height="29.96561877080336" fill="#ea3943"/><line x1="160.37209302325581" y1="199.70819726852187" x2="160.37209302325581" y2="233.70335404352605" stroke="#16c784" stroke-width="1"/><rect x="155.15348837209302" y="208.90206167711625" width="10.43720930232558" height="2.099982050466508" fill="#16c784"/><line x1="177.7674418604651" y1="185.8601762833129" x2="177.7674418604651" y2="228.70903806245806" stroke="#16c784" stroke-width="1"/><rect x="172.54883720930232" y="197.09749115906752" width="10.43720930232558" height="12.145145595908758" fill="#16c784"/><line x1="195.1627906976744" y1="197.09749115906752" x2="195.1627906976744" y2="197.09749115906752" stroke="#16c784" stroke-width="1"/><rect x="189.94418604651162" y="197.09749115906752" width="10.43720930232558" height="1" fill="#16c784"/><line x1="212.5581395348837" y1="182.62540583265368" x2="212.5581395348837" y2="267.6417021196195" stroke="#ea3943" stroke-width="1"/><rect x="207.33953488372092" y="182.62540583265368" width="10.43720930232558" height="54.142569680403795" fill="#ea3943"/><line x1="229.953488372093" y1="207.54003848128053" x2="229.953488372093" y2="244.42966774468835" stroke="#ea3943" stroke-width="1"/><rect x="224.7348837209302" y="225.1903626750473" width="10.43720930232558" height="1.7592684148042679" fill="#ea3943"/><line x1="247.3488372093023" y1="228.5955592224388" x2="247.3488372093023" y2="274.05484999543387" stroke="#16c784" stroke-width="1"/><rect x="242.1302325581395" y="235.34914361831102" width="10.43720930232558" height="18.161048252754654" fill="#16c784"/><line x1="264.74418604651163" y1="157.65396448511606" x2="264.74418604651163" y2="257.9936452353436" stroke="#16c784" stroke-width="1"/><rect x="259.52558139534887" y="172.1260498115299" width="10.43720930232558" height="58.73964044250326" fill="#16c784"/><line x1="282.1395348837209" y1="140.00364029134929" x2="282.1395348837209" y2="195.05431780751172" stroke="#ea3943" stroke-width="1"/><rect x="276.92093023255813" y="176.8932695547571" width="10.43720930232558" height="11.748038934742425" fill="#ea3943"/><line x1="299.5348837209302" y1="134.21469531454196" x2="299.5348837209302" y2="204.13484193388905" stroke="#16c784" stroke-width="1"/><rect x="294.31627906976746" y="185.8601762833129" width="10.43720930232558" height="2.781132206186612" fill="#16c784"/><line x1="316.9302325581395" y1="183.93062032957863" x2="316.9302325581395" y2="247.7213854520606" stroke="#ea3943" stroke-width="1"/><rect x="311.71162790697673" y="210.94523502867202" width="10.43720930232558" height="20.828424503317535" fill="#ea3943"/><line x1="334.3255813953488" y1="182.5685971337429" x2="334.3255813953488" y2="227.9712177656295" stroke="#16c784" stroke-width="1"/><rect x="329.10697674418606" y="215.48549709186068" width="10.43720930232558" height="1" fill="#16c784"/><line x1="351.72093023255815" y1="149.19778181554807" x2="351.72093023255815" y2="250.1049953236742" stroke="#ea3943" stroke-width="1"/><rect x="346.5023255813954" y="223.2039980224023" width="10.43720930232558" height="19.863646526450367" fill="#ea3943"/><line x1="369.1162790697674" y1="217.18809536555642" x2="369.1162790697674" y2="281.8868297659948" stroke="#ea3943" stroke-width="1"/><rect x="363.89767441860465" y="243.06764454885266" width="10.43720930232558" height="32.008792122359154" fill="#ea3943"/><line x1="386.51162790697674" y1="241.76229149412546" x2="386.51162790697674" y2="293.2374849239664" stroke="#ea3943" stroke-width="1"/><rect x="381.293023255814" y="242.15953671309404" width="10.43720930232558" height="29.171128332866203" fill="#ea3943"/><line x1="403.906976744186" y1="186.20075136117296" x2="403.906976744186" y2="260.03681858689936" stroke="#16c784" stroke-width="1"/><rect x="398.68837209302325" y="211.5127677865706" width="10.43720930232558" height="33.48443271601633" fill="#16c784"/><line x1="421.30232558139534" y1="149.08416441772658" x2="421.30232558139534" y2="205.8374402075848" stroke="#16c784" stroke-width="1"/><rect x="416.0837209302326" y="153.45427749978742" width="10.43720930232558" height="52.38316270779737" fill="#16c784"/><line x1="438.6976744186046" y1="93.46595414366553" x2="438.6976744186046" y2="152.88674474188886" stroke="#16c784" stroke-width="1"/><rect x="433.47906976744184" y="104.53284292268788" width="10.43720930232558" height="41.08931624873648" fill="#16c784"/><line x1="456.09302325581393" y1="69.28900323406504" x2="456.09302325581393" y2="104.75980060272641" stroke="#16c784" stroke-width="1"/><rect x="450.87441860465117" y="93.63610312479335" width="10.43720930232558" height="3.802580324162278" fill="#16c784"/><line x1="473.48837209302326" y1="79.67501897297177" x2="473.48837209302326" y2="120.13999376489892" stroke="#ea3943" stroke-width="1"/><rect x="468.2697674418605" y="100.3331559373593" width="10.43720930232558" height="4.540262063188635" fill="#ea3943"/><line x1="490.8837209302325" y1="67.75683105710158" x2="490.8837209302325" y2="94.20363588269194" stroke="#16c784" stroke-width="1"/><rect x="485.66511627906976" y="80.07212563413813" width="10.43720930232558" height="14.131510248553809" fill="#16c784"/><line x1="508.27906976744185" y1="26.49708871163284" x2="508.27906976744185" y2="94.03348690156415" stroke="#16c784" stroke-width="1"/><rect x="503.0604651162791" y="44.71494566329824" width="10.43720930232558" height="46.480877448772986" fill="#16c784"/><line x1="525.6744186046511" y1="24" x2="525.6744186046511" y2="95.1685524173613" stroke="#ea3943" stroke-width="1"/><rect x="520.4558139534884" y="43.46626274967963" width="10.43720930232558" height="33.54124141492704" fill="#ea3943"/><line x1="543.0697674418604" y1="60.88962926340787" x2="543.0697674418604" y2="105.95167481743437" stroke="#ea3943" stroke-width="1"/><rect x="537.8511627906977" y="69.0620455540265" width="10.43720930232558" height="31.441259364460592" fill="#ea3943"/><line x1="560.4651162790697" y1="100.50330491848709" x2="560.4651162790697" y2="100.50330491848709" stroke="#16c784" stroke-width="1"/><rect x="555.2465116279069" y="100.50330491848709" width="10.43720930232558" height="1" fill="#16c784"/><line x1="577.860465116279" y1="49.19839902757616" x2="577.860465116279" y2="110.0945531038522" stroke="#16c784" stroke-width="1"/><rect x="572.6418604651162" y="65.08931624873645" width="10.43720930232558" height="37.96788608029425" fill="#16c784"/><line x1="595.2558139534883" y1="39.55034214330027" x2="595.2558139534883" y2="90.34452397522332" stroke="#16c784" stroke-width="1"/><rect x="590.0372093023256" y="51.63867904029826" width="10.43720930232558" height="12.939913149450376" fill="#16c784"/><line x1="612.6511627906976" y1="55.0438755876898" x2="612.6511627906976" y2="142.5575377018929" stroke="#ea3943" stroke-width="1"/><rect x="607.4325581395349" y="58.39254055177497" width="10.43720930232558" height="22.814650598160313" fill="#ea3943"/><line x1="630.046511627907" y1="77.8019946025438" x2="630.046511627907" y2="167.81274542837977" stroke="#ea3943" stroke-width="1"/><rect x="624.8279069767442" y="81.20719114993528" width="10.43720930232558" height="80.36269394156008" fill="#ea3943"/><line x1="647.4418604651163" y1="216.62056260765783" x2="647.4418604651163" y2="277.51685524173615" stroke="#ea3943" stroke-width="1"/><rect x="642.2232558139535" y="216.62056260765783" width="10.43720930232558" height="54.25618707822534" fill="#ea3943"/><line x1="664.8372093023255" y1="224.566021218238" x2="664.8372093023255" y2="269.57139663115595" stroke="#16c784" stroke-width="1"/><rect x="659.6186046511627" y="230.9791690940524" width="10.43720930232558" height="22.985076694892598" fill="#16c784"/><line x1="682.2325581395348" y1="214.00985649820348" x2="682.2325581395348" y2="243.63517730675125" stroke="#ea3943" stroke-width="1"/><rect x="677.0139534883721" y="224.50921251932724" width="10.43720930232558" height="2.9512811873144074" fill="#ea3943"/><line x1="699.6279069767442" y1="227.29020616771163" x2="699.6279069767442" y2="262.0799919384551" stroke="#ea3943" stroke-width="1"/><rect x="694.4093023255814" y="239.32187292360112" width="10.43720930232558" height="6.469818016922943" fill="#ea3943"/><line x1="717.0232558139535" y1="218.7772147992329" x2="717.0232558139535" y2="279.04916597650185" stroke="#16c784" stroke-width="1"/><rect x="711.8046511627907" y="222.6364652645037" width="10.43720930232558" height="25.76593178547472" fill="#16c784"/><line x1="734.4186046511627" y1="206.40497296548335" x2="734.4186046511627" y2="253.1129466520971" stroke="#ea3943" stroke-width="1"/><rect x="729.1999999999999" y="217.18809536555642" width="10.43720930232558" height="4.483453364277921" fill="#ea3943"/><line x1="751.813953488372" y1="260.43406380586794" x2="751.813953488372" y2="319.91152454519977" stroke="#16c784" stroke-width="1"/><rect x="746.5953488372093" y="271.04689866701096" width="10.43720930232558" height="25.028250046448363" fill="#16c784"/><line x1="769.2093023255813" y1="270.87674968588317" x2="769.2093023255813" y2="327.23264169897055" stroke="#ea3943" stroke-width="1"/><rect x="763.9906976744186" y="273.9981798543254" width="10.43720930232558" height="41.429891326596476" fill="#ea3943"/><line x1="786.6046511627907" y1="300.72888961666723" x2="786.6046511627907" y2="332" stroke="#16c784" stroke-width="1"/><rect x="781.3860465116279" y="307.82304909039954" width="10.43720930232558" height="5.505040040055803" fill="#16c784"/><line x1="804" y1="275.0764366712118" x2="804" y2="307.42580387143096" stroke="#16c784" stroke-width="1"/><rect x="798.7813953488372" y="295.5644246544715" width="10.43720930232558" height="11.861379216959449" fill="#16c784"/><text x="56" y="16" fill="#cdd6e8" font-size="13">Candlestick · last 44 sessions</text></svg>