<svg xmlns="http://www.w3.org/2000/svg" width="820" height="360" viewBox="0 0 820 360"><rect x="0" y="0" width="820" height="360" fill="#0b0f1a"/><line x1="56" y1="24" x2="804" y2="24" stroke="#1c2434"/><text x="50" y="28" fill="#7f8aa3" font-size="11" text-anchor="end">1278.9</text><line x1="56" y1="101" x2="804" y2="101" stroke="#1c2434"/><text x="50" y="105" fill="#7f8aa3" font-size="11" text-anchor="end">1204.78</text><line x1="56" y1="178" x2="804" y2="178" stroke="#1c2434"/><text x="50" y="182" fill="#7f8aa3" font-size="11" text-anchor="end">1130.65</text><line x1="56" y1="255" x2="804" y2="255" stroke="#1c2434"/><text x="50" y="259" fill="#7f8aa3" font-size="11" text-anchor="end">1056.53</text><line x1="56" y1="332" x2="804" y2="332" stroke="#1c2434"/><text x="50" y="336" fill="#7f8aa3" font-size="11" text-anchor="end">982.4</text><line x1="56" y1="161.95080957525295" x2="56" y2="191.14066617042582" stroke="#16c784" stroke-width="1"/><rect x="50.9" y="165.69041321932968" width="10.2" height="24.4114671163575" fill="#16c784"/><line x1="73" y1="107.62225969645868" x2="73" y2="145.43408944192666" stroke="#16c784" stroke-width="1"/><rect x="67.9" y="109.18043844856663" width="10.2" height="36.253650993360026" fill="#16c784"/><line x1="90" y1="98.79258010118042" x2="90" y2="121.64586846543003" stroke="#16c784" stroke-width="1"/><rect x="84.9" y="112.50462920267705" width="10.2" height="6.959814370784187" fill="#16c784"/><line x1="107" y1="104.0903624973651" x2="107" y2="129.8523019208474" stroke="#ea3943" stroke-width="1"/><rect x="101.9" y="110.01151783832208" width="10.2" height="15.477934298587712" fill="#ea3943"/><line x1="124" y1="114.47822084475126" x2="124" y2="134.52683817717116" stroke="#ea3943" stroke-width="1"/><rect x="118.9" y="124.138979829785" width="10.2" height="8.31028667790892" fill="#ea3943"/><line x1="141" y1="121.54201524293848" x2="141" y2="141.1750928804806" stroke="#ea3943" stroke-width="1"/><rect x="135.9" y="123.61958691241568" width="10.2" height="15.062394603709947" fill="#ea3943"/><line x1="158" y1="126.00884505427908" x2="158" y2="144.4991568296796" stroke="#16c784" stroke-width="1"/><rect x="152.9" y="139.5130609058811" width="10.2" height="1.454198724704895" fill="#16c784"/><line x1="175" y1="139.9284737958474" x2="175" y2="152.70559028509697" stroke="#ea3943" stroke-width="1"/><rect x="169.9" y="146.47287527666523" width="10.2" height="1.142639057230184" fill="#ea3943"/><line x1="192" y1="147.61551433389542" x2="192" y2="147.61551433389542" stroke="#16c784" stroke-width="1"/><rect x="186.9" y="147.61551433389542" width="10.2" height="1" fill="#16c784"/><line x1="209" y1="95.572369374473" x2="209" y2="154.15991581471332" stroke="#ea3943" stroke-width="1"/><rect x="203.9" y="124.65837274715429" width="10.2" height="21.918355752002554" fill="#ea3943"/><line x1="226" y1="88.30086853130271" x2="226" y2="133.28034589744942" stroke="#16c784" stroke-width="1"/><rect x="220.9" y="103.36326313501263" width="10.2" height="28.566610455312002" fill="#16c784"/><line x1="243" y1="24" x2="243" y2="72.1996880928541" stroke="#16c784" stroke-width="1"/><rect x="237.9" y="32.41413990040053" width="10.2" height="39.785548192453575" fill="#16c784"/><line x1="260" y1="54.124789207419894" x2="260" y2="89.33965436604132" stroke="#ea3943" stroke-width="1"/><rect x="254.9" y="62.22736944034568" width="10.2" height="20.256323777403054" fill="#ea3943"/><line x1="277" y1="90.17073375579682" x2="277" y2="109.90766461583053" stroke="#ea3943" stroke-width="1"/><rect x="271.9" y="97.64994104395024" width="10.2" height="6.959814370784187" fill="#ea3943"/><line x1="294" y1="81.23707413311553" x2="294" y2="111.88125625790471" stroke="#ea3943" stroke-width="1"/><rect x="288.9" y="85.18451102708684" width="10.2" height="23.372681281618895" fill="#ea3943"/><line x1="311" y1="105.23312835950674" x2="311" y2="130.37169483821668" stroke="#16c784" stroke-width="1"/><rect x="305.9" y="118.84119743360034" width="10.2" height="10.491711569877737" fill="#16c784"/><line x1="328" y1="112.60848242516866" x2="328" y2="139.9284737958474" stroke="#ea3943" stroke-width="1"/><rect x="322.9" y="112.60848242516866" width="10.2" height="13.815775519076709" fill="#ea3943"/><line x1="345" y1="135.66947723440134" x2="345" y2="164.8593338295742" stroke="#ea3943" stroke-width="1"/><rect x="339.9" y="147.4078078889123" width="10.2" height="15.373954271184687" fill="#ea3943"/><line x1="362" y1="174.8317792869941" x2="362" y2="200.48973868307334" stroke="#ea3943" stroke-width="1"/><rect x="356.9" y="178.98692262594858" width="10.2" height="15.685640743570815" fill="#ea3943"/><line x1="379" y1="185.63505052434655" x2="379" y2="197.89277409622682" stroke="#ea3943" stroke-width="1"/><rect x="373.9" y="189.06309450094858" width="10.2" height="3.739603644076709" fill="#ea3943"/><line x1="396" y1="156.86073362405145" x2="396" y2="185.9467369967327" stroke="#16c784" stroke-width="1"/><rect x="390.9" y="173.5851602023609" width="10.2" height="5.090075951201499" fill="#16c784"/><line x1="413" y1="153.9520825648187" x2="413" y2="185.73903055174958" stroke="#16c784" stroke-width="1"/><rect x="407.9" y="164.54777416209947" width="10.2" height="6.959814370784187" fill="#16c784"/><line x1="430" y1="144.91469652455734" x2="430" y2="159.97709112826726" stroke="#16c784" stroke-width="1"/><rect x="424.9" y="149.90091925326726" width="10.2" height="9.037386040261424" fill="#16c784"/><line x1="447" y1="165.27487352445192" x2="447" y2="183.55747885486932" stroke="#ea3943" stroke-width="1"/><rect x="441.9" y="165.27487352445192" width="10.2" height="15.997327215957029" fill="#ea3943"/><line x1="464" y1="245.1575295768339" x2="464" y2="282.5538196274241" stroke="#ea3943" stroke-width="1"/><rect x="458.9" y="249.0009864434022" width="10.2" height="11.32279095963321" fill="#ea3943"/><line x1="481" y1="230.30284141810708" x2="481" y2="256.5841737589587" stroke="#16c784" stroke-width="1"/><rect x="475.9" y="245.7807757166948" width="10.2" height="10.803398042263893" fill="#16c784"/><line x1="498" y1="256.2724872865725" x2="498" y2="286.7089629663786" stroke="#ea3943" stroke-width="1"/><rect x="492.9" y="257.8306660386804" width="10.2" height="25.45025295109616" fill="#ea3943"/><line x1="515" y1="245.6769224942032" x2="515" y2="274.55521942190137" stroke="#16c784" stroke-width="1"/><rect x="509.9" y="254.92214178435918" width="10.2" height="16.30888688343171" fill="#16c784"/><line x1="532" y1="243.07995790735666" x2="532" y2="273.100893892285" stroke="#ea3943" stroke-width="1"/><rect x="526.9" y="246.19631541157253" width="10.2" height="24.723153588743685" fill="#ea3943"/><line x1="549" y1="270.9194690003162" x2="549" y2="270.9194690003162" stroke="#16c784" stroke-width="1"/><rect x="543.9" y="270.9194690003162" width="10.2" height="1" fill="#16c784"/><line x1="566" y1="265.31000013174537" x2="566" y2="283.48875223967116" stroke="#ea3943" stroke-width="1"/><rect x="560.9" y="275.1784655617622" width="10.2" height="1" fill="#ea3943"/><line x1="583" y1="282.13827993254637" x2="583" y2="317.8725380085371" stroke="#ea3943" stroke-width="1"/><rect x="577.9" y="282.5538196274241" width="10.2" height="30.74803534728079" fill="#ea3943"/><line x1="600" y1="299.174392983242" x2="600" y2="332" stroke="#ea3943" stroke-width="1"/><rect x="594.9" y="307.48467966115095" width="10.2" height="21.502879459580527" fill="#ea3943"/><line x1="617" y1="266.97203210634484" x2="617" y2="307.48467966115095" stroke="#16c784" stroke-width="1"/><rect x="611.9" y="271.2310286677909" width="10.2" height="35.83811129848232" fill="#16c784"/><line x1="634" y1="242.3528585450042" x2="634" y2="270.0883896105607" stroke="#ea3943" stroke-width="1"/><rect x="628.9" y="248.27388708104974" width="10.2" height="16.412866910834737" fill="#ea3943"/><line x1="651" y1="258.6617454284359" x2="651" y2="279.43746212320826" stroke="#ea3943" stroke-width="1"/><rect x="645.9" y="261.6742497101602" width="10.2" height="8.206433455417368" fill="#ea3943"/><line x1="668" y1="222.82363412995363" x2="668" y2="271.54271514017705" stroke="#16c784" stroke-width="1"/><rect x="662.9" y="239.13252101338534" width="10.2" height="32.41019412679171" fill="#16c784"/><line x1="685" y1="230.92621436287942" x2="685" y2="246.8195615514334" stroke="#ea3943" stroke-width="1"/><rect x="679.9" y="239.02866779089376" width="10.2" height="2.700817809338105" fill="#ea3943"/><line x1="702" y1="248.58557355343592" x2="702" y2="271.7504215851602" stroke="#ea3943" stroke-width="1"/><rect x="696.9" y="248.58557355343592" width="10.2" height="12.361449989460397" fill="#ea3943"/><line x1="719" y1="218.87619723598232" x2="719" y2="246.50800188395868" stroke="#ea3943" stroke-width="1"/><rect x="713.9" y="235.8084570641863" width="10.2" height="7.271500843170344" fill="#ea3943"/><line x1="736" y1="194.36087689713324" x2="736" y2="254.4027488669899" stroke="#16c784" stroke-width="1"/><rect x="730.9" y="207.1379933863828" width="10.2" height="47.26475548060711" fill="#16c784"/><line x1="753" y1="195.81520242674958" x2="753" y2="220.22666954310708" stroke="#ea3943" stroke-width="1"/><rect x="747.9" y="201.7362309627951" width="10.2" height="15.477934298587684" fill="#ea3943"/><line x1="770" y1="222.20038799009274" x2="770" y2="237.88602873366358" stroke="#ea3943" stroke-width="1"/><rect x="764.9" y="231.65331372523187" width="10.2" height="2.8046710318296846" fill="#ea3943"/><line x1="787" y1="212.64348222755058" x2="787" y2="232.79595278246205" stroke="#ea3943" stroke-width="1"/><rect x="781.9" y="228.0175633036467" width="10.2" height="1" fill="#ea3943"/><line x1="804" y1="192.38715845014755" x2="804" y2="213.47456161730608" stroke="#ea3943" stroke-width="1"/><rect x="798.9" y="204.64488202202784" width="10.2" height="5.29778239618463" fill="#ea3943"/><text x="56" y="16" fill="#cdd6e8" font-size="13">Candlestick · last 45 sessions</text></svg>