<svg xmlns="http://www.w3.org/2000/svg" width="820" height="360" viewBox="0 0 820 360"><rect x="0" y="0" width="820" height="360" fill="#0b0f1a"/><line x1="56" y1="24" x2="804" y2="24" stroke="#1c2434"/><text x="50" y="28" fill="#7f8aa3" font-size="11" text-anchor="end">355.8</text><line x1="56" y1="101" x2="804" y2="101" stroke="#1c2434"/><text x="50" y="105" fill="#7f8aa3" font-size="11" text-anchor="end">330.85</text><line x1="56" y1="178" x2="804" y2="178" stroke="#1c2434"/><text x="50" y="182" fill="#7f8aa3" font-size="11" text-anchor="end">305.9</text><line x1="56" y1="255" x2="804" y2="255" stroke="#1c2434"/><text x="50" y="259" fill="#7f8aa3" font-size="11" text-anchor="end">280.95</text><line x1="56" y1="332" x2="804" y2="332" stroke="#1c2434"/><text x="50" y="336" fill="#7f8aa3" font-size="11" text-anchor="end">256</text><line x1="56" y1="282.6212364452093" x2="56" y2="332" stroke="#16c784" stroke-width="1"/><rect x="50.52682926829269" y="287.4047664915728" width="10.946341463414633" height="18.36276536994467" fill="#16c784"/><line x1="74.2439024390244" y1="278.14624832504956" x2="74.2439024390244" y2="303.14426621116576" stroke="#ea3943" stroke-width="1"/><rect x="68.77073170731708" y="278.14624832504956" width="10.946341463414633" height="22.529117381383514" fill="#ea3943"/><line x1="92.48780487804878" y1="303.4529023198866" x2="92.48780487804878" y2="313.1743275582326" stroke="#ea3943" stroke-width="1"/><rect x="87.01463414634146" y="310.2425199816772" width="10.946341463414633" height="1" fill="#ea3943"/><line x1="110.73170731707316" y1="292.3426616835553" x2="110.73170731707316" y2="311.7856063427644" stroke="#16c784" stroke-width="1"/><rect x="105.25853658536585" y="302.8356301024449" width="10.946341463414633" height="4.629259083261616" fill="#16c784"/><line x1="128.97560975609755" y1="261.0180273899884" x2="128.97560975609755" y2="294.1943841533634" stroke="#16c784" stroke-width="1"/><rect x="123.50243902439024" y="274.59716853105243" width="10.946341463414633" height="11.573147708154067" fill="#16c784"/><line x1="147.21951219512195" y1="252.53105240400873" x2="147.21951219512195" y2="268.57918823232256" stroke="#ea3943" stroke-width="1"/><rect x="141.74634146341464" y="259.62921199200304" width="10.946341463414633" height="5.555167409424257" fill="#ea3943"/><line x1="165.46341463414632" y1="252.83968851272962" x2="165.46341463414632" y2="270.12227459340977" stroke="#16c784" stroke-width="1"/><rect x="159.990243902439" y="261.17229835309024" width="10.946341463414633" height="8.949976240319529" fill="#16c784"/><line x1="183.7073170731707" y1="243.2725342374855" x2="183.7073170731707" y2="262.86974985979646" stroke="#16c784" stroke-width="1"/><rect x="178.2341463414634" y="259.32067006579933" width="10.946341463414633" height="1.8516282872909073" fill="#16c784"/><line x1="201.9512195121951" y1="259.32067006579933" x2="201.9512195121951" y2="259.32067006579933" stroke="#16c784" stroke-width="1"/><rect x="196.4780487804878" y="259.32067006579933" width="10.946341463414633" height="1" fill="#16c784"/><line x1="220.1951219512195" y1="245.5871637791163" x2="220.1951219512195" y2="282.31260033648846" stroke="#ea3943" stroke-width="1"/><rect x="214.7219512195122" y="257.931854667814" width="10.946341463414633" height="14.505049467226627" fill="#ea3943"/><line x1="238.4390243902439" y1="267.34464379743906" x2="238.4390243902439" y2="286.0160452761046" stroke="#ea3943" stroke-width="1"/><rect x="232.9658536585366" y="270.58518166523254" width="10.946341463414633" height="6.172345444348821" fill="#ea3943"/><line x1="256.68292682926824" y1="268.2705521236017" x2="256.68292682926824" y2="293.2685700097179" stroke="#16c784" stroke-width="1"/><rect x="251.20975609756093" y="271.2023597001571" width="10.946341463414633" height="16.665408045755612" fill="#16c784"/><line x1="274.92682926829264" y1="270.2765455565117" x2="274.92682926829264" y2="294.8116563708051" stroke="#ea3943" stroke-width="1"/><rect x="269.4536585365853" y="273.3627182786861" width="10.946341463414633" height="14.505049467226627" fill="#ea3943"/><line x1="293.17073170731703" y1="273.3627182786861" x2="293.17073170731703" y2="299.4409154540667" stroke="#16c784" stroke-width="1"/><rect x="287.6975609756097" y="280.15233594047663" width="10.946341463414633" height="8.641245949081508" fill="#16c784"/><line x1="311.4146341463414" y1="252.22241629528787" x2="311.4146341463414" y2="279.84369983175577" stroke="#16c784" stroke-width="1"/><rect x="305.9414634146341" y="263.79556400344194" width="10.946341463414633" height="12.65332699741856" fill="#16c784"/><line x1="329.6585365853658" y1="274.13426145922966" x2="329.6585365853658" y2="297.8978290929796" stroke="#ea3943" stroke-width="1"/><rect x="324.1853658536585" y="280.76951397540125" width="10.946341463414633" height="12.807597960520354" fill="#ea3943"/><line x1="347.9024390243902" y1="240.80363373275281" x2="347.9024390243902" y2="287.7134026002937" stroke="#16c784" stroke-width="1"/><rect x="342.4292682926829" y="249.29060871873247" width="10.946341463414633" height="36.41680044865126" fill="#16c784"/><line x1="366.1463414634146" y1="232.0080226380523" x2="366.1463414634146" y2="266.41882965379364" stroke="#ea3943" stroke-width="1"/><rect x="360.6731707317073" y="249.29060871873247" width="10.946341463414633" height="12.961868923622262" fill="#ea3943"/><line x1="384.390243902439" y1="261.63529960743017" x2="384.390243902439" y2="282.0039642277676" stroke="#ea3943" stroke-width="1"/><rect x="378.91707317073167" y="267.19037283433727" width="10.946341463414633" height="4.783530046363467" fill="#ea3943"/><line x1="402.6341463414634" y1="212.87371408756405" x2="402.6341463414634" y2="261.63529960743017" stroke="#16c784" stroke-width="1"/><rect x="397.16097560975606" y="223.98395472389538" width="10.946341463414633" height="37.65134488353479" fill="#16c784"/><line x1="420.8780487804878" y1="195.28258608068018" x2="420.8780487804878" y2="225.21840497626172" stroke="#ea3943" stroke-width="1"/><rect x="415.40487804878046" y="200.2203870901455" width="10.946341463414633" height="13.116234069241273" fill="#ea3943"/><line x1="439.12195121951214" y1="206.54709768011338" x2="439.12195121951214" y2="220.43487492989823" stroke="#ea3943" stroke-width="1"/><rect x="433.6487804878048" y="208.5530911130233" width="10.946341463414633" height="6.789617661790601" fill="#ea3943"/><line x1="457.36585365853654" y1="192.19641335850574" x2="457.36585365853654" y2="223.21241154335178" stroke="#16c784" stroke-width="1"/><rect x="451.8926829268292" y="198.3687588028546" width="10.946341463414633" height="16.665313863238424" fill="#16c784"/><line x1="475.60975609756093" y1="165.65530911130233" x2="475.60975609756093" y2="204.84964617340714" stroke="#16c784" stroke-width="1"/><rect x="470.1365853658536" y="171.67328941003214" width="10.946341463414633" height="26.695469392822446" fill="#16c784"/><line x1="493.8536585365853" y1="156.55106190788095" x2="493.8536585365853" y2="177.2284568194564" stroke="#16c784" stroke-width="1"/><rect x="488.380487804878" y="171.05611137510755" width="10.946341463414633" height="1" fill="#16c784"/><line x1="512.0975609756097" y1="162.56913638912792" x2="512.0975609756097" y2="196.20840022432563" stroke="#ea3943" stroke-width="1"/><rect x="506.6243902439023" y="165.34667300258147" width="10.946341463414633" height="9.10424720342138" fill="#ea3943"/><line x1="530.3414634146341" y1="139.42284097281978" x2="530.3414634146341" y2="168.43284572475588" stroke="#16c784" stroke-width="1"/><rect x="524.8682926829267" y="150.07008035481124" width="10.946341463414633" height="18.36276536994464" fill="#16c784"/><line x1="548.5853658536585" y1="62.114157772840315" x2="548.5853658536585" y2="145.28655030844777" stroke="#16c784" stroke-width="1"/><rect x="543.1121951219511" y="77.69938652933143" width="10.946341463414633" height="64.50099105694187" fill="#16c784"/><line x1="566.8292682926829" y1="73.37876355479068" x2="566.8292682926829" y2="114.2705521236017" stroke="#ea3943" stroke-width="1"/><rect x="561.3560975609755" y="78.31656456425603" width="10.946341463414633" height="25.615290103557953" fill="#ea3943"/><line x1="585.0731707317073" y1="103.93185466781398" x2="585.0731707317073" y2="103.93185466781398" stroke="#16c784" stroke-width="1"/><rect x="579.5999999999999" y="103.93185466781398" width="10.946341463414633" height="1" fill="#16c784"/><line x1="603.3170731707316" y1="113.19037283433724" x2="603.3170731707316" y2="140.34865511646527" stroke="#ea3943" stroke-width="1"/><rect x="597.8439024390243" y="128.31260033648843" width="10.946341463414633" height="2.7775366134535773" fill="#ea3943"/><line x1="621.560975609756" y1="107.63520542491298" x2="621.560975609756" y2="138.49693264665714" stroke="#16c784" stroke-width="1"/><rect x="616.0878048780487" y="127.84969326466572" width="10.946341463414633" height="2.1602643960117973" fill="#16c784"/><line x1="639.8048780487804" y1="88.50099105694187" x2="639.8048780487804" y2="125.3806985774159" stroke="#16c784" stroke-width="1"/><rect x="634.3317073170731" y="102.23440316110776" width="10.946341463414633" height="21.14030198339819" fill="#16c784"/><line x1="658.0487804878048" y1="87.4208117676774" x2="658.0487804878048" y2="117.510995808878" stroke="#ea3943" stroke-width="1"/><rect x="652.5756097560975" y="97.45087311474427" width="10.946341463414633" height="13.887777249784875" fill="#ea3943"/><line x1="676.2926829268292" y1="104.70339784835758" x2="676.2926829268292" y2="123.52907029012496" stroke="#ea3943" stroke-width="1"/><rect x="670.8195121951219" y="108.25247764235473" width="10.946341463414633" height="7.561160842334203" fill="#ea3943"/><line x1="694.5365853658536" y1="108.71538471417745" x2="694.5365853658536" y2="127.6953281190467" stroke="#16c784" stroke-width="1"/><rect x="689.0634146341463" y="122.14025489213961" width="10.946341463414633" height="1.5430863610872052" fill="#16c784"/><line x1="712.780487804878" y1="113.49900894305813" x2="712.780487804878" y2="135.10221799827903" stroke="#ea3943" stroke-width="1"/><rect x="707.3073170731707" y="122.14025489213961" width="10.946341463414633" height="4.783530046363467" fill="#ea3943"/><line x1="731.0243902439024" y1="127.6953281190467" x2="731.0243902439024" y2="159.79159977567437" stroke="#ea3943" stroke-width="1"/><rect x="725.5512195121951" y="131.86168013048558" width="10.946341463414633" height="20.368758802854586" fill="#ea3943"/><line x1="749.2682926829268" y1="109.79556400344197" x2="749.2682926829268" y2="153.61925433132552" stroke="#16c784" stroke-width="1"/><rect x="743.7951219512195" y="122.4488910008605" width="10.946341463414633" height="28.23846157139249" fill="#16c784"/><line x1="767.5121951219512" y1="92.05007085093905" x2="767.5121951219512" y2="118.74544606124434" stroke="#16c784" stroke-width="1"/><rect x="762.0390243902439" y="103.46894759599124" width="10.946341463414633" height="12.807597960520411" fill="#16c784"/><line x1="785.7560975609756" y1="24" x2="785.7560975609756" y2="98.37668725838972" stroke="#16c784" stroke-width="1"/><rect x="780.2829268292683" y="38.196319175988606" width="10.946341463414633" height="59.408824901857514" fill="#16c784"/><line x1="803.9999999999999" y1="38.96786235653218" x2="803.9999999999999" y2="70.90976886754089" stroke="#ea3943" stroke-width="1"/><rect x="798.5268292682925" y="38.96786235653218" width="10.946341463414633" height="11.418876745052216" fill="#ea3943"/><text x="56" y="16" fill="#cdd6e8" font-size="13">Candlestick · last 42 sessions</text></svg>