<svg xmlns="http://www.w3.org/2000/svg" width="820" height="360" viewBox="0 0 820 360"><rect x="0" y="0" width="820" height="360" fill="#0b0f1a"/><line x1="56" y1="24" x2="804" y2="24" stroke="#1c2434"/><text x="50" y="28" fill="#7f8aa3" font-size="11" text-anchor="end">1328</text><line x1="56" y1="101" x2="804" y2="101" stroke="#1c2434"/><text x="50" y="105" fill="#7f8aa3" font-size="11" text-anchor="end">1298.67</text><line x1="56" y1="178" x2="804" y2="178" stroke="#1c2434"/><text x="50" y="182" fill="#7f8aa3" font-size="11" text-anchor="end">1269.35</text><line x1="56" y1="255" x2="804" y2="255" stroke="#1c2434"/><text x="50" y="259" fill="#7f8aa3" font-size="11" text-anchor="end">1240.02</text><line x1="56" y1="332" x2="804" y2="332" stroke="#1c2434"/><text x="50" y="336" fill="#7f8aa3" font-size="11" text-anchor="end">1210.7</text><line x1="56" y1="92.26936629611978" x2="56" y2="207.0142883605537" stroke="#16c784" stroke-width="1"/><rect x="50.65714285714286" y="116.42609077531787" width="10.685714285714285" height="33.60966238674939" fill="#16c784"/><line x1="73.80952380952381" y1="98.30870767866693" x2="73.80952380952381" y2="142.94637025689912" stroke="#ea3943" stroke-width="1"/><rect x="68.46666666666667" y="102.77234572629203" width="10.685714285714285" height="33.60966238674939" fill="#ea3943"/><line x1="91.61904761904762" y1="126.40404944417966" x2="91.61904761904762" y2="198.61203302661403" stroke="#16c784" stroke-width="1"/><rect x="86.27619047619048" y="141.63349782812756" width="10.685714285714285" height="13.653745049025844" fill="#16c784"/><line x1="109.42857142857143" y1="115.90107001400739" x2="109.42857142857143" y2="168.94098792617925" stroke="#ea3943" stroke-width="1"/><rect x="104.08571428571429" y="115.90107001400739" width="10.685714285714285" height="30.721086623055754" fill="#ea3943"/><line x1="127.23809523809524" y1="124.04081496729185" x2="127.23809523809524" y2="155.02473249649816" stroke="#16c784" stroke-width="1"/><rect x="121.8952380952381" y="135.59415644558038" width="10.685714285714285" height="3.413596525004124" fill="#16c784"/><line x1="145.04761904761904" y1="104.3477285357188" x2="145.04761904761904" y2="139.532773731895" stroke="#ea3943" stroke-width="1"/><rect x="139.70476190476188" y="121.94041139655454" width="10.685714285714285" height="3.4132759995088406" fill="#ea3943"/><line x1="162.85714285714286" y1="94.89511115366281" x2="162.85714285714286" y2="142.94637025689912" stroke="#16c784" stroke-width="1"/><rect x="157.5142857142857" y="114.32568720458059" width="10.685714285714285" height="11.02800019148279" fill="#16c784"/><line x1="180.66666666666669" y1="24" x2="180.66666666666669" y2="110.64958029892125" stroke="#16c784" stroke-width="1"/><rect x="175.32380952380953" y="73.10130062585728" width="10.685714285714285" height="37.54827967306397" fill="#16c784"/><line x1="198.47619047619048" y1="73.10130062585728" x2="198.47619047619048" y2="73.10130062585728" stroke="#16c784" stroke-width="1"/><rect x="193.13333333333333" y="73.10130062585728" width="10.685714285714285" height="1" fill="#16c784"/><line x1="216.28571428571428" y1="65.48689695937861" x2="216.28571428571428" y2="175.5053500700369" stroke="#ea3943" stroke-width="1"/><rect x="210.94285714285712" y="72.57627986454679" width="10.685714285714285" height="82.71096301260661" fill="#ea3943"/><line x1="234.0952380952381" y1="84.91715248480105" x2="234.0952380952381" y2="151.3486255908388" stroke="#16c784" stroke-width="1"/><rect x="228.75238095238095" y="99.09623882063269" width="10.685714285714285" height="52.2523867702061" fill="#16c784"/><line x1="251.90476190476193" y1="53.145703813628984" x2="251.90476190476193" y2="123.2532838253261" stroke="#16c784" stroke-width="1"/><rect x="246.56190476190477" y="69.16268333954264" width="10.685714285714285" height="34.92253481552095" fill="#16c784"/><line x1="269.7142857142857" y1="48.94457614665913" x2="269.7142857142857" y2="104.61023891637407" stroke="#ea3943" stroke-width="1"/><rect x="264.37142857142857" y="58.13468314805988" width="10.685714285714285" height="5.51400009574138" fill="#ea3943"/><line x1="287.5238095238095" y1="60.76042800560299" x2="287.5238095238095" y2="112.75030439515382" stroke="#ea3943" stroke-width="1"/><rect x="282.18095238095236" y="68.63766257823215" width="10.685714285714285" height="25.994938194775443" fill="#ea3943"/><line x1="305.33333333333337" y1="71.78842819708575" x2="305.33333333333337" y2="185.48330873889867" stroke="#ea3943" stroke-width="1"/><rect x="299.9904761904762" y="94.6326007730076" width="10.685714285714285" height="44.900172958887396" fill="#ea3943"/><line x1="323.14285714285717" y1="168.41596716486876" x2="323.14285714285717" y2="215.67937460064397" stroke="#ea3943" stroke-width="1"/><rect x="317.8" y="176.29320173749795" width="10.685714285714285" height="24.419555385348644" fill="#ea3943"/><line x1="340.95238095238096" y1="168.41596716486876" x2="340.95238095238096" y2="210.1653745049026" stroke="#ea3943" stroke-width="1"/><rect x="335.6095238095238" y="189.42192602521328" width="10.685714285714285" height="8.665086240090233" fill="#ea3943"/><line x1="358.76190476190476" y1="118.52681487155047" x2="358.76190476190476" y2="222.24373674450163" stroke="#16c784" stroke-width="1"/><rect x="353.4190476190476" y="176.81822249880844" width="10.685714285714285" height="9.977958668861788" fill="#16c784"/><line x1="376.57142857142856" y1="114.85070796589108" x2="376.57142857142856" y2="199.92490545538556" stroke="#16c784" stroke-width="1"/><rect x="371.2285714285714" y="143.9964117795201" width="10.685714285714285" height="42.79976938815014" fill="#16c784"/><line x1="394.3809523809524" y1="83.07925929471901" x2="394.3809523809524" y2="136.6445184936967" stroke="#ea3943" stroke-width="1"/><rect x="389.03809523809525" y="102.77234572629203" width="10.685714285714285" height="1.050362048116284" fill="#ea3943"/><line x1="412.1904761904762" y1="44.48093809903406" x2="412.1904761904762" y2="112.75030439515382" stroke="#ea3943" stroke-width="1"/><rect x="406.84761904761905" y="64.4365349112623" width="10.685714285714285" height="42.27442810134437" fill="#ea3943"/><line x1="430" y1="90.95649386734823" x2="430" y2="178.918946595041" stroke="#ea3943" stroke-width="1"/><rect x="424.65714285714284" y="97.5208560112059" width="10.685714285714285" height="67.48151462865874" fill="#ea3943"/><line x1="447.80952380952385" y1="125.0911770154081" x2="447.80952380952385" y2="178.65643621438576" stroke="#16c784" stroke-width="1"/><rect x="442.4666666666667" y="131.1305183979553" width="10.685714285714285" height="18.905234764111952" fill="#16c784"/><line x1="465.61904761904765" y1="105.39809058383511" x2="465.61904761904765" y2="139.27026335123972" stroke="#16c784" stroke-width="1"/><rect x="460.2761904761905" y="113.53783553711958" width="10.685714285714285" height="15.49195876460314" fill="#16c784"/><line x1="483.42857142857144" y1="110.64958029892125" x2="483.42857142857144" y2="183.9079259294719" stroke="#ea3943" stroke-width="1"/><rect x="478.0857142857143" y="126.40404944417966" width="10.685714285714285" height="3.4135965250040954" fill="#ea3943"/><line x1="501.23809523809524" y1="105.66060096449036" x2="501.23809523809524" y2="163.1644774497826" stroke="#ea3943" stroke-width="1"/><rect x="495.8952380952381" y="123.77830458663658" width="10.685714285714285" height="19.955596812228265" fill="#ea3943"/><line x1="519.047619047619" y1="154.2368808290371" x2="519.047619047619" y2="272.39539941847517" stroke="#ea3943" stroke-width="1"/><rect x="513.7047619047619" y="176.29320173749795" width="10.685714285714285" height="72.9958352498954" fill="#ea3943"/><line x1="536.8571428571429" y1="242.1993335567299" x2="536.8571428571429" y2="302.3289548995652" stroke="#ea3943" stroke-width="1"/><rect x="531.5142857142857" y="255.06554746378998" width="10.685714285714285" height="23.106682956577117" fill="#ea3943"/><line x1="554.6666666666667" y1="258.74165436944935" x2="554.6666666666667" y2="296.8149548038238" stroke="#16c784" stroke-width="1"/><rect x="549.3238095238096" y="278.6972511816776" width="10.685714285714285" height="16.54232081271948" fill="#16c784"/><line x1="572.4761904761905" y1="278.6972511816776" x2="572.4761904761905" y2="278.6972511816776" stroke="#16c784" stroke-width="1"/><rect x="567.1333333333333" y="278.6972511816776" width="10.685714285714285" height="1" fill="#16c784"/><line x1="590.2857142857143" y1="226.97020569827725" x2="590.2857142857143" y2="290.2505926599662" stroke="#ea3943" stroke-width="1"/><rect x="584.9428571428572" y="257.69129232133304" width="10.685714285714285" height="17.329851954685182" fill="#ea3943"/><line x1="608.0952380952381" y1="258.4791439887941" x2="608.0952380952381" y2="303.6418273283367" stroke="#ea3943" stroke-width="1"/><rect x="602.7523809523809" y="276.07150632413453" width="10.685714285714285" height="14.704107097142128" fill="#ea3943"/><line x1="625.9047619047619" y1="276.33401670478975" x2="625.9047619047619" y2="332" stroke="#ea3943" stroke-width="1"/><rect x="620.5619047619048" y="282.37335808733695" width="10.685714285714285" height="35.18504519617619" fill="#ea3943"/><line x1="643.7142857142858" y1="270.2949958477379" x2="643.7142857142858" y2="315.1951688066253" stroke="#ea3943" stroke-width="1"/><rect x="638.3714285714286" y="291.8259754693929" width="10.685714285714285" height="5.776510476396652" fill="#ea3943"/><line x1="661.5238095238095" y1="241.41180241476417" x2="661.5238095238095" y2="291.5634650887377" stroke="#ea3943" stroke-width="1"/><rect x="656.1809523809524" y="276.07150632413453" width="10.685714285714285" height="4.726468953775623" fill="#ea3943"/><line x1="679.3333333333334" y1="243.24969560484618" x2="679.3333333333334" y2="293.4013582788197" stroke="#16c784" stroke-width="1"/><rect x="673.9904761904762" y="246.66329212985028" width="10.685714285714285" height="34.65970390937042" fill="#16c784"/><line x1="697.1428571428571" y1="221.4558850770406" x2="697.1428571428571" y2="304.42967899579776" stroke="#16c784" stroke-width="1"/><rect x="691.8" y="238.2607162704153" width="10.685714285714285" height="27.30781062354697" fill="#16c784"/><line x1="714.952380952381" y1="239.83609907984209" x2="714.952380952381" y2="328.0613827136854" stroke="#ea3943" stroke-width="1"/><rect x="709.6095238095238" y="278.6972511816776" width="10.685714285714285" height="30.196065861745296" fill="#ea3943"/><line x1="732.7619047619048" y1="253.75267503501846" x2="732.7619047619048" y2="306.7925929471903" stroke="#16c784" stroke-width="1"/><rect x="727.4190476190477" y="292.35099623070346" width="10.685714285714285" height="4.726468953775623" fill="#16c784"/><line x1="750.5714285714286" y1="205.1763951704717" x2="750.5714285714286" y2="275.2836546566735" stroke="#16c784" stroke-width="1"/><rect x="745.2285714285714" y="240.88646112795834" width="10.685714285714285" height="34.39719352871515" fill="#16c784"/><line x1="768.3809523809524" y1="254.80303708313474" x2="768.3809523809524" y2="306.53008256653504" stroke="#16c784" stroke-width="1"/><rect x="763.0380952380953" y="261.8924199883029" width="10.685714285714285" height="5.776831001891935" fill="#16c784"/><line x1="786.1904761904763" y1="216.20439536195445" x2="786.1904761904763" y2="294.18920994628076" stroke="#16c784" stroke-width="1"/><rect x="780.8476190476191" y="234.84744027090647" width="10.685714285714285" height="59.34176967537428" fill="#16c784"/><line x1="804" y1="221.9812263638464" x2="804" y2="294.71423070759124" stroke="#ea3943" stroke-width="1"/><rect x="798.6571428571428" y="229.85846093647558" width="10.685714285714285" height="59.60428005602955" fill="#ea3943"/><text x="56" y="16" fill="#cdd6e8" font-size="13">Candlestick · last 43 sessions</text></svg>