<svg xmlns="http://www.w3.org/2000/svg" width="820" height="360" viewBox="0 0 820 360"><rect x="0" y="0" width="820" height="360" fill="#0b0f1a"/><line x1="56" y1="24" x2="804" y2="24" stroke="#1c2434"/><text x="50" y="28" fill="#7f8aa3" font-size="11" text-anchor="end">220.72</text><line x1="56" y1="101" x2="804" y2="101" stroke="#1c2434"/><text x="50" y="105" fill="#7f8aa3" font-size="11" text-anchor="end">210.62</text><line x1="56" y1="178" x2="804" y2="178" stroke="#1c2434"/><text x="50" y="182" fill="#7f8aa3" font-size="11" text-anchor="end">200.53</text><line x1="56" y1="255" x2="804" y2="255" stroke="#1c2434"/><text x="50" y="259" fill="#7f8aa3" font-size="11" text-anchor="end">190.43</text><line x1="56" y1="332" x2="804" y2="332" stroke="#1c2434"/><text x="50" y="336" fill="#7f8aa3" font-size="11" text-anchor="end">180.33</text><line x1="56" y1="243.00867812945904" x2="56" y2="332" stroke="#ea3943" stroke-width="1"/><rect x="-0.10000000000000142" y="273.5112782437772" width="112.2" height="38.280795723761116" fill="#ea3943"/><line x1="243" y1="151.50087778650465" x2="243" y2="288.7625783009363" stroke="#16c784" stroke-width="1"/><rect x="186.9" y="222.34311535440702" width="112.2" height="66.41946294652928" fill="#16c784"/><line x1="430" y1="24" x2="430" y2="204.88042798656136" stroke="#16c784" stroke-width="1"/><rect x="373.9" y="108.9497366640486" width="112.2" height="90.59275957414417" fill="#16c784"/><line x1="617" y1="50.613560488689245" x2="617" y2="158.05894146541044" stroke="#ea3943" stroke-width="1"/><rect x="560.9" y="109.71234821018066" width="112.2" height="31.95149223705789" fill="#ea3943"/><line x1="804" y1="106.96710954556463" x2="804" y2="199.92380201125877" stroke="#16c784" stroke-width="1"/><rect x="747.9" y="143.41770737351996" width="112.2" height="1" fill="#16c784"/><text x="56" y="16" fill="#cdd6e8" font-size="13">Candlestick · last 5 sessions</text></svg>