<svg xmlns="http://www.w3.org/2000/svg" width="680" height="300" viewBox="0 0 680 300"><rect x="0" y="0" width="680" height="300" fill="#0b0f1a"/><line x1="56" y1="24" x2="664" y2="24" stroke="#1c2434"/><text x="50" y="28" fill="#7f8aa3" font-size="11" text-anchor="end">1371.1</text><line x1="56" y1="86" x2="664" y2="86" stroke="#1c2434"/><text x="50" y="90" fill="#7f8aa3" font-size="11" text-anchor="end">1341.62</text><line x1="56" y1="148" x2="664" y2="148" stroke="#1c2434"/><text x="50" y="152" fill="#7f8aa3" font-size="11" text-anchor="end">1312.15</text><line x1="56" y1="210" x2="664" y2="210" stroke="#1c2434"/><text x="50" y="214" fill="#7f8aa3" font-size="11" text-anchor="end">1282.67</text><line x1="56" y1="272" x2="664" y2="272" stroke="#1c2434"/><text x="50" y="276" fill="#7f8aa3" font-size="11" text-anchor="end">1253.2</text><line x1="56" y1="85.21113189906785" x2="56" y2="134.22225075245615" stroke="#16c784" stroke-width="1"/><rect x="51.85454545454545" y="98.0422907799142" width="8.290909090909091" height="3.9966578211437422" fill="#16c784"/><line x1="69.81818181818181" y1="81.00417772357031" x2="69.81818181818181" y2="134.85313981551752" stroke="#ea3943" stroke-width="1"/><rect x="65.67272727272727" y="92.15270899748094" width="8.290909090909091" height="33.655633403980175" fill="#ea3943"/><line x1="83.63636363636364" y1="41.24840941069766" x2="83.63636363636364" y2="147.05340963330252" stroke="#16c784" stroke-width="1"/><rect x="79.4909090909091" y="47.97969015475695" width="8.290909090909091" height="86.2425605976992" fill="#16c784"/><line x1="97.45454545454545" y1="24.420592708707574" x2="97.45454545454545" y2="78.48010792711398" stroke="#ea3943" stroke-width="1"/><rect x="93.30909090909091" y="32.20361199664126" width="8.290909090909091" height="37.0211453899571" fill="#ea3943"/><line x1="111.27272727272728" y1="31.78276251582824" x2="111.27272727272728" y2="70.27649593047275" stroke="#16c784" stroke-width="1"/><rect x="107.12727272727274" y="58.91766830220834" width="8.290909090909091" height="9.465646894869423" fill="#16c784"/><line x1="125.0909090909091" y1="24" x2="125.0909090909091" y2="53.65897558283643" stroke="#16c784" stroke-width="1"/><rect x="120.94545454545455" y="32.62420470534883" width="8.290909090909091" height="1" fill="#16c784"/><line x1="138.9090909090909" y1="29.46898907372568" x2="138.9090909090909" y2="63.33491883205966" stroke="#ea3943" stroke-width="1"/><rect x="134.76363636363635" y="47.13824796523636" width="8.290909090909091" height="7.99305887018204" fill="#ea3943"/><line x1="152.72727272727275" y1="45.245067231841404" x2="152.72727272727275" y2="71.32823447434711" stroke="#ea3943" stroke-width="1"/><rect x="148.5818181818182" y="62.07288393383149" width="8.290909090909091" height="5.258692719371908" fill="#ea3943"/><line x1="166.54545454545456" y1="67.3315766532034" x2="166.54545454545456" y2="67.3315766532034" stroke="#16c784" stroke-width="1"/><rect x="162.4" y="67.3315766532034" width="8.290909090909091" height="1" fill="#16c784"/><line x1="180.36363636363637" y1="28.417250529851316" x2="180.36363636363637" y2="137.79805909278687" stroke="#ea3943" stroke-width="1"/><rect x="176.21818181818182" y="38.93463596859513" width="8.290909090909091" height="90.02892206448914" fill="#ea3943"/><line x1="194.1818181818182" y1="98.88373296943479" x2="194.1818181818182" y2="134.64284346116375" stroke="#ea3943" stroke-width="1"/><rect x="190.03636363636363" y="105.19416423268109" width="8.290909090909091" height="26.29346359685951" fill="#ea3943"/><line x1="208" y1="115.08040383625809" x2="208" y2="172.926023749349" stroke="#16c784" stroke-width="1"/><rect x="203.85454545454544" y="142.84645545780498" width="8.290909090909091" height="14.514043259887558" fill="#16c784"/><line x1="221.8181818181818" y1="123.07371947854554" x2="221.8181818181818" y2="171.45369249676708" stroke="#ea3943" stroke-width="1"/><rect x="217.67272727272726" y="142.0050132682844" width="8.290909090909091" height="3.7863614667899412" fill="#ea3943"/><line x1="235.63636363636363" y1="149.99832891057184" x2="235.63636363636363" y2="188.07121284440336" stroke="#16c784" stroke-width="1"/><rect x="231.49090909090907" y="165.7744070686876" width="8.290909090909091" height="5.679285428079481" fill="#16c784"/><line x1="249.45454545454547" y1="160.93630705802326" x2="249.45454545454547" y2="198.79889463750095" stroke="#ea3943" stroke-width="1"/><rect x="245.3090909090909" y="164.09152268964638" width="8.290909090909091" height="28.396940684608268" fill="#ea3943"/><line x1="263.27272727272725" y1="210.15772226576536" x2="263.27272727272725" y2="259.37913747350746" stroke="#ea3943" stroke-width="1"/><rect x="259.1272727272727" y="221.9371426027373" width="8.290909090909091" height="28.81753339331584" fill="#ea3943"/><line x1="277.0909090909091" y1="227.826981157276" x2="277.0909090909091" y2="262.95494581383815" stroke="#16c784" stroke-width="1"/><rect x="272.9454545454546" y="238.34436659601982" width="8.290909090909091" height="1" fill="#16c784"/><line x1="290.9090909090909" y1="172.50543104064144" x2="290.9090909090909" y2="269.4756734314382" stroke="#ea3943" stroke-width="1"/><rect x="286.76363636363635" y="226.14409677823483" width="8.290909090909091" height="34.07622611268778" fill="#ea3943"/><line x1="304.72727272727275" y1="224.04061969048607" x2="304.72727272727275" y2="272" stroke="#16c784" stroke-width="1"/><rect x="300.5818181818182" y="251.38582183121997" width="8.290909090909091" height="10.517385438743815" fill="#16c784"/><line x1="318.54545454545456" y1="179.8676008477621" x2="318.54545454545456" y2="252.43756037509434" stroke="#16c784" stroke-width="1"/><rect x="314.40000000000003" y="188.28150919875713" width="8.290909090909091" height="33.655633403980175" fill="#16c784"/><line x1="332.3636363636364" y1="120.97024239079678" x2="332.3636363636364" y2="166.61559248610274" stroke="#ea3943" stroke-width="1"/><rect x="328.21818181818185" y="141.3738674331176" width="8.290909090909091" height="17.45896253715688" fill="#ea3943"/><line x1="346.1818181818182" y1="103.3009834992861" x2="346.1818181818182" y2="160.09486486850267" stroke="#16c784" stroke-width="1"/><rect x="342.03636363636366" y="112.97692674850933" width="8.290909090909091" height="32.39359850575198" fill="#16c784"/><line x1="360" y1="102.03894860105794" x2="360" y2="137.79805909278687" stroke="#ea3943" stroke-width="1"/><rect x="355.8545454545455" y="104.1424256888067" width="8.290909090909091" height="1" fill="#ea3943"/><line x1="373.8181818181818" y1="102.24924495541171" x2="373.8181818181818" y2="127.28067365404308" stroke="#ea3943" stroke-width="1"/><rect x="369.6727272727273" y="110.452856952053" width="8.290909090909091" height="3.996657821143714" fill="#ea3943"/><line x1="387.6363636363636" y1="93.20444754135531" x2="387.6363636363636" y2="162.40863831060523" stroke="#ea3943" stroke-width="1"/><rect x="383.4909090909091" y="114.65981112755051" width="8.290909090909091" height="38.91432612335208" fill="#ea3943"/><line x1="401.45454545454544" y1="79.11099699017535" x2="401.45454545454544" y2="143.89819400167937" stroke="#16c784" stroke-width="1"/><rect x="397.3090909090909" y="117.81502675917363" width="8.290909090909091" height="20.614178168780057" fill="#16c784"/><line x1="415.27272727272725" y1="104.1424256888067" x2="415.27272727272725" y2="165.14326123352078" stroke="#ea3943" stroke-width="1"/><rect x="411.1272727272727" y="112.76663039415556" width="8.290909090909091" height="40.80750685674704" fill="#ea3943"/><line x1="429.0909090909091" y1="127.28067365404308" x2="429.0909090909091" y2="178.81586230388774" stroke="#16c784" stroke-width="1"/><rect x="424.9454545454546" y="144.94993254555374" width="8.290909090909091" height="16.617520347636315" fill="#16c784"/><line x1="442.90909090909093" y1="114.65981112755051" x2="442.90909090909093" y2="142.84645545780498" stroke="#16c784" stroke-width="1"/><rect x="438.7636363636364" y="135.48428565068434" width="8.290909090909091" height="1" fill="#16c784"/><line x1="456.72727272727275" y1="135.48428565068434" x2="456.72727272727275" y2="135.48428565068434" stroke="#16c784" stroke-width="1"/><rect x="452.5818181818182" y="135.48428565068434" width="8.290909090909091" height="1" fill="#16c784"/><line x1="470.54545454545456" y1="144.73963619119996" x2="470.54545454545456" y2="189.12295138827773" stroke="#ea3943" stroke-width="1"/><rect x="466.40000000000003" y="156.72935288252575" width="8.290909090909091" height="14.72433961424133" fill="#ea3943"/><line x1="484.3636363636364" y1="159.04312632462828" x2="484.3636363636364" y2="194.59194046200344" stroke="#ea3943" stroke-width="1"/><rect x="480.21818181818185" y="159.04312632462828" width="8.290909090909091" height="27.345202140733903" fill="#ea3943"/><line x1="498.1818181818182" y1="147.8948518228231" x2="498.1818181818182" y2="180.91933939163647" stroke="#16c784" stroke-width="1"/><rect x="494.03636363636366" y="156.72935288252575" width="8.290909090909091" height="19.141590144092618" fill="#16c784"/><line x1="512" y1="145.79137473507433" x2="512" y2="175.6606466722646" stroke="#ea3943" stroke-width="1"/><rect x="507.8545454545455" y="152.5223987070282" width="8.290909090909091" height="13.672601070366937" fill="#ea3943"/><line x1="525.8181818181818" y1="148.3154445315307" x2="525.8181818181818" y2="169.3502154090183" stroke="#ea3943" stroke-width="1"/><rect x="521.6727272727272" y="148.3154445315307" width="8.290909090909091" height="16.827816701990088" fill="#ea3943"/><line x1="539.6363636363636" y1="119.70820749256862" x2="539.6363636363636" y2="174.819204482744" stroke="#16c784" stroke-width="1"/><rect x="535.4909090909091" y="128.75300490662502" width="8.290909090909091" height="36.39025632689575" fill="#16c784"/><line x1="553.4545454545455" y1="114.65981112755051" x2="553.4545454545455" y2="164.93296487916697" stroke="#ea3943" stroke-width="1"/><rect x="549.309090909091" y="124.12545802241993" width="8.290909090909091" height="31.76245267058519" fill="#ea3943"/><line x1="567.2727272727273" y1="168.71906957385147" x2="567.2727272727273" y2="233.29597023100172" stroke="#ea3943" stroke-width="1"/><rect x="563.1272727272727" y="179.8676008477621" width="8.290909090909091" height="44.38331519707776" fill="#ea3943"/><line x1="581.0909090909091" y1="180.91933939163647" x2="581.0909090909091" y2="227.826981157276" stroke="#16c784" stroke-width="1"/><rect x="576.9454545454546" y="216.0473040481986" width="8.290909090909091" height="5.679542200184926" fill="#16c784"/><line x1="594.9090909090909" y1="150.20862526492567" x2="594.9090909090909" y2="199.21948734620852" stroke="#16c784" stroke-width="1"/><rect x="590.7636363636364" y="157.1499455912333" width="8.290909090909091" height="33.4453370496264" fill="#16c784"/><line x1="608.7272727272727" y1="160.09486486850267" x2="608.7272727272727" y2="184.07455502325962" stroke="#ea3943" stroke-width="1"/><rect x="604.5818181818182" y="173.5571695845158" width="8.290909090909091" height="6.520727617600073" fill="#ea3943"/><line x1="622.5454545454545" y1="156.72935288252575" x2="622.5454545454545" y2="201.1126680796035" stroke="#16c784" stroke-width="1"/><rect x="618.4" y="188.28150919875713" width="8.290909090909091" height="6.310431263246301" fill="#16c784"/><line x1="636.3636363636364" y1="150.62921797363322" x2="636.3636363636364" y2="185.96773575665458" stroke="#16c784" stroke-width="1"/><rect x="632.2181818181818" y="183.02281647938526" width="8.290909090909091" height="2.944919277269321" fill="#16c784"/><line x1="650.1818181818182" y1="153.78443360525637" x2="650.1818181818182" y2="190.80557899521347" stroke="#16c784" stroke-width="1"/><rect x="646.0363636363637" y="180.7090430372827" width="8.290909090909091" height="2.3137734421025584" fill="#16c784"/><line x1="664" y1="122.02198093467118" x2="664" y2="181.76078158115706" stroke="#16c784" stroke-width="1"/><rect x="659.8545454545455" y="126.64952781887627" width="8.290909090909091" height="46.90764176563954" fill="#16c784"/><text x="56" y="16" fill="#cdd6e8" font-size="13">Candlestick · last 45 sessions</text></svg>