<svg xmlns="http://www.w3.org/2000/svg" width="820" height="360" viewBox="0 0 820 360"><rect x="0" y="0" width="820" height="360" fill="#0b0f1a"/><line x1="56" y1="24" x2="804" y2="24" stroke="#1c2434"/><text x="50" y="28" fill="#7f8aa3" font-size="11" text-anchor="end">1371.1</text><line x1="56" y1="101" x2="804" y2="101" stroke="#1c2434"/><text x="50" y="105" fill="#7f8aa3" font-size="11" text-anchor="end">1341.62</text><line x1="56" y1="178" x2="804" y2="178" stroke="#1c2434"/><text x="50" y="182" fill="#7f8aa3" font-size="11" text-anchor="end">1312.15</text><line x1="56" y1="255" x2="804" y2="255" stroke="#1c2434"/><text x="50" y="259" fill="#7f8aa3" font-size="11" text-anchor="end">1282.67</text><line x1="56" y1="332" x2="804" y2="332" stroke="#1c2434"/><text x="50" y="336" fill="#7f8aa3" font-size="11" text-anchor="end">1253.2</text><line x1="56" y1="100.02027671335844" x2="56" y2="160.88892432159875" stroke="#16c784" stroke-width="1"/><rect x="50.65714285714286" y="115.95574822666762" width="10.685714285714285" height="4.963591164968875" fill="#16c784"/><line x1="73.80952380952381" y1="94.79551104378893" x2="73.80952380952381" y2="161.6724478354008" stroke="#ea3943" stroke-width="1"/><rect x="68.46666666666667" y="108.64126762590377" width="10.685714285714285" height="41.798125356556" fill="#ea3943"/><line x1="91.61904761904762" y1="45.42141168747935" x2="91.61904761904762" y2="176.82439583490796" stroke="#16c784" stroke-width="1"/><rect x="86.27619047619048" y="53.781228095423955" width="10.685714285714285" height="107.1076962261748" fill="#16c784"/><line x1="109.42857142857143" y1="24.52234900920132" x2="109.42857142857143" y2="91.66077919980285" stroke="#ea3943" stroke-width="1"/><rect x="104.08571428571429" y="34.188356834538354" width="10.685714285714285" height="45.9778741133338" fill="#ea3943"/><line x1="127.23809523809524" y1="33.665688930947965" x2="127.23809523809524" y2="81.47242236526455" stroke="#16c784" stroke-width="1"/><rect x="121.8952380952381" y="67.36549127854909" width="10.685714285714285" height="11.755722756531355" fill="#16c784"/><line x1="145.04761904761904" y1="24" x2="145.04761904761904" y2="60.83453419158718" stroke="#16c784" stroke-width="1"/><rect x="139.70476190476188" y="34.710705843739674" width="10.685714285714285" height="1" fill="#16c784"/><line x1="162.85714285714286" y1="30.792131591562566" x2="162.85714285714286" y2="72.85143145271923" stroke="#ea3943" stroke-width="1"/><rect x="157.5142857142857" y="52.736211182632246" width="10.685714285714285" height="9.926863435548682" fill="#ea3943"/><line x1="180.66666666666669" y1="50.38500285244817" x2="180.66666666666669" y2="82.77861378265689" stroke="#ea3943" stroke-width="1"/><rect x="175.32380952380953" y="71.2840655307262" width="10.685714285714285" height="6.530957086961905" fill="#ea3943"/><line x1="198.47619047619048" y1="77.8150226176881" x2="198.47619047619048" y2="77.8150226176881" stroke="#16c784" stroke-width="1"/><rect x="193.13333333333333" y="77.8150226176881" width="10.685714285714285" height="1" fill="#16c784"/><line x1="216.28571428571428" y1="29.485940174170196" x2="216.28571428571428" y2="165.32984758297724" stroke="#ea3943" stroke-width="1"/><rect x="210.94285714285712" y="42.54785434809395" width="10.685714285714285" height="111.81011288654295" fill="#ea3943"/><line x1="234.0952380952381" y1="117.00076513945933" x2="234.0952380952381" y2="161.41127333080013" stroke="#ea3943" stroke-width="1"/><rect x="228.75238095238095" y="124.83791364381361" width="10.685714285714285" height="32.654785434809384" fill="#ea3943"/><line x1="251.90476190476193" y1="137.11598540954634" x2="251.90476190476193" y2="208.956513366127" stroke="#16c784" stroke-width="1"/><rect x="246.56190476190477" y="171.59963016533845" width="10.685714285714285" height="18.0255053388926" fill="#16c784"/><line x1="269.7142857142857" y1="147.04316773948398" x2="269.7142857142857" y2="207.12797293953327" stroke="#ea3943" stroke-width="1"/><rect x="264.37142857142857" y="170.55461325254674" width="10.685714285714285" height="4.702416660368158" fill="#ea3943"/><line x1="287.5238095238095" y1="180.4817955824844" x2="287.5238095238095" y2="227.76586111321063" stroke="#16c784" stroke-width="1"/><rect x="282.18095238095236" y="200.07466684337004" width="10.685714285714285" height="7.053306096163226" fill="#16c784"/><line x1="305.33333333333337" y1="194.0660587656095" x2="305.33333333333337" y2="241.08894979173505" stroke="#ea3943" stroke-width="1"/><rect x="299.9904761904762" y="197.98463301778665" width="10.685714285714285" height="35.26716826959412" fill="#ea3943"/><line x1="323.14285714285717" y1="255.1958808784505" x2="323.14285714285717" y2="316.3257029912915" stroke="#ea3943" stroke-width="1"/><rect x="317.8" y="269.8251609743673" width="10.685714285714285" height="35.78951727879553" fill="#ea3943"/><line x1="340.95238095238096" y1="277.13996046952025" x2="340.95238095238096" y2="320.76662625266994" stroke="#16c784" stroke-width="1"/><rect x="335.6095238095238" y="290.201874643444" width="10.685714285714285" height="1" fill="#16c784"/><line x1="358.76190476190476" y1="208.43416435692566" x2="358.76190476190476" y2="328.8649492616249" stroke="#ea3943" stroke-width="1"/><rect x="353.4190476190476" y="275.04992664393683" width="10.685714285714285" height="42.32047436575738" fill="#ea3943"/><line x1="376.57142857142856" y1="272.4375438091521" x2="376.57142857142856" y2="332" stroke="#16c784" stroke-width="1"/><rect x="371.2285714285714" y="306.3985206613538" width="10.685714285714285" height="13.061914173923753" fill="#16c784"/><line x1="394.3809523809524" y1="217.57750427867228" x2="394.3809523809524" y2="307.7047120787462" stroke="#16c784" stroke-width="1"/><rect x="389.03809523809525" y="228.0270356178113" width="10.685714285714285" height="41.798125356556" fill="#16c784"/><line x1="412.1904761904762" y1="144.43078490469924" x2="412.1904761904762" y2="201.11936486177274" stroke="#ea3943" stroke-width="1"/><rect x="406.84761904761905" y="169.77077084435572" width="10.685714285714285" height="21.68290508646905" fill="#ea3943"/><line x1="430" y1="122.48670531362953" x2="430" y2="193.0210418528178" stroke="#16c784" stroke-width="1"/><rect x="424.65714285714284" y="134.50360257476157" width="10.685714285714285" height="40.23075943456297" fill="#16c784"/><line x1="447.80952380952385" y1="120.9193393916365" x2="447.80952380952385" y2="165.32984758297724" stroke="#ea3943" stroke-width="1"/><rect x="442.4666666666667" y="123.53172222642124" width="10.685714285714285" height="1" fill="#ea3943"/><line x1="465.61904761904765" y1="121.18051389623713" x2="465.61904761904765" y2="152.26793340905348" stroke="#ea3943" stroke-width="1"/><rect x="460.2761904761905" y="131.36887073077548" width="10.685714285714285" height="4.963591164968818" fill="#ea3943"/><line x1="483.42857142857144" y1="109.9474590432961" x2="483.42857142857144" y2="195.89459919220326" stroke="#ea3943" stroke-width="1"/><rect x="478.0857142857143" y="136.593636400345" width="10.685714285714285" height="48.329082443517905" fill="#ea3943"/><line x1="501.23809523809524" y1="92.44430271360488" x2="501.23809523809524" y2="172.90582158273085" stroke="#16c784" stroke-width="1"/><rect x="495.8952380952381" y="140.5122106525221" width="10.685714285714285" height="25.601479338646186" fill="#16c784"/><line x1="519.047619047619" y1="123.53172222642124" x2="519.047619047619" y2="199.29082443517902" stroke="#ea3943" stroke-width="1"/><rect x="513.7047619047619" y="134.2424280701609" width="10.685714285714285" height="50.680290773701984" fill="#ea3943"/><line x1="536.8571428571429" y1="152.26793340905348" x2="536.8571428571429" y2="216.2713128612799" stroke="#16c784" stroke-width="1"/><rect x="531.5142857142857" y="174.2120130001232" width="10.685714285714285" height="20.637888173677368" fill="#16c784"/><line x1="554.6666666666667" y1="136.593636400345" x2="554.6666666666667" y2="171.59963016533845" stroke="#16c784" stroke-width="1"/><rect x="549.3238095238096" y="162.45629024359184" width="10.685714285714285" height="1" fill="#16c784"/><line x1="572.4761904761905" y1="162.45629024359184" x2="572.4761904761905" y2="162.45629024359184" stroke="#16c784" stroke-width="1"/><rect x="567.1333333333333" y="162.45629024359184" width="10.685714285714285" height="1" fill="#16c784"/><line x1="590.2857142857143" y1="173.95083849552256" x2="590.2857142857143" y2="229.072052530603" stroke="#ea3943" stroke-width="1"/><rect x="584.9428571428572" y="188.84129309604" width="10.685714285714285" height="18.28667984349326" fill="#ea3943"/><line x1="608.0952380952381" y1="191.71485043542543" x2="608.0952380952381" y2="235.86418412216554" stroke="#ea3943" stroke-width="1"/><rect x="602.7523809523809" y="191.71485043542543" width="10.685714285714285" height="33.96097685220178" fill="#ea3943"/><line x1="625.9047619047619" y1="177.86941274769967" x2="625.9047619047619" y2="218.88369569606465" stroke="#16c784" stroke-width="1"/><rect x="620.5619047619048" y="188.84129309604" width="10.685714285714285" height="23.772620017663456" fill="#16c784"/><line x1="643.7142857142858" y1="175.2570299129149" x2="643.7142857142858" y2="212.3527386091028" stroke="#ea3943" stroke-width="1"/><rect x="638.3714285714286" y="183.61652742647053" width="10.685714285714285" height="16.980488426100862" fill="#ea3943"/><line x1="661.5238095238095" y1="178.39176175690102" x2="661.5238095238095" y2="204.51559010474853" stroke="#ea3943" stroke-width="1"/><rect x="656.1809523809524" y="178.39176175690102" width="10.685714285714285" height="20.899062678278" fill="#ea3943"/><line x1="679.3333333333334" y1="142.8634189827062" x2="679.3333333333334" y2="211.3077216963111" stroke="#16c784" stroke-width="1"/><rect x="673.9904761904762" y="154.09647383564723" width="10.685714285714285" height="45.19435059953179" fill="#16c784"/><line x1="697.1428571428571" y1="136.593636400345" x2="697.1428571428571" y2="199.02964993057836" stroke="#ea3943" stroke-width="1"/><rect x="691.8" y="148.34935915687637" width="10.685714285714285" height="39.44691702637192" fill="#ea3943"/><line x1="714.952380952381" y1="203.7317476965575" x2="714.952380952381" y2="283.93209206108276" stroke="#ea3943" stroke-width="1"/><rect x="709.6095238095238" y="217.57750427867228" width="10.685714285714285" height="55.12121403508047" fill="#ea3943"/><line x1="732.7619047619048" y1="218.88369569606465" x2="732.7619047619048" y2="277.13996046952025" stroke="#16c784" stroke-width="1"/><rect x="727.4190476190477" y="262.5103614792144" width="10.685714285714285" height="7.053624990552237" fill="#16c784"/><line x1="750.5714285714286" y1="180.7429700870851" x2="750.5714285714286" y2="241.6112988009364" stroke="#16c784" stroke-width="1"/><rect x="745.2285714285714" y="189.36364210524138" width="10.685714285714285" height="41.53695085195531" fill="#16c784"/><line x1="768.3809523809524" y1="193.0210418528178" x2="768.3809523809524" y2="222.8022699482418" stroke="#ea3943" stroke-width="1"/><rect x="763.0380952380953" y="209.74035577431803" width="10.685714285714285" height="8.098323008954907" fill="#ea3943"/><line x1="786.1904761904763" y1="188.84129309604" x2="786.1904761904763" y2="243.96250713112047" stroke="#16c784" stroke-width="1"/><rect x="780.8476190476191" y="228.0270356178113" width="10.685714285714285" height="7.837148504354246" fill="#16c784"/><line x1="804" y1="181.26531909628642" x2="804" y2="225.15347827842587" stroke="#16c784" stroke-width="1"/><rect x="798.6571428571428" y="221.49607853084942" width="10.685714285714285" height="3.6573997475764486" fill="#16c784"/><text x="56" y="16" fill="#cdd6e8" font-size="13">Candlestick · last 43 sessions</text></svg>