<svg xmlns="http://www.w3.org/2000/svg" width="820" height="360" viewBox="0 0 820 360"><rect x="0" y="0" width="820" height="360" fill="#0b0f1a"/><line x1="56" y1="24" x2="804" y2="24" stroke="#1c2434"/><text x="50" y="28" fill="#7f8aa3" font-size="11" text-anchor="end">42.64</text><line x1="56" y1="101" x2="804" y2="101" stroke="#1c2434"/><text x="50" y="105" fill="#7f8aa3" font-size="11" text-anchor="end">38.6</text><line x1="56" y1="178" x2="804" y2="178" stroke="#1c2434"/><text x="50" y="182" fill="#7f8aa3" font-size="11" text-anchor="end">34.57</text><line x1="56" y1="255" x2="804" y2="255" stroke="#1c2434"/><text x="50" y="259" fill="#7f8aa3" font-size="11" text-anchor="end">30.53</text><line x1="56" y1="332" x2="804" y2="332" stroke="#1c2434"/><text x="50" y="336" fill="#7f8aa3" font-size="11" text-anchor="end">26.5</text><line x1="56" y1="165.02353767569116" x2="56" y2="187.92318135364562" stroke="#ea3943" stroke-width="1"/><rect x="50.78139534883721" y="167.88602043392066" width="10.43720930232558" height="10.68644699934103" fill="#ea3943"/><line x1="73.3953488372093" y1="132.00991443165734" x2="73.3953488372093" y2="188.87731800773528" stroke="#16c784" stroke-width="1"/><rect x="68.1767441860465" y="155.10035632204554" width="10.43720930232558" height="29.006205619280905" fill="#16c784"/><line x1="90.7906976744186" y1="133.53651851900872" x2="90.7906976744186" y2="160.25278160928232" stroke="#16c784" stroke-width="1"/><rect x="85.5720930232558" y="135.82653384397653" width="10.43720930232558" height="24.044578544477844" fill="#16c784"/><line x1="108.18604651162791" y1="135.63566283558228" x2="108.18604651162791" y2="155.48202554287352" stroke="#ea3943" stroke-width="1"/><rect x="102.96744186046512" y="137.3531379313279" width="10.43720930232558" height="11.449858236957454" fill="#ea3943"/><line x1="125.5813953488372" y1="131.81904342326314" x2="125.5813953488372" y2="187.92318135364562" stroke="#ea3943" stroke-width="1"/><rect x="120.36279069767441" y="142.31476500613093" width="10.43720930232558" height="36.257702427130766" fill="#ea3943"/><line x1="142.97674418604652" y1="165.97767432978083" x2="142.97674418604652" y2="188.87731800773528" stroke="#ea3943" stroke-width="1"/><rect x="137.75813953488372" y="165.97767432978083" width="10.43720930232558" height="11.068189016129509" fill="#ea3943"/><line x1="160.37209302325581" y1="157.39029885105285" x2="160.37209302325581" y2="179.33580587491764" stroke="#16c784" stroke-width="1"/><rect x="155.15348837209302" y="169.22182630883827" width="10.43720930232558" height="7.82403703707206" fill="#16c784"/><line x1="177.7674418604651" y1="144.9863767559662" x2="177.7674418604651" y2="188.68651979530154" stroke="#ea3943" stroke-width="1"/><rect x="172.54883720930232" y="167.88602043392066" width="10.43720930232558" height="1.9082733081793322" fill="#ea3943"/><line x1="195.1627906976744" y1="169.7942937421" x2="195.1627906976744" y2="169.7942937421" stroke="#16c784" stroke-width="1"/><rect x="189.94418604651162" y="169.7942937421" width="10.43720930232558" height="1" fill="#16c784"/><line x1="212.5581395348837" y1="165.02353767569116" x2="212.5581395348837" y2="174.37425159607506" stroke="#ea3943" stroke-width="1"/><rect x="207.33953488372092" y="169.7942937421" width="10.43720930232558" height="3.0532809706632236" fill="#ea3943"/><line x1="229.953488372093" y1="103.19450702481018" x2="229.953488372093" y2="186.96904469955595" stroke="#ea3943" stroke-width="1"/><rect x="224.7348837209302" y="168.84015708801033" width="10.43720930232558" height="14.884735632488173" fill="#ea3943"/><line x1="247.3488372093023" y1="150.7112694764647" x2="247.3488372093023" y2="188.87731800773528" stroke="#16c784" stroke-width="1"/><rect x="242.1302325581395" y="161.39778927176624" width="10.43720930232558" height="8.396504470333753" fill="#16c784"/><line x1="264.74418604651163" y1="160.25278160928232" x2="264.74418604651163" y2="198.41883014055293" stroke="#ea3943" stroke-width="1"/><rect x="259.52558139534887" y="169.7942937421" width="10.43720930232558" height="7.633238824638283" fill="#ea3943"/><line x1="282.1395348837209" y1="160.25278160928232" x2="282.1395348837209" y2="188.68651979530154" stroke="#ea3943" stroke-width="1"/><rect x="276.92093023255813" y="174.5650498085088" width="10.43720930232558" height="4.961554278842556" fill="#ea3943"/><line x1="299.5348837209302" y1="161.39778927176624" x2="299.5348837209302" y2="192.69393742005443" stroke="#16c784" stroke-width="1"/><rect x="294.31627906976746" y="170.17596296292797" width="10.43720930232558" height="7.25156960381031" fill="#16c784"/><line x1="316.9302325581395" y1="168.84015708801033" x2="316.9302325581395" y2="205.861197956797" stroke="#ea3943" stroke-width="1"/><rect x="311.71162790697673" y="170.17596296292797" width="10.43720930232558" height="12.785591315914587" fill="#ea3943"/><line x1="334.3255813953488" y1="170.9393014045839" x2="334.3255813953488" y2="198.22803192811918" stroke="#16c784" stroke-width="1"/><rect x="329.10697674418606" y="175.5191864625985" width="10.43720930232558" height="7.442367816244058" fill="#16c784"/><line x1="351.72093023255815" y1="175.7100574709927" x2="351.72093023255815" y2="217.50185440618822" stroke="#ea3943" stroke-width="1"/><rect x="346.5023255813954" y="175.7100574709927" width="10.43720930232558" height="29.006205619280934" fill="#ea3943"/><line x1="369.1162790697674" y1="188.87731800773528" x2="369.1162790697674" y2="215.40271008961466" stroke="#16c784" stroke-width="1"/><rect x="363.89767441860465" y="198.8004993613809" width="10.43720930232558" height="5.915763728892728" fill="#16c784"/><line x1="386.51162790697674" y1="173.61091315441914" x2="386.51162790697674" y2="202.99878799452802" stroke="#ea3943" stroke-width="1"/><rect x="381.293023255814" y="175.5191864625985" width="10.43720930232558" height="12.40399489104712" fill="#ea3943"/><line x1="403.906976744186" y1="160.25278160928232" x2="403.906976744186" y2="197.84636270729123" stroke="#ea3943" stroke-width="1"/><rect x="398.68837209302325" y="188.87731800773528" width="10.43720930232558" height="2.6716117498352787" fill="#ea3943"/><line x1="421.30232558139534" y1="160.25278160928232" x2="421.30232558139534" y2="206.81533461088668" stroke="#16c784" stroke-width="1"/><rect x="416.0837209302326" y="167.5043512130927" width="10.43720930232558" height="24.044578544477872" fill="#16c784"/><line x1="438.6976744186046" y1="154.52788888878385" x2="438.6976744186046" y2="196.5105568323736" stroke="#ea3943" stroke-width="1"/><rect x="433.47906976744184" y="169.7942937421" width="10.43720930232558" height="9.350713920383896" fill="#ea3943"/><line x1="456.09302325581393" y1="169.7942937421" x2="456.09302325581393" y2="187.92318135364562" stroke="#16c784" stroke-width="1"/><rect x="450.87441860465117" y="170.9393014045839" width="10.43720930232558" height="8.01483524950578" fill="#16c784"/><line x1="473.48837209302326" y1="169.7942937421" x2="473.48837209302326" y2="185.0606985954161" stroke="#16c784" stroke-width="1"/><rect x="468.2697674418605" y="169.98509195453371" width="10.43720930232558" height="1" fill="#16c784"/><line x1="490.8837209302325" y1="169.7942937421" x2="490.8837209302325" y2="203.95292464861768" stroke="#ea3943" stroke-width="1"/><rect x="485.66511627906976" y="169.98509195453371" width="10.43720930232558" height="2.862482758229504" fill="#ea3943"/><line x1="508.27906976744185" y1="174.75584802094255" x2="508.27906976744185" y2="188.87731800773528" stroke="#ea3943" stroke-width="1"/><rect x="503.0604651162791" y="179.33580587491764" width="10.43720930232558" height="2.8624827582294756" fill="#ea3943"/><line x1="525.6744186046511" y1="170.5576321837559" x2="525.6744186046511" y2="183.15242528723678" stroke="#ea3943" stroke-width="1"/><rect x="520.4558139534884" y="170.5576321837559" width="10.43720930232558" height="10.686446999341058" fill="#ea3943"/><line x1="543.0697674418604" y1="175.5191864625985" x2="543.0697674418604" y2="204.1437228610514" stroke="#ea3943" stroke-width="1"/><rect x="537.8511627906977" y="176.47332311668814" width="10.43720930232558" height="12.97646232430884" fill="#ea3943"/><line x1="560.4651162790697" y1="189.44978544099698" x2="560.4651162790697" y2="189.44978544099698" stroke="#16c784" stroke-width="1"/><rect x="555.2465116279069" y="189.44978544099698" width="10.43720930232558" height="1" fill="#16c784"/><line x1="577.860465116279" y1="183.15242528723678" x2="577.860465116279" y2="191.1672605367426" stroke="#ea3943" stroke-width="1"/><rect x="572.6418604651162" y="185.0606985954161" width="10.43720930232558" height="4.770756066408836" fill="#ea3943"/><line x1="595.2558139534883" y1="183.15242528723678" x2="595.2558139534883" y2="192.88473563248817" stroke="#16c784" stroke-width="1"/><rect x="590.0372093023256" y="187.15984291198967" width="10.43720930232558" height="2.6716117498352787" fill="#16c784"/><line x1="612.6511627906976" y1="164.0694010216015" x2="612.6511627906976" y2="193.6480740741441" stroke="#16c784" stroke-width="1"/><rect x="607.4325581395349" y="190.78559131591462" width="10.43720930232558" height="2.8624827582294756" fill="#16c784"/><line x1="630.046511627907" y1="184.10656194132645" x2="630.046511627907" y2="203.18958620696176" stroke="#ea3943" stroke-width="1"/><rect x="624.8279069767442" y="187.7323103452514" width="10.43720930232558" height="5.152425287236781" fill="#ea3943"/><line x1="647.4418604651163" y1="190.78559131591462" x2="647.4418604651163" y2="207.96034227337057" stroke="#ea3943" stroke-width="1"/><rect x="642.2232558139535" y="190.78559131591462" width="10.43720930232558" height="7.633238824638312" fill="#ea3943"/><line x1="664.8372093023255" y1="197.46469348646326" x2="664.8372093023255" y2="209.8686155815499" stroke="#16c784" stroke-width="1"/><rect x="659.6186046511627" y="200.51797445712648" width="10.43720930232558" height="4.5798850580145825" fill="#16c784"/><line x1="682.2325581395348" y1="201.28131289878243" x2="682.2325581395348" y2="211.77696168568974" stroke="#16c784" stroke-width="1"/><rect x="677.0139534883721" y="205.47952873596904" width="10.43720930232558" height="4.389086845580863" fill="#16c784"/><line x1="699.6279069767442" y1="183.34322349967053" x2="699.6279069767442" y2="239.44732503207274" stroke="#ea3943" stroke-width="1"/><rect x="694.4093023255814" y="183.34322349967053" width="10.43720930232558" height="35.8761060022633" fill="#ea3943"/><line x1="717.0232558139535" y1="208.15114048580432" x2="717.0232558139535" y2="227.0433665390059" stroke="#16c784" stroke-width="1"/><rect x="711.8046511627907" y="216.73851596453227" width="10.43720930232558" height="2.480813537401559" fill="#16c784"/><line x1="734.4186046511627" y1="215.59358109800888" x2="734.4186046511627" y2="222.27261047259702" stroke="#ea3943" stroke-width="1"/><rect x="729.1999999999999" y="216.73851596453227" width="10.43720930232558" height="1.3358058749176394" fill="#ea3943"/><line x1="751.813953488372" y1="214.63937164795874" x2="751.813953488372" y2="332" stroke="#ea3943" stroke-width="1"/><rect x="746.5953488372093" y="239.25649042165878" width="10.43720930232558" height="33.20445785444781" fill="#ea3943"/><line x1="769.2093023255813" y1="159.4894431676264" x2="769.2093023255813" y2="295.742261174889" stroke="#16c784" stroke-width="1"/><rect x="763.9906976744186" y="159.4894431676264" width="10.43720930232558" height="136.2528180072626" fill="#16c784"/><line x1="786.6046511627907" y1="24" x2="786.6046511627907" y2="91.55392337137945" stroke="#ea3943" stroke-width="1"/><rect x="781.3860465116279" y="57.20442145646757" width="10.43720930232558" height="3.053280970663195" fill="#ea3943"/><line x1="804" y1="61.21191187718091" x2="804" y2="164.0694010216015" stroke="#16c784" stroke-width="1"/><rect x="798.7813953488372" y="95.37046998773812" width="10.43720930232558" height="68.69893103386337" fill="#16c784"/><text x="56" y="16" fill="#cdd6e8" font-size="13">Candlestick · last 44 sessions</text></svg>