<svg xmlns="http://www.w3.org/2000/svg" width="820" height="360" viewBox="0 0 820 360"><rect x="0" y="0" width="820" height="360" fill="#0b0f1a"/><line x1="56" y1="24" x2="804" y2="24" stroke="#1c2434"/><text x="50" y="28" fill="#7f8aa3" font-size="11" text-anchor="end">2457.4</text><line x1="56" y1="101" x2="804" y2="101" stroke="#1c2434"/><text x="50" y="105" fill="#7f8aa3" font-size="11" text-anchor="end">2337.25</text><line x1="56" y1="178" x2="804" y2="178" stroke="#1c2434"/><text x="50" y="182" fill="#7f8aa3" font-size="11" text-anchor="end">2217.1</text><line x1="56" y1="255" x2="804" y2="255" stroke="#1c2434"/><text x="50" y="259" fill="#7f8aa3" font-size="11" text-anchor="end">2096.95</text><line x1="56" y1="332" x2="804" y2="332" stroke="#1c2434"/><text x="50" y="336" fill="#7f8aa3" font-size="11" text-anchor="end">1976.8</text><line x1="56" y1="129.42242081302" x2="56" y2="155.50562676749283" stroke="#16c784" stroke-width="1"/><rect x="50.65714285714286" y="135.63878758692368" width="10.685714285714285" height="12.304591684078076" fill="#16c784"/><line x1="73.80952380952381" y1="75.14096407636737" x2="73.80952380952381" y2="126.73065936784528" stroke="#16c784" stroke-width="1"/><rect x="68.46666666666667" y="107.5046859672945" width="10.685714285714285" height="17.36752522304633" fill="#16c784"/><line x1="91.61904761904762" y1="97.95584842956976" x2="91.61904761904762" y2="113.46476901373964" stroke="#16c784" stroke-width="1"/><rect x="86.27619047619048" y="107.31255140238665" width="10.685714285714285" height="2.2430302300642495" fill="#16c784"/><line x1="109.42857142857143" y1="101.86519227223059" x2="109.42857142857143" y2="115.90009027008384" stroke="#ea3943" stroke-width="1"/><rect x="104.08571428571429" y="105.00537200977172" width="10.685714285714285" height="2.4353212563441957" fill="#ea3943"/><line x1="127.23809523809524" y1="99.2375799896065" x2="127.23809523809524" y2="119.68113578764331" stroke="#ea3943" stroke-width="1"/><rect x="121.8952380952381" y="104.94122284722104" width="10.685714285714285" height="8.843979056527786" fill="#ea3943"/><line x1="145.04761904761904" y1="108.14555174731285" x2="145.04761904761904" y2="129.35827165046936" stroke="#ea3943" stroke-width="1"/><rect x="139.70476190476188" y="108.85056668988187" width="10.685714285714285" height="10.766576396582849" fill="#ea3943"/><line x1="162.85714285714286" y1="106.99211851237746" x2="162.85714285714286" y2="142.56016930339638" stroke="#ea3943" stroke-width="1"/><rect x="157.5142857142857" y="119.61714308646472" width="10.685714285714285" height="20.50770496058749" fill="#ea3943"/><line x1="180.66666666666669" y1="127.69195803787281" x2="180.66666666666669" y2="149.9301257736075" stroke="#16c784" stroke-width="1"/><rect x="175.32380952380953" y="134.99792180690534" width="10.685714285714285" height="5.895933883894486" fill="#16c784"/><line x1="198.47619047619048" y1="134.99792180690534" x2="198.47619047619048" y2="134.99792180690534" stroke="#16c784" stroke-width="1"/><rect x="193.13333333333333" y="134.99792180690534" width="10.685714285714285" height="1" fill="#16c784"/><line x1="216.28571428571428" y1="103.08277466971666" x2="216.28571428571428" y2="166.5284868915342" stroke="#ea3943" stroke-width="1"/><rect x="210.94285714285712" y="130.64000321050605" width="10.685714285714285" height="20.571854123138195" fill="#ea3943"/><line x1="234.0952380952381" y1="102.44190888969831" x2="234.0952380952381" y2="137.68952679070802" stroke="#16c784" stroke-width="1"/><rect x="228.75238095238095" y="126.53852480293742" width="10.685714285714285" height="8.58753886769719" fill="#16c784"/><line x1="251.90476190476193" y1="24" x2="251.90476190476193" y2="114.49021684631785" stroke="#16c784" stroke-width="1"/><rect x="246.56190476190477" y="30.729090690192777" width="10.685714285714285" height="81.3258048997809" fill="#16c784"/><line x1="269.7142857142857" y1="65.27169364863352" x2="269.7142857142857" y2="173.06528655544702" stroke="#ea3943" stroke-width="1"/><rect x="264.37142857142857" y="65.27169364863352" width="10.685714285714285" height="96.96302380905206" fill="#ea3943"/><line x1="287.5238095238095" y1="154.92875368865305" x2="287.5238095238095" y2="178.32035465932313" stroke="#ea3943" stroke-width="1"/><rect x="282.18095238095236" y="162.23471745768558" width="10.685714285714285" height="1" fill="#ea3943"/><line x1="305.33333333333337" y1="142.94459489458413" x2="305.33333333333337" y2="194.08571543232358" stroke="#ea3943" stroke-width="1"/><rect x="299.9904761904762" y="148.64839421357078" width="10.685714285714285" height="41.01540992117498" fill="#ea3943"/><line x1="323.14285714285717" y1="203.69870213259898" x2="323.14285714285717" y2="225.29584762694327" stroke="#ea3943" stroke-width="1"/><rect x="317.8" y="208.1847625927275" width="10.685714285714285" height="11.920166092890298" fill="#ea3943"/><line x1="340.95238095238096" y1="205.62129947265407" x2="340.95238095238096" y2="232.02493831713605" stroke="#ea3943" stroke-width="1"/><rect x="335.6095238095238" y="205.62129947265407" width="10.685714285714285" height="14.739912940422244" fill="#ea3943"/><line x1="358.76190476190476" y1="201.26338087625481" x2="358.76190476190476" y2="224.33454895691574" stroke="#16c784" stroke-width="1"/><rect x="353.4190476190476" y="218.5027642355719" width="10.685714285714285" height="1.6661571512244961" fill="#16c784"/><line x1="376.57142857142856" y1="218.05403302046136" x2="376.57142857142856" y2="246.63670939382902" stroke="#16c784" stroke-width="1"/><rect x="371.2285714285714" y="230.23048284081023" width="10.685714285714285" height="5.511508292706708" fill="#16c784"/><line x1="394.3809523809524" y1="209.4664941527642" x2="394.3809523809524" y2="228.69246755331497" stroke="#16c784" stroke-width="1"/><rect x="389.03809523809525" y="213.69627088543422" width="10.685714285714285" height="7.305807307660444" fill="#16c784"/><line x1="412.1904761904762" y1="194.08571543232358" x2="412.1904761904762" y2="215.04199514664953" stroke="#ea3943" stroke-width="1"/><rect x="406.84761904761905" y="194.08571543232358" width="10.685714285714285" height="19.2259734005508" fill="#ea3943"/><line x1="430" y1="183.1909971720115" x2="430" y2="214.20883834035124" stroke="#16c784" stroke-width="1"/><rect x="424.65714285714284" y="189.59965497219508" width="10.685714285714285" height="20.50770496058749" fill="#16c784"/><line x1="447.80952380952385" y1="169.0919500116076" x2="447.80952380952385" y2="188.51021443843828" stroke="#16c784" stroke-width="1"/><rect x="442.4666666666667" y="174.2188762517545" width="10.685714285714285" height="8.972120920256998" fill="#16c784"/><line x1="465.61904761904765" y1="179.9866682719197" x2="465.61904761904765" y2="200.4943732325072" stroke="#ea3943" stroke-width="1"/><rect x="460.2761904761905" y="183.1909971720115" width="10.685714285714285" height="3.6529036538302364" fill="#ea3943"/><line x1="483.42857142857144" y1="228.69246755331497" x2="483.42857142857144" y2="278.74414755729765" stroke="#16c784" stroke-width="1"/><rect x="478.0857142857143" y="237.02372269355365" width="10.685714285714285" height="12.817315600367152" fill="#16c784"/><line x1="501.23809523809524" y1="216.51601773296613" x2="501.23809523809524" y2="239.58718581362706" stroke="#ea3943" stroke-width="1"/><rect x="495.8952380952381" y="232.40952036969588" width="10.685714285714285" height="2.819746847531917" fill="#ea3943"/><line x1="519.047619047619" y1="244.0732462737556" x2="519.047619047619" y2="281.8843272948387" stroke="#ea3943" stroke-width="1"/><rect x="513.7047619047619" y="245.99584361381068" width="10.685714285714285" height="32.94043850839478" fill="#ea3943"/><line x1="536.8571428571429" y1="239.77947683990698" x2="536.8571428571429" y2="278.0391326147286" stroke="#16c784" stroke-width="1"/><rect x="531.5142857142857" y="247.27757517384737" width="10.685714285714285" height="30.761557440881234" fill="#16c784"/><line x1="554.6666666666667" y1="221.96337686312222" x2="554.6666666666667" y2="260.7357565542329" stroke="#ea3943" stroke-width="1"/><rect x="549.3238095238096" y="231.51221440084691" width="10.685714285714285" height="24.929772719537425" fill="#ea3943"/><line x1="572.4761904761905" y1="256.44198712038434" x2="572.4761904761905" y2="256.44198712038434" stroke="#16c784" stroke-width="1"/><rect x="567.1333333333333" y="256.44198712038434" width="10.685714285714285" height="1" fill="#16c784"/><line x1="590.2857142857143" y1="249.8410382939208" x2="590.2857142857143" y2="271.63047481454504" stroke="#16c784" stroke-width="1"/><rect x="584.9428571428572" y="254.39124791659998" width="10.685714285714285" height="5.062777077596195" fill="#16c784"/><line x1="608.0952380952381" y1="250.28961304765926" x2="608.0952380952381" y2="305.08363723922895" stroke="#ea3943" stroke-width="1"/><rect x="602.7523809523809" y="259.4540249941962" width="10.685714285714285" height="37.49064813107401" fill="#ea3943"/><line x1="625.9047619047619" y1="283.80692463489385" x2="625.9047619047619" y2="332" stroke="#ea3943" stroke-width="1"/><rect x="620.5619047619048" y="291.56138492697875" width="10.685714285714285" height="36.7216404873264" fill="#ea3943"/><line x1="643.7142857142858" y1="267.84942929698553" x2="643.7142857142858" y2="315.5297807458026" stroke="#16c784" stroke-width="1"/><rect x="638.3714285714286" y="273.4889229920494" width="10.685714285714285" height="38.51609596365222" fill="#16c784"/><line x1="661.5238095238095" y1="242.40693266115903" x2="661.5238095238095" y2="262.658353894288" stroke="#ea3943" stroke-width="1"/><rect x="656.1809523809524" y="253.0453671940126" width="10.685714285714285" height="4.165627570119341" fill="#ea3943"/><line x1="679.3333333333334" y1="257.5314276541411" x2="679.3333333333334" y2="284.7040741423707" stroke="#ea3943" stroke-width="1"/><rect x="673.9904761904762" y="259.4540249941962" width="10.685714285714285" height="20.763988688046027" fill="#ea3943"/><line x1="697.1428571428571" y1="238.4977452798703" x2="697.1428571428571" y2="285.7295219749489" stroke="#16c784" stroke-width="1"/><rect x="691.8" y="255.54468115153537" width="10.685714285714285" height="29.543975043395164" fill="#16c784"/><line x1="714.952380952381" y1="246.82900042010897" x2="714.952380952381" y2="285.85766383867815" stroke="#ea3943" stroke-width="1"/><rect x="709.6095238095238" y="256.89056187412274" width="10.685714285714285" height="23.39160097067014" fill="#ea3943"/><line x1="732.7619047619048" y1="275.47566949465516" x2="732.7619047619048" y2="306.87809271555477" stroke="#ea3943" stroke-width="1"/><rect x="727.4190476190477" y="280.2821628447929" width="10.685714285714285" height="5.126926240146872" fill="#ea3943"/><line x1="750.5714285714286" y1="231.70450542712683" x2="750.5714285714286" y2="275.7319532221137" stroke="#ea3943" stroke-width="1"/><rect x="745.2285714285714" y="249.71289643019156" width="10.685714285714285" height="23.199309944390166" fill="#ea3943"/><line x1="768.3809523809524" y1="185.8186094546356" x2="768.3809523809524" y2="275.4115203321045" stroke="#16c784" stroke-width="1"/><rect x="763.0380952380953" y="200.81480612251636" width="10.685714285714285" height="68.25220557195524" fill="#16c784"/><line x1="786.1904761904763" y1="171.01454735166269" x2="786.1904761904763" y2="202.41697057256226" stroke="#16c784" stroke-width="1"/><rect x="780.8476190476191" y="188.57420713961687" width="10.685714285714285" height="11.34344947542263" fill="#16c784"/><line x1="804" y1="187.10034101467232" x2="804" y2="223.95012336572796" stroke="#16c784" stroke-width="1"/><rect x="798.6571428571428" y="195.88017090864943" width="10.685714285714285" height="9.676979401453963" fill="#16c784"/><text x="56" y="16" fill="#cdd6e8" font-size="13">Candlestick · last 43 sessions</text></svg>